Gidugu-Regular.ufo
<glyph name="quotedbl" format="2">
  <advance width="269"/>
  <unicode hex="0022"/>
  <note>
quotedbl
</note>
  <outline>
    <contour>
      <point x="97" y="284" type="line"/>
      <point x="37" y="284" type="line"/>
      <point x="17" y="411" type="line"/>
      <point x="17" y="460" type="line"/>
      <point x="118" y="460" type="line"/>
      <point x="118" y="411" type="line"/>
    </contour>
    <contour>
      <point x="232" y="284" type="line"/>
      <point x="171" y="284" type="line"/>
      <point x="151" y="411" type="line"/>
      <point x="151" y="460" type="line"/>
      <point x="252" y="460" type="line"/>
      <point x="252" y="411" type="line"/>
    </contour>
  </outline>
</glyph>
<glyph name="numbersign" format="2">
  <advance width="537"/>
  <unicode hex="0023"/>
  <note>
numbersign
</note>
  <outline>
    <contour>
      <point x="420" y="173" type="line"/>
      <point x="482" y="173" type="line"/>
      <point x="465" y="88" type="line"/>
      <point x="405" y="88" type="line"/>
      <point x="381" y="-48" type="line"/>
      <point x="268" y="-48" type="line"/>
      <point x="293" y="88" type="line"/>
      <point x="193" y="88" type="line"/>
      <point x="168" y="-48" type="line"/>
      <point x="56" y="-48" type="line"/>
      <point x="80" y="88" type="line"/>
      <point x="21" y="88" type="line"/>
      <point x="37" y="173" type="line"/>
      <point x="95" y="173" type="line"/>
      <point x="116" y="286" type="line"/>
      <point x="58" y="286" type="line"/>
      <point x="74" y="371" type="line"/>
      <point x="131" y="371" type="line"/>
      <point x="157" y="508" type="line"/>
      <point x="269" y="508" type="line"/>
      <point x="244" y="371" type="line"/>
      <point x="344" y="371" type="line"/>
      <point x="369" y="508" type="line"/>
      <point x="482" y="508" type="line"/>
      <point x="456" y="371" type="line"/>
      <point x="517" y="371" type="line"/>
      <point x="502" y="286" type="line"/>
      <point x="441" y="286" type="line"/>
    </contour>
    <contour>
      <point x="229" y="286" type="line"/>
      <point x="208" y="173" type="line"/>
      <point x="308" y="173" type="line"/>
      <point x="329" y="286" type="line"/>
    </contour>
  </outline>
</glyph>
<glyph name="ampersand" format="2">
  <advance width="768"/>
  <unicode hex="0026"/>
  <outline>
    <contour>
      <point x="448" y="136" type="line"/>
      <point x="397" y="108"/>
      <point x="352" y="94"/>
      <point x="314" y="94" type="curve" smooth="yes"/>
      <point x="275" y="94"/>
      <point x="242" y="104"/>
      <point x="216" y="125" type="curve" smooth="yes"/>
      <point x="191" y="146"/>
      <point x="178" y="171"/>
      <point x="178" y="200" type="curve" smooth="yes"/>
      <point x="178" y="253"/>
      <point x="207" y="287"/>
      <point x="265" y="300" type="curve"/>
    </contour>
    <contour>
      <point x="356" y="471" type="curve" smooth="yes"/>
      <point x="356" y="440"/>
      <point x="335" y="416"/>
      <point x="294" y="397" type="curve"/>
      <point x="268" y="422"/>
      <point x="255" y="445"/>
      <point x="255" y="466" type="curve"/>
      <point x="259" y="502"/>
      <point x="279" y="525"/>
      <point x="312" y="525" type="curve" smooth="yes"/>
      <point x="341" y="525"/>
      <point x="356" y="507"/>
    </contour>
    <contour>
      <point x="727" y="8" type="line"/>
      <point x="647" y="85"/>
      <point x="602" y="128"/>
      <point x="591" y="135" type="curve"/>
      <point x="615" y="171"/>
      <point x="631" y="215"/>
      <point x="627" y="266" type="curve" smooth="yes"/>
      <point x="623" y="314" type="line"/>
      <point x="502" y="314" type="line"/>
      <point x="508" y="299"/>
      <point x="511" y="287"/>
      <point x="511" y="276" type="curve" smooth="yes"/>
      <point x="511" y="247"/>
      <point x="507" y="224"/>
      <point x="499" y="207" type="curve"/>
      <point x="446" y="262"/>
      <point x="398" y="306"/>
      <point x="355" y="340" type="curve"/>
      <point x="436" y="367"/>
      <point x="476" y="415"/>
      <point x="476" y="482" type="curve" smooth="yes"/>
      <point x="476" y="565"/>
      <point x="404" y="610"/>
      <point x="305" y="610" type="curve" smooth="yes"/>
      <point x="250" y="610"/>
      <point x="205" y="596"/>
      <point x="171" y="569" type="curve" smooth="yes"/>
      <point x="140" y="544"/>
      <point x="125" y="515"/>
      <point x="125" y="482" type="curve" smooth="yes"/>
      <point x="125" y="459"/>
      <point x="131" y="438"/>
      <point x="143" y="419" type="curve" smooth="yes"/>
      <point x="150" y="407"/>
      <point x="166" y="389"/>
      <point x="191" y="366" type="curve"/>
      <point x="96" y="345"/>
      <point x="41" y="287"/>
      <point x="41" y="199" type="curve" smooth="yes"/>
      <point x="41" y="136"/>
      <point x="70" y="87"/>
      <point x="126" y="50" type="curve" smooth="yes"/>
      <point x="180" y="15"/>
      <point x="236" y="1"/>
      <point x="312" y="1" type="curve" smooth="yes"/>
      <point x="401" y="1"/>
      <point x="476" y="25"/>
      <point x="524" y="65" type="curve"/>
      <point x="591" y="8" type="line"/>
    </contour>
  </outline>
</glyph>
<glyph name="quotesingle" format="2">
  <advance width="160"/>
  <unicode hex="0027"/>
  <outline>
    <contour>
      <point x="115" y="555" type="line"/>
      <point x="131" y="646" type="line"/>
      <point x="131" y="728" type="line"/>
      <point x="30" y="728" type="line"/>
      <point x="30" y="646" type="line"/>
      <point x="48" y="555" type="line"/>
    </contour>
  </outline>
</glyph>
<glyph name="parenleft" format="2">
  <advance width="328"/>
  <unicode hex="0028"/>
  <outline>
    <contour>
      <point x="270" y="-80" type="line"/>
      <point x="233" y="-80"/>
      <point x="205" y="-54"/>
      <point x="184" y="-2" type="curve" smooth="yes"/>
      <point x="163" y="50"/>
      <point x="153" y="123"/>
      <point x="153" y="216" type="curve" smooth="yes"/>
      <point x="153" y="325"/>
      <point x="162" y="404"/>
      <point x="181" y="455" type="curve" smooth="yes"/>
      <point x="199" y="506"/>
      <point x="228" y="532"/>
      <point x="268" y="532" type="curve"/>
      <point x="268" y="580" type="line"/>
      <point x="261" y="581"/>
      <point x="253" y="582"/>
      <point x="244" y="582" type="curve" smooth="yes"/>
      <point x="185" y="582"/>
      <point x="140" y="550"/>
      <point x="107" y="487" type="curve" smooth="yes"/>
      <point x="74" y="424"/>
      <point x="58" y="334"/>
      <point x="58" y="219" type="curve" smooth="yes"/>
      <point x="58" y="113"/>
      <point x="75" y="28"/>
      <point x="108" y="-36" type="curve" smooth="yes"/>
      <point x="142" y="-101"/>
      <point x="187" y="-133"/>
      <point x="243" y="-133" type="curve" smooth="yes"/>
      <point x="254" y="-133"/>
      <point x="263" y="-132"/>
      <point x="270" y="-129" type="curve"/>
    </contour>
  </outline>
</glyph>
<glyph name="asterisk" format="2">
  <advance width="354"/>
  <unicode hex="002A"/>
  <note>
asterisk
</note>
  <outline>
    <contour>
      <point x="193" y="364" type="line"/>
      <point x="160" y="364" type="line"/>
      <point x="126" y="424" type="line"/>
      <point x="126" y="491" type="line"/>
      <point x="227" y="491" type="line"/>
      <point x="227" y="424" type="line"/>
    </contour>
    <contour>
      <point x="153" y="358" type="line"/>
      <point x="144" y="329" type="line"/>
      <point x="78" y="321" type="line"/>
      <point x="14" y="342" type="line"/>
      <point x="41" y="423" type="line"/>
      <point x="105" y="402" type="line"/>
    </contour>
    <contour>
      <point x="209" y="328" type="line"/>
      <point x="200" y="358" type="line"/>
      <point x="247" y="402" type="line"/>
      <point x="311" y="423" type="line"/>
      <point x="339" y="342" type="line"/>
      <point x="275" y="321" type="line"/>
    </contour>
    <contour>
      <point x="147" y="320" type="line"/>
      <point x="171" y="302" type="line"/>
      <point x="163" y="237" type="line"/>
      <point x="122" y="179" type="line"/>
      <point x="47" y="236" type="line"/>
      <point x="86" y="293" type="line"/>
    </contour>
    <contour>
      <point x="181" y="302" type="line"/>
      <point x="207" y="320" type="line"/>
      <point x="266" y="293" type="line"/>
      <point x="307" y="236" type="line"/>
      <point x="230" y="179" type="line"/>
      <point x="190" y="237" type="line"/>
    </contour>
  </outline>
</glyph>
<glyph name="plus" format="2">
  <advance width="538"/>
  <unicode hex="002B"/>
  <outline>
    <contour>
      <point x="484" y="205" type="line"/>
      <point x="326" y="205" type="line"/>
      <point x="326" y="345" type="line"/>
      <point x="206" y="345" type="line"/>
      <point x="206" y="205" type="line"/>
      <point x="54" y="205" type="line"/>
      <point x="54" y="135" type="line"/>
      <point x="206" y="135" type="line"/>
      <point x="206" y="-4" type="line"/>
      <point x="326" y="-4" type="line"/>
      <point x="326" y="135" type="line"/>
      <point x="484" y="135" type="line"/>
    </contour>
  </outline>
</glyph>
<glyph name="comma" format="2">
  <advance width="233"/>
  <unicode hex="002C"/>
  <outline>
    <contour>
      <point x="59" y="-39" type="line"/>
      <point x="63" y="-45"/>
      <point x="70" y="-49"/>
      <point x="81" y="-52" type="curve" smooth="yes"/>
      <point x="88" y="-54"/>
      <point x="97" y="-55"/>
      <point x="108" y="-55" type="curve" smooth="yes"/>
      <point x="129" y="-55"/>
      <point x="146" y="-47"/>
      <point x="159" y="-31" type="curve" smooth="yes"/>
      <point x="172" y="-16"/>
      <point x="179" y="4"/>
      <point x="179" y="28" type="curve" smooth="yes"/>
      <point x="179" y="49"/>
      <point x="175" y="65"/>
      <point x="165" y="78" type="curve" smooth="yes"/>
      <point x="153" y="94"/>
      <point x="133" y="102"/>
      <point x="110" y="102" type="curve" smooth="yes"/>
      <point x="97" y="102"/>
      <point x="85" y="98"/>
      <point x="74" y="89" type="curve" smooth="yes"/>
      <point x="61" y="79"/>
      <point x="54" y="64"/>
      <point x="54" y="44" type="curve" smooth="yes"/>
      <point x="54" y="31"/>
      <point x="58" y="20"/>
      <point x="65" y="12" type="curve" smooth="yes"/>
      <point x="72" y="3"/>
      <point x="84" y="-1"/>
      <point x="99" y="-1" type="curve" smooth="yes"/>
      <point x="106" y="-1"/>
      <point x="112" y="-1"/>
      <point x="115" y="0" type="curve"/>
      <point x="116" y="-2"/>
      <point x="116" y="-5"/>
      <point x="116" y="-8" type="curve" smooth="yes"/>
      <point x="116" y="-20"/>
      <point x="111" y="-28"/>
      <point x="101" y="-33" type="curve" smooth="yes"/>
      <point x="93" y="-38"/>
      <point x="83" y="-41"/>
      <point x="72" y="-40" type="curve" smooth="yes"/>
    </contour>
  </outline>
</glyph>
<glyph name="hyphen" format="2">
  <advance width="361"/>
  <unicode hex="002D"/>
  <outline>
    <contour>
      <point x="308" y="210" type="line"/>
      <point x="54" y="210" type="line"/>
      <point x="54" y="156" type="line"/>
      <point x="308" y="156" type="line"/>
    </contour>
  </outline>
</glyph>
<glyph name="slash" format="2">
  <advance width="552"/>
  <unicode hex="002F"/>
  <outline>
    <contour>
      <point x="394" y="517" type="line"/>
      <point x="54" y="-161" type="line"/>
      <point x="150" y="-161" type="line"/>
      <point x="498" y="517" type="line"/>
    </contour>
  </outline>
</glyph>
<glyph name="one" format="2">
  <advance width="562"/>
  <unicode hex="0031"/>
  <outline>
    <contour>
      <point x="468" y="57" type="line"/>
      <point x="375" y="57" type="line" smooth="yes"/>
      <point x="365" y="57"/>
      <point x="357" y="62"/>
      <point x="352" y="71" type="curve" smooth="yes"/>
      <point x="348" y="78"/>
      <point x="346" y="88"/>
      <point x="346" y="99" type="curve" smooth="yes"/>
      <point x="346" y="411" type="line"/>
      <point x="266" y="411" type="line"/>
      <point x="264" y="392"/>
      <point x="251" y="374"/>
      <point x="228" y="358" type="curve" smooth="yes"/>
      <point x="207" y="344"/>
      <point x="185" y="335"/>
      <point x="160" y="330" type="curve"/>
      <point x="160" y="285" type="line"/>
      <point x="202" y="285" type="line" smooth="yes"/>
      <point x="209" y="285"/>
      <point x="213" y="284"/>
      <point x="216" y="281" type="curve" smooth="yes"/>
      <point x="218" y="278"/>
      <point x="219" y="274"/>
      <point x="219" y="267" type="curve" smooth="yes"/>
      <point x="219" y="93" type="line" smooth="yes"/>
      <point x="219" y="80"/>
      <point x="217" y="70"/>
      <point x="214" y="64" type="curve" smooth="yes"/>
      <point x="211" y="58"/>
      <point x="204" y="55"/>
      <point x="193" y="55" type="curve" smooth="yes"/>
      <point x="94" y="55" type="line"/>
      <point x="94" y="-5" type="line"/>
      <point x="468" y="-5" type="line"/>
    </contour>
  </outline>
</glyph>
<glyph name="four" format="2">
  <advance width="563"/>
  <unicode hex="0034"/>
  <outline>
    <contour>
      <point x="132" y="125" type="line"/>
      <point x="311" y="359" type="line"/>
      <point x="311" y="125" type="line"/>
    </contour>
    <contour>
      <point x="513" y="125" type="line"/>
      <point x="437" y="125" type="line"/>
      <point x="437" y="411" type="line"/>
      <point x="269" y="411" type="line"/>
      <point x="49" y="128" type="line"/>
      <point x="49" y="69" type="line"/>
      <point x="311" y="69" type="line"/>
      <point x="311" y="-5" type="line"/>
      <point x="437" y="-5" type="line"/>
      <point x="437" y="69" type="line"/>
      <point x="513" y="69" type="line"/>
    </contour>
  </outline>
</glyph>
<glyph name="six" format="2">
  <advance width="563"/>
  <unicode hex="0036"/>
  <outline>
    <contour>
      <point x="397" y="141" type="curve" smooth="yes"/>
      <point x="397" y="110"/>
      <point x="385" y="87"/>
      <point x="361" y="71" type="curve" smooth="yes"/>
      <point x="341" y="57"/>
      <point x="317" y="50"/>
      <point x="288" y="50" type="curve" smooth="yes"/>
      <point x="262" y="50"/>
      <point x="239" y="57"/>
      <point x="218" y="70" type="curve" smooth="yes"/>
      <point x="194" y="85"/>
      <point x="182" y="106"/>
      <point x="182" y="131" type="curve" smooth="yes"/>
      <point x="182" y="165"/>
      <point x="197" y="190"/>
      <point x="228" y="207" type="curve" smooth="yes"/>
      <point x="250" y="219"/>
      <point x="276" y="225"/>
      <point x="305" y="225" type="curve" smooth="yes"/>
      <point x="329" y="225"/>
      <point x="349" y="219"/>
      <point x="366" y="208" type="curve" smooth="yes"/>
      <point x="387" y="194"/>
      <point x="397" y="172"/>
    </contour>
    <contour>
      <point x="518" y="148" type="curve" smooth="yes"/>
      <point x="518" y="191"/>
      <point x="494" y="224"/>
      <point x="447" y="247" type="curve" smooth="yes"/>
      <point x="408" y="266"/>
      <point x="363" y="276"/>
      <point x="312" y="276" type="curve" smooth="yes"/>
      <point x="281" y="276"/>
      <point x="252" y="272"/>
      <point x="225" y="263" type="curve" smooth="yes"/>
      <point x="195" y="254"/>
      <point x="173" y="241"/>
      <point x="158" y="225" type="curve"/>
      <point x="158" y="272"/>
      <point x="167" y="308"/>
      <point x="187" y="333" type="curve" smooth="yes"/>
      <point x="210" y="361"/>
      <point x="245" y="375"/>
      <point x="294" y="375" type="curve" smooth="yes"/>
      <point x="329" y="375"/>
      <point x="356" y="367"/>
      <point x="374" y="352" type="curve" smooth="yes"/>
      <point x="391" y="339"/>
      <point x="399" y="324"/>
      <point x="399" y="306" type="curve" smooth="yes"/>
      <point x="398" y="296" type="line"/>
      <point x="499" y="296" type="line"/>
      <point x="494" y="331"/>
      <point x="476" y="359"/>
      <point x="445" y="380" type="curve" smooth="yes"/>
      <point x="408" y="404"/>
      <point x="355" y="416"/>
      <point x="288" y="416" type="curve" smooth="yes"/>
      <point x="214" y="416"/>
      <point x="155" y="397"/>
      <point x="111" y="359" type="curve" smooth="yes"/>
      <point x="67" y="320"/>
      <point x="45" y="268"/>
      <point x="45" y="203" type="curve" smooth="yes"/>
      <point x="45" y="130"/>
      <point x="73" y="74"/>
      <point x="128" y="37" type="curve" smooth="yes"/>
      <point x="173" y="6"/>
      <point x="230" y="-10"/>
      <point x="298" y="-10" type="curve" smooth="yes"/>
      <point x="361" y="-10"/>
      <point x="413" y="4"/>
      <point x="454" y="33" type="curve" smooth="yes"/>
      <point x="497" y="62"/>
      <point x="518" y="100"/>
    </contour>
  </outline>
</glyph>
<glyph name="seven" format="2">
  <advance width="564"/>
  <unicode hex="0037"/>
  <outline>
    <contour>
      <point x="511" y="411" type="line"/>
      <point x="54" y="411" type="line"/>
      <point x="54" y="352" type="line"/>
      <point x="354" y="352" type="line"/>
      <point x="316" y="322"/>
      <point x="276" y="267"/>
      <point x="233" y="187" type="curve" smooth="yes"/>
      <point x="188" y="104"/>
      <point x="165" y="40"/>
      <point x="165" y="-5" type="curve"/>
      <point x="302" y="-5" type="line"/>
      <point x="301" y="-2"/>
      <point x="301" y="3"/>
      <point x="301" y="10" type="curve" smooth="yes"/>
      <point x="301" y="63"/>
      <point x="320" y="126"/>
      <point x="357" y="199" type="curve" smooth="yes"/>
      <point x="401" y="286"/>
      <point x="452" y="337"/>
      <point x="511" y="352" type="curve"/>
    </contour>
  </outline>
</glyph>
<glyph name="eight" format="2">
  <advance width="562"/>
  <unicode hex="0038"/>
  <outline>
    <contour>
      <point x="394" y="116" type="curve" smooth="yes"/>
      <point x="394" y="96"/>
      <point x="385" y="80"/>
      <point x="366" y="67" type="curve" smooth="yes"/>
      <point x="345" y="53"/>
      <point x="317" y="46"/>
      <point x="281" y="46" type="curve" smooth="yes"/>
      <point x="240" y="46"/>
      <point x="212" y="54"/>
      <point x="193" y="68" type="curve" smooth="yes"/>
      <point x="177" y="81"/>
      <point x="168" y="97"/>
      <point x="168" y="118" type="curve" smooth="yes"/>
      <point x="168" y="139"/>
      <point x="175" y="155"/>
      <point x="190" y="166" type="curve" smooth="yes"/>
      <point x="209" y="181"/>
      <point x="238" y="188"/>
      <point x="278" y="188" type="curve" smooth="yes"/>
      <point x="317" y="188"/>
      <point x="347" y="181"/>
      <point x="367" y="167" type="curve" smooth="yes"/>
      <point x="385" y="155"/>
      <point x="394" y="138"/>
    </contour>
    <contour>
      <point x="372" y="300" type="curve" smooth="yes"/>
      <point x="372" y="281"/>
      <point x="362" y="265"/>
      <point x="343" y="252" type="curve"/>
      <point x="326" y="243"/>
      <point x="305" y="238"/>
      <point x="279" y="238" type="curve" smooth="yes"/>
      <point x="249" y="238"/>
      <point x="225" y="242"/>
      <point x="206" y="252" type="curve" smooth="yes"/>
      <point x="187" y="262"/>
      <point x="177" y="278"/>
      <point x="177" y="297" type="curve" smooth="yes"/>
      <point x="177" y="318"/>
      <point x="183" y="334"/>
      <point x="196" y="345" type="curve" smooth="yes"/>
      <point x="212" y="359"/>
      <point x="239" y="366"/>
      <point x="276" y="366" type="curve" smooth="yes"/>
      <point x="308" y="366"/>
      <point x="332" y="360"/>
      <point x="349" y="349" type="curve" smooth="yes"/>
      <point x="364" y="338"/>
      <point x="372" y="321"/>
    </contour>
    <contour>
      <point x="514" y="132" type="curve" smooth="yes"/>
      <point x="514" y="155"/>
      <point x="506" y="176"/>
      <point x="491" y="193" type="curve" smooth="yes"/>
      <point x="476" y="209"/>
      <point x="455" y="220"/>
      <point x="429" y="227" type="curve"/>
      <point x="447" y="234"/>
      <point x="462" y="243"/>
      <point x="473" y="255" type="curve" smooth="yes"/>
      <point x="485" y="269"/>
      <point x="491" y="284"/>
      <point x="491" y="301" type="curve" smooth="yes"/>
      <point x="491" y="338"/>
      <point x="473" y="365"/>
      <point x="437" y="385" type="curve" smooth="yes"/>
      <point x="400" y="405"/>
      <point x="345" y="416"/>
      <point x="273" y="416" type="curve" smooth="yes"/>
      <point x="212" y="416"/>
      <point x="162" y="406"/>
      <point x="123" y="385" type="curve" smooth="yes"/>
      <point x="83" y="364"/>
      <point x="63" y="336"/>
      <point x="63" y="302" type="curve" smooth="yes"/>
      <point x="63" y="287"/>
      <point x="69" y="272"/>
      <point x="82" y="259" type="curve" smooth="yes"/>
      <point x="92" y="248"/>
      <point x="107" y="237"/>
      <point x="127" y="228" type="curve"/>
      <point x="104" y="219"/>
      <point x="85" y="207"/>
      <point x="70" y="191" type="curve" smooth="yes"/>
      <point x="55" y="174"/>
      <point x="48" y="154"/>
      <point x="48" y="132" type="curve" smooth="yes"/>
      <point x="48" y="87"/>
      <point x="68" y="52"/>
      <point x="109" y="27" type="curve" smooth="yes"/>
      <point x="149" y="2"/>
      <point x="203" y="-10"/>
      <point x="272" y="-10" type="curve" smooth="yes"/>
      <point x="343" y="-10"/>
      <point x="400" y="2"/>
      <point x="445" y="28" type="curve" smooth="yes"/>
      <point x="491" y="54"/>
      <point x="514" y="89"/>
    </contour>
  </outline>
</glyph>
<glyph name="nine" format="2">
  <advance width="562"/>
  <unicode hex="0039"/>
  <outline>
    <contour>
      <point x="171" y="265" type="curve" smooth="yes"/>
      <point x="171" y="296"/>
      <point x="181" y="319"/>
      <point x="202" y="335" type="curve" smooth="yes"/>
      <point x="220" y="350"/>
      <point x="242" y="357"/>
      <point x="269" y="357" type="curve" smooth="yes"/>
      <point x="304" y="357"/>
      <point x="330" y="350"/>
      <point x="348" y="336" type="curve" smooth="yes"/>
      <point x="366" y="323"/>
      <point x="375" y="302"/>
      <point x="375" y="275" type="curve" smooth="yes"/>
      <point x="375" y="240"/>
      <point x="363" y="215"/>
      <point x="340" y="199" type="curve" smooth="yes"/>
      <point x="323" y="187"/>
      <point x="300" y="181"/>
      <point x="273" y="181" type="curve" smooth="yes"/>
      <point x="248" y="181"/>
      <point x="226" y="186"/>
      <point x="208" y="197" type="curve" smooth="yes"/>
      <point x="183" y="212"/>
      <point x="171" y="235"/>
    </contour>
    <contour>
      <point x="50" y="258" type="curve" smooth="yes"/>
      <point x="50" y="215"/>
      <point x="72" y="182"/>
      <point x="116" y="159" type="curve" smooth="yes"/>
      <point x="151" y="140"/>
      <point x="195" y="130"/>
      <point x="246" y="130" type="curve" smooth="yes"/>
      <point x="276" y="130"/>
      <point x="305" y="134"/>
      <point x="333" y="143" type="curve" smooth="yes"/>
      <point x="362" y="152"/>
      <point x="385" y="165"/>
      <point x="400" y="181" type="curve"/>
      <point x="400" y="134"/>
      <point x="390" y="98"/>
      <point x="370" y="73" type="curve" smooth="yes"/>
      <point x="347" y="44"/>
      <point x="312" y="30"/>
      <point x="264" y="30" type="curve" smooth="yes"/>
      <point x="239" y="30"/>
      <point x="218" y="37"/>
      <point x="202" y="50" type="curve" smooth="yes"/>
      <point x="186" y="63"/>
      <point x="178" y="80"/>
      <point x="178" y="101" type="curve" smooth="yes"/>
      <point x="179" y="110" type="line"/>
      <point x="59" y="110" type="line"/>
      <point x="64" y="75"/>
      <point x="82" y="47"/>
      <point x="113" y="26" type="curve" smooth="yes"/>
      <point x="150" y="2"/>
      <point x="202" y="-10"/>
      <point x="269" y="-10" type="curve" smooth="yes"/>
      <point x="343" y="-10"/>
      <point x="402" y="8"/>
      <point x="446" y="46" type="curve" smooth="yes"/>
      <point x="490" y="84"/>
      <point x="512" y="137"/>
      <point x="512" y="203" type="curve" smooth="yes"/>
      <point x="512" y="276"/>
      <point x="484" y="331"/>
      <point x="429" y="369" type="curve" smooth="yes"/>
      <point x="384" y="400"/>
      <point x="327" y="416"/>
      <point x="259" y="416" type="curve" smooth="yes"/>
      <point x="197" y="416"/>
      <point x="147" y="402"/>
      <point x="108" y="374" type="curve" smooth="yes"/>
      <point x="69" y="345"/>
      <point x="50" y="307"/>
    </contour>
  </outline>
</glyph>
<glyph name="colon" format="2">
  <advance width="149"/>
  <unicode hex="003A"/>
  <note>
colon
</note>
  <outline>
    <contour>
      <point x="75" y="235" type="curve" smooth="yes"/>
      <point x="42" y="235"/>
      <point x="16" y="262"/>
      <point x="16" y="295" type="curve" smooth="yes"/>
      <point x="16" y="328"/>
      <point x="42" y="354"/>
      <point x="75" y="354" type="curve" smooth="yes"/>
      <point x="107" y="354"/>
      <point x="133" y="327"/>
      <point x="133" y="295" type="curve" smooth="yes"/>
      <point x="133" y="262"/>
      <point x="107" y="235"/>
    </contour>
    <contour>
      <point x="75" y="-5" type="curve" smooth="yes"/>
      <point x="42" y="-5"/>
      <point x="16" y="22"/>
      <point x="16" y="55" type="curve" smooth="yes"/>
      <point x="16" y="87"/>
      <point x="42" y="113"/>
      <point x="75" y="113" type="curve" smooth="yes"/>
      <point x="107" y="113"/>
      <point x="133" y="87"/>
      <point x="133" y="55" type="curve" smooth="yes"/>
      <point x="133" y="22"/>
      <point x="107" y="-5"/>
    </contour>
  </outline>
</glyph>
<glyph name="semicolon" format="2">
  <advance width="149"/>
  <unicode hex="003B"/>
  <note>
semicolon
</note>
  <outline>
    <contour>
      <point x="70" y="235" type="curve" smooth="yes"/>
      <point x="37" y="235"/>
      <point x="11" y="262"/>
      <point x="11" y="295" type="curve" smooth="yes"/>
      <point x="11" y="327"/>
      <point x="37" y="354"/>
      <point x="70" y="354" type="curve" smooth="yes"/>
      <point x="102" y="354"/>
      <point x="129" y="328"/>
      <point x="129" y="295" type="curve" smooth="yes"/>
      <point x="129" y="262"/>
      <point x="102" y="235"/>
    </contour>
    <contour>
      <point x="38" y="-5" type="curve" smooth="yes"/>
      <point x="38" y="1"/>
      <point x="35" y="11"/>
      <point x="30" y="25" type="curve" smooth="yes"/>
      <point x="25" y="39"/>
      <point x="22" y="52"/>
      <point x="22" y="64" type="curve" smooth="yes"/>
      <point x="22" y="88"/>
      <point x="45" y="113"/>
      <point x="75" y="113" type="curve" smooth="yes"/>
      <point x="105" y="113"/>
      <point x="127" y="89"/>
      <point x="127" y="54" type="curve" smooth="yes"/>
      <point x="127" y="-1"/>
      <point x="96" y="-46"/>
      <point x="35" y="-81" type="curve"/>
      <point x="15" y="-58" type="line"/>
      <point x="30" y="-42"/>
      <point x="38" y="-24"/>
    </contour>
  </outline>
</glyph>
<glyph name="less" format="2">
  <advance width="365"/>
  <unicode hex="003C"/>
  <note>
less
</note>
  <outline>
    <contour>
      <point x="121" y="200" type="line"/>
      <point x="310" y="123" type="line"/>
      <point x="310" y="45" type="line"/>
      <point x="56" y="155" type="line"/>
      <point x="56" y="245" type="line"/>
      <point x="310" y="355" type="line"/>
      <point x="310" y="275" type="line"/>
    </contour>
  </outline>
</glyph>
<glyph name="equal" format="2">
  <advance width="365"/>
  <unicode hex="003D"/>
  <note>
equal
</note>
  <outline>
    <contour>
      <point x="314" y="237" type="line"/>
      <point x="51" y="237" type="line"/>
      <point x="51" y="308" type="line"/>
      <point x="314" y="308" type="line"/>
    </contour>
    <contour>
      <point x="314" y="94" type="line"/>
      <point x="51" y="94" type="line"/>
      <point x="51" y="165" type="line"/>
      <point x="314" y="165" type="line"/>
    </contour>
  </outline>
</glyph>
<glyph name="greater" format="2">
  <advance width="365"/>
  <unicode hex="003E"/>
  <note>
greater
</note>
  <outline>
    <contour>
      <point x="310" y="155" type="line"/>
      <point x="56" y="45" type="line"/>
      <point x="56" y="123" type="line"/>
      <point x="245" y="200" type="line"/>
      <point x="56" y="275" type="line"/>
      <point x="56" y="355" type="line"/>
      <point x="310" y="245" type="line"/>
    </contour>
  </outline>
</glyph>
<glyph name="question" format="2">
  <advance width="327"/>
  <unicode hex="003F"/>
  <note>
question
</note>
  <outline>
    <contour>
      <point x="17" y="338" type="line"/>
      <point x="23" y="425"/>
      <point x="72" y="469"/>
      <point x="165" y="469" type="curve" smooth="yes"/>
      <point x="262" y="469"/>
      <point x="316" y="413"/>
      <point x="316" y="344" type="curve" smooth="yes"/>
      <point x="316" y="275"/>
      <point x="264" y="228"/>
      <point x="189" y="208" type="curve"/>
      <point x="182" y="142" type="line"/>
      <point x="113" y="142" type="line"/>
      <point x="107" y="208" type="line"/>
      <point x="184" y="244"/>
      <point x="210" y="290"/>
      <point x="210" y="354" type="curve" smooth="yes"/>
      <point x="210" y="417"/>
      <point x="196" y="425"/>
      <point x="165" y="425" type="curve" smooth="yes"/>
      <point x="132" y="425"/>
      <point x="114" y="392"/>
      <point x="113" y="326" type="curve"/>
    </contour>
    <contour>
      <point x="150" y="-5" type="curve" smooth="yes"/>
      <point x="117" y="-5"/>
      <point x="91" y="22"/>
      <point x="91" y="55" type="curve" smooth="yes"/>
      <point x="91" y="87"/>
      <point x="117" y="113"/>
      <point x="150" y="113" type="curve" smooth="yes"/>
      <point x="182" y="113"/>
      <point x="209" y="87"/>
      <point x="209" y="55" type="curve" smooth="yes"/>
      <point x="209" y="22"/>
      <point x="182" y="-5"/>
    </contour>
  </outline>
</glyph>
<glyph name="at" format="2">
  <advance width="679"/>
  <unicode hex="0040"/>
  <note>
at
</note>
  <outline>
    <contour>
      <point x="40" y="199" type="curve" smooth="yes"/>
      <point x="40" y="360"/>
      <point x="140" y="467"/>
      <point x="335" y="467" type="curve" smooth="yes"/>
      <point x="530" y="467"/>
      <point x="639" y="386"/>
      <point x="639" y="241" type="curve" smooth="yes"/>
      <point x="639" y="152"/>
      <point x="592" y="79"/>
      <point x="493" y="79" type="curve" smooth="yes"/>
      <point x="397" y="79" type="line"/>
      <point x="378" y="98" type="line"/>
      <point x="361" y="81"/>
      <point x="337" y="73"/>
      <point x="307" y="73" type="curve" smooth="yes"/>
      <point x="232" y="73"/>
      <point x="194" y="120"/>
      <point x="194" y="215" type="curve" smooth="yes"/>
      <point x="194" y="309"/>
      <point x="239" y="356"/>
      <point x="328" y="356" type="curve" smooth="yes"/>
      <point x="358" y="356"/>
      <point x="385" y="350"/>
      <point x="410" y="339" type="curve"/>
      <point x="426" y="356" type="line"/>
      <point x="470" y="356" type="line"/>
      <point x="470" y="123" type="line"/>
      <point x="482" y="123" type="line" smooth="yes"/>
      <point x="521" y="123"/>
      <point x="544" y="172"/>
      <point x="544" y="241" type="curve" smooth="yes"/>
      <point x="544" y="350"/>
      <point x="479" y="432"/>
      <point x="349" y="432" type="curve" smooth="yes"/>
      <point x="219" y="432"/>
      <point x="143" y="352"/>
      <point x="143" y="199" type="curve" smooth="yes"/>
      <point x="143" y="47"/>
      <point x="211" y="-29"/>
      <point x="348" y="-29" type="curve" smooth="yes"/>
      <point x="462" y="-29" type="line"/>
      <point x="462" y="-64" type="line"/>
      <point x="348" y="-64" type="line" smooth="yes"/>
      <point x="143" y="-64"/>
      <point x="40" y="24"/>
    </contour>
    <contour>
      <point x="369" y="314" type="line"/>
      <point x="366" y="313"/>
      <point x="360" y="312"/>
      <point x="350" y="312" type="curve" smooth="yes"/>
      <point x="313" y="312"/>
      <point x="294" y="279"/>
      <point x="294" y="214" type="curve" smooth="yes"/>
      <point x="294" y="149"/>
      <point x="311" y="116"/>
      <point x="345" y="116" type="curve" smooth="yes"/>
      <point x="356" y="116"/>
      <point x="364" y="117"/>
      <point x="369" y="120" type="curve"/>
    </contour>
  </outline>
</glyph>
<glyph name="A" format="2">
  <advance width="421"/>
  <unicode hex="0041"/>
  <note>
A
</note>
  <outline>
    <contour>
      <point x="106" y="127" type="line"/>
      <point x="68" y="0" type="line"/>
      <point x="5" y="0" type="line"/>
      <point x="145" y="460" type="line"/>
      <point x="276" y="460" type="line"/>
      <point x="418" y="0" type="line"/>
      <point x="309" y="0" type="line"/>
      <point x="271" y="127" type="line"/>
    </contour>
    <contour>
      <point x="189" y="404" type="line"/>
      <point x="122" y="181" type="line"/>
      <point x="255" y="181" type="line"/>
    </contour>
  </outline>
</glyph>
<glyph name="B" format="2">
  <advance width="401"/>
  <unicode hex="0042"/>
  <note>
B
</note>
  <outline>
    <contour>
      <point x="369" y="342" type="curve" smooth="yes"/>
      <point x="369" y="289"/>
      <point x="347" y="254"/>
      <point x="302" y="237" type="curve"/>
      <point x="358" y="218"/>
      <point x="386" y="180"/>
      <point x="386" y="123" type="curve" smooth="yes"/>
      <point x="386" y="55"/>
      <point x="344" y="0"/>
      <point x="232" y="0" type="curve" smooth="yes"/>
      <point x="52" y="0" type="line"/>
      <point x="52" y="460" type="line"/>
      <point x="214" y="460" type="line" smooth="yes"/>
      <point x="329" y="460"/>
      <point x="369" y="403"/>
    </contour>
    <contour>
      <point x="203" y="255" type="line" smooth="yes"/>
      <point x="239" y="255"/>
      <point x="257" y="282"/>
      <point x="257" y="337" type="curve" smooth="yes"/>
      <point x="257" y="392"/>
      <point x="239" y="419"/>
      <point x="203" y="419" type="curve" smooth="yes"/>
      <point x="165" y="419" type="line"/>
      <point x="165" y="255" type="line"/>
    </contour>
    <contour>
      <point x="217" y="41" type="line" smooth="yes"/>
      <point x="255" y="41"/>
      <point x="274" y="68"/>
      <point x="274" y="123" type="curve" smooth="yes"/>
      <point x="274" y="172"/>
      <point x="252" y="215"/>
      <point x="217" y="215" type="curve" smooth="yes"/>
      <point x="165" y="215" type="line"/>
      <point x="165" y="41" type="line"/>
    </contour>
  </outline>
</glyph>
<glyph name="D" format="2">
  <advance width="440"/>
  <unicode hex="0044"/>
  <note>
D
</note>
  <outline>
    <contour>
      <point x="218" y="460" type="line" smooth="yes"/>
      <point x="278" y="460"/>
      <point x="323" y="445"/>
      <point x="354" y="416" type="curve" smooth="yes"/>
      <point x="391" y="381"/>
      <point x="409" y="319"/>
      <point x="409" y="230" type="curve" smooth="yes"/>
      <point x="409" y="83"/>
      <point x="365" y="0"/>
      <point x="218" y="0" type="curve" smooth="yes"/>
      <point x="52" y="0" type="line"/>
      <point x="52" y="460" type="line"/>
    </contour>
    <contour>
      <point x="200" y="41" type="line" smooth="yes"/>
      <point x="251" y="41"/>
      <point x="279" y="83"/>
      <point x="288" y="135" type="curve" smooth="yes"/>
      <point x="293" y="160"/>
      <point x="295" y="192"/>
      <point x="295" y="230" type="curve" smooth="yes"/>
      <point x="295" y="306"/>
      <point x="288" y="355"/>
      <point x="260" y="392" type="curve" smooth="yes"/>
      <point x="245" y="410"/>
      <point x="225" y="419"/>
      <point x="200" y="419" type="curve" smooth="yes"/>
      <point x="165" y="419" type="line"/>
      <point x="165" y="41" type="line"/>
    </contour>
  </outline>
</glyph>
<glyph name="E" format="2">
  <advance width="353"/>
  <unicode hex="0045"/>
  <note>
E
</note>
  <outline>
    <contour>
      <point x="338" y="0" type="line"/>
      <point x="52" y="0" type="line"/>
      <point x="52" y="460" type="line"/>
      <point x="326" y="460" type="line"/>
      <point x="326" y="406" type="line"/>
      <point x="165" y="406" type="line"/>
      <point x="165" y="261" type="line"/>
      <point x="308" y="261" type="line"/>
      <point x="308" y="207" type="line"/>
      <point x="165" y="207" type="line"/>
      <point x="165" y="54" type="line"/>
      <point x="338" y="54" type="line"/>
    </contour>
  </outline>
</glyph>
<glyph name="F" format="2">
  <advance width="320"/>
  <unicode hex="0046"/>
  <note>
F
</note>
  <outline>
    <contour>
      <point x="165" y="265" type="line"/>
      <point x="287" y="265" type="line"/>
      <point x="287" y="203" type="line"/>
      <point x="165" y="203" type="line"/>
      <point x="165" y="0" type="line"/>
      <point x="52" y="0" type="line"/>
      <point x="52" y="460" type="line"/>
      <point x="313" y="460" type="line"/>
      <point x="313" y="397" type="line"/>
      <point x="165" y="397" type="line"/>
    </contour>
  </outline>
</glyph>
<glyph name="G" format="2">
  <advance width="439"/>
  <unicode hex="0047"/>
  <note>
G
</note>
  <outline>
    <contour>
      <point x="393" y="0" type="line"/>
      <point x="339" y="0" type="line"/>
      <point x="319" y="44" type="line"/>
      <point x="292" y="9"/>
      <point x="256" y="-9"/>
      <point x="212" y="-9" type="curve" smooth="yes"/>
      <point x="76" y="-9"/>
      <point x="25" y="72"/>
      <point x="25" y="233" type="curve" smooth="yes"/>
      <point x="25" y="393"/>
      <point x="74" y="469"/>
      <point x="221" y="469" type="curve" smooth="yes"/>
      <point x="333" y="469"/>
      <point x="373" y="424"/>
      <point x="382" y="335" type="curve"/>
      <point x="292" y="321" type="line"/>
      <point x="287" y="389"/>
      <point x="271" y="422"/>
      <point x="216" y="422" type="curve" smooth="yes"/>
      <point x="188" y="422"/>
      <point x="168" y="408"/>
      <point x="156" y="380" type="curve" smooth="yes"/>
      <point x="144" y="351"/>
      <point x="138" y="303"/>
      <point x="138" y="235" type="curve" smooth="yes"/>
      <point x="138" y="166"/>
      <point x="144" y="116"/>
      <point x="155" y="85" type="curve" smooth="yes"/>
      <point x="166" y="54"/>
      <point x="185" y="38"/>
      <point x="213" y="38" type="curve" smooth="yes"/>
      <point x="269" y="38"/>
      <point x="296" y="72"/>
      <point x="297" y="171" type="curve" smooth="yes"/>
      <point x="297" y="185" type="line"/>
      <point x="228" y="185" type="line"/>
      <point x="228" y="239" type="line"/>
      <point x="393" y="239" type="line"/>
    </contour>
  </outline>
</glyph>
<glyph name="H" format="2">
  <advance width="463"/>
  <unicode hex="0048"/>
  <note>
H
</note>
  <outline>
    <contour>
      <point x="410" y="0" type="line"/>
      <point x="296" y="0" type="line"/>
      <point x="296" y="203" type="line"/>
      <point x="165" y="203" type="line"/>
      <point x="165" y="0" type="line"/>
      <point x="52" y="0" type="line"/>
      <point x="52" y="460" type="line"/>
      <point x="165" y="460" type="line"/>
      <point x="165" y="257" type="line"/>
      <point x="296" y="257" type="line"/>
      <point x="296" y="460" type="line"/>
      <point x="410" y="460" type="line"/>
    </contour>
  </outline>
</glyph>
<glyph name="J" format="2">
  <advance width="316"/>
  <unicode hex="004A"/>
  <note>
J
</note>
  <outline>
    <contour>
      <point x="273" y="115" type="line" smooth="yes"/>
      <point x="273" y="80"/>
      <point x="265" y="52"/>
      <point x="250" y="30" type="curve" smooth="yes"/>
      <point x="213" y="-21"/>
      <point x="70" y="-20"/>
      <point x="26" y="17" type="curve" smooth="yes"/>
      <point x="5" y="34"/>
      <point x="-5" y="75"/>
      <point x="-5" y="140" type="curve"/>
      <point x="94" y="140" type="line"/>
      <point x="94" y="72"/>
      <point x="105" y="38"/>
      <point x="127" y="38" type="curve" smooth="yes"/>
      <point x="149" y="38"/>
      <point x="160" y="64"/>
      <point x="160" y="115" type="curve" smooth="yes"/>
      <point x="160" y="460" type="line"/>
      <point x="273" y="460" type="line"/>
    </contour>
  </outline>
</glyph>
<glyph name="K" format="2">
  <advance width="404"/>
  <unicode hex="004B"/>
  <note>
K
</note>
  <outline>
    <contour>
      <point x="165" y="207" type="line"/>
      <point x="165" y="0" type="line"/>
      <point x="52" y="0" type="line"/>
      <point x="52" y="460" type="line"/>
      <point x="165" y="460" type="line"/>
      <point x="165" y="262" type="line"/>
      <point x="212" y="262" type="line"/>
      <point x="336" y="460" type="line"/>
      <point x="402" y="460" type="line"/>
      <point x="265" y="245" type="line"/>
      <point x="417" y="0" type="line"/>
      <point x="298" y="0" type="line"/>
      <point x="169" y="207" type="line"/>
    </contour>
  </outline>
</glyph>
<glyph name="L" format="2">
  <advance width="304"/>
  <unicode hex="004C"/>
  <note>
L
</note>
  <outline>
    <contour>
      <point x="309" y="0" type="line"/>
      <point x="52" y="0" type="line"/>
      <point x="52" y="460" type="line"/>
      <point x="165" y="460" type="line"/>
      <point x="165" y="54" type="line"/>
      <point x="309" y="54" type="line"/>
    </contour>
  </outline>
</glyph>
<glyph name="M" format="2">
  <advance width="567"/>
  <unicode hex="004D"/>
  <note>
M
</note>
  <outline>
    <contour>
      <point x="406" y="369" type="line"/>
      <point x="311" y="0" type="line"/>
      <point x="213" y="0" type="line"/>
      <point x="117" y="383" type="line"/>
      <point x="111" y="0" type="line"/>
      <point x="42" y="0" type="line"/>
      <point x="55" y="460" type="line"/>
      <point x="198" y="460" type="line"/>
      <point x="278" y="132" type="line"/>
      <point x="361" y="460" type="line"/>
      <point x="513" y="460" type="line"/>
      <point x="526" y="0" type="line"/>
      <point x="413" y="0" type="line"/>
    </contour>
  </outline>
</glyph>
<glyph name="N" format="2">
  <advance width="480"/>
  <unicode hex="004E"/>
  <note>
N
</note>
  <outline>
    <contour>
      <point x="428" y="0" type="line"/>
      <point x="310" y="0" type="line"/>
      <point x="117" y="342" type="line"/>
      <point x="117" y="0" type="line"/>
      <point x="50" y="0" type="line"/>
      <point x="50" y="460" type="line"/>
      <point x="168" y="460" type="line"/>
      <point x="361" y="118" type="line"/>
      <point x="361" y="460" type="line"/>
      <point x="428" y="460" type="line"/>
    </contour>
  </outline>
</glyph>
<glyph name="P" format="2">
  <advance width="381"/>
  <unicode hex="0050"/>
  <note>
P
</note>
  <outline>
    <contour>
      <point x="232" y="460" type="line" smooth="yes"/>
      <point x="340" y="460"/>
      <point x="383" y="397"/>
      <point x="383" y="309" type="curve" smooth="yes"/>
      <point x="383" y="220"/>
      <point x="340" y="157"/>
      <point x="232" y="157" type="curve" smooth="yes"/>
      <point x="165" y="157" type="line"/>
      <point x="165" y="0" type="line"/>
      <point x="52" y="0" type="line"/>
      <point x="52" y="460" type="line"/>
    </contour>
    <contour>
      <point x="211" y="198" type="line" smooth="yes"/>
      <point x="251" y="198"/>
      <point x="271" y="235"/>
      <point x="271" y="309" type="curve" smooth="yes"/>
      <point x="271" y="382"/>
      <point x="251" y="419"/>
      <point x="211" y="419" type="curve" smooth="yes"/>
      <point x="165" y="419" type="line"/>
      <point x="165" y="198" type="line"/>
    </contour>
  </outline>
</glyph>
<glyph name="Q" format="2">
  <advance width="433"/>
  <unicode hex="0051"/>
  <note>
Q
</note>
  <outline>
    <contour>
      <point x="195" y="-8" type="line"/>
      <point x="67" y="3"/>
      <point x="25" y="88"/>
      <point x="25" y="229" type="curve" smooth="yes"/>
      <point x="25" y="370"/>
      <point x="67" y="469"/>
      <point x="217" y="469" type="curve" smooth="yes"/>
      <point x="367" y="469"/>
      <point x="414" y="379"/>
      <point x="414" y="230" type="curve" smooth="yes"/>
      <point x="414" y="106"/>
      <point x="377" y="31"/>
      <point x="304" y="5" type="curve"/>
      <point x="408" y="-33" type="line"/>
      <point x="370" y="-104" type="line"/>
    </contour>
    <contour>
      <point x="220" y="424" type="curve" smooth="yes"/>
      <point x="177" y="424"/>
      <point x="152" y="382"/>
      <point x="144" y="329" type="curve" smooth="yes"/>
      <point x="140" y="302"/>
      <point x="138" y="269"/>
      <point x="138" y="230" type="curve" smooth="yes"/>
      <point x="138" y="151"/>
      <point x="144" y="100"/>
      <point x="169" y="64" type="curve" smooth="yes"/>
      <point x="182" y="45"/>
      <point x="199" y="36"/>
      <point x="220" y="36" type="curve" smooth="yes"/>
      <point x="275" y="36"/>
      <point x="302" y="101"/>
      <point x="302" y="230" type="curve" smooth="yes"/>
      <point x="302" y="359"/>
      <point x="275" y="424"/>
    </contour>
  </outline>
</glyph>
<glyph name="S" format="2">
  <advance width="391"/>
  <unicode hex="0053"/>
  <note>
S
</note>
  <outline>
    <contour>
      <point x="31" y="328" type="curve" smooth="yes"/>
      <point x="31" y="422"/>
      <point x="86" y="469"/>
      <point x="197" y="469" type="curve" smooth="yes"/>
      <point x="301" y="469"/>
      <point x="355" y="423"/>
      <point x="367" y="326" type="curve"/>
      <point x="277" y="313" type="line"/>
      <point x="274" y="384"/>
      <point x="245" y="424"/>
      <point x="197" y="424" type="curve" smooth="yes"/>
      <point x="149" y="424"/>
      <point x="121" y="397"/>
      <point x="121" y="355" type="curve" smooth="yes"/>
      <point x="121" y="313"/>
      <point x="139" y="299"/>
      <point x="211" y="282" type="curve" smooth="yes"/>
      <point x="249" y="272" type="line" smooth="yes"/>
      <point x="336" y="252"/>
      <point x="370" y="214"/>
      <point x="370" y="128" type="curve" smooth="yes"/>
      <point x="370" y="42"/>
      <point x="310" y="-9"/>
      <point x="199" y="-9" type="curve" smooth="yes"/>
      <point x="87" y="-9"/>
      <point x="32" y="37"/>
      <point x="21" y="134" type="curve"/>
      <point x="111" y="148" type="line"/>
      <point x="116" y="73"/>
      <point x="145" y="36"/>
      <point x="198" y="36" type="curve" smooth="yes"/>
      <point x="249" y="36"/>
      <point x="279" y="63"/>
      <point x="279" y="106" type="curve" smooth="yes"/>
      <point x="279" y="149"/>
      <point x="260" y="161"/>
      <point x="184" y="178" type="curve" smooth="yes"/>
      <point x="151" y="185" type="line" smooth="yes"/>
      <point x="66" y="204"/>
      <point x="31" y="244"/>
    </contour>
  </outline>
</glyph>
<glyph name="T" format="2">
  <advance width="336"/>
  <unicode hex="0054"/>
  <note>
T
</note>
  <outline>
    <contour>
      <point x="343" y="406" type="line"/>
      <point x="225" y="406" type="line"/>
      <point x="225" y="0" type="line"/>
      <point x="113" y="0" type="line"/>
      <point x="113" y="406" type="line"/>
      <point x="-7" y="406" type="line"/>
      <point x="-7" y="460" type="line"/>
      <point x="343" y="460" type="line"/>
    </contour>
  </outline>
</glyph>
<glyph name="U" format="2">
  <advance width="446"/>
  <unicode hex="0055"/>
  <note>
U
</note>
  <outline>
    <contour>
      <point x="403" y="152" type="line" smooth="yes"/>
      <point x="403" y="91"/>
      <point x="383" y="48"/>
      <point x="344" y="23" type="curve" smooth="yes"/>
      <point x="310" y="2"/>
      <point x="272" y="-9"/>
      <point x="230" y="-9" type="curve" smooth="yes"/>
      <point x="105" y="-9"/>
      <point x="43" y="45"/>
      <point x="43" y="152" type="curve" smooth="yes"/>
      <point x="43" y="460" type="line"/>
      <point x="156" y="460" type="line"/>
      <point x="156" y="152" type="line" smooth="yes"/>
      <point x="156" y="81"/>
      <point x="183" y="46"/>
      <point x="237" y="46" type="curve" smooth="yes"/>
      <point x="296" y="46"/>
      <point x="337" y="79"/>
      <point x="337" y="152" type="curve" smooth="yes"/>
      <point x="337" y="460" type="line"/>
      <point x="403" y="460" type="line"/>
    </contour>
  </outline>
</glyph>
<glyph name="V" format="2">
  <advance width="405"/>
  <unicode hex="0056"/>
  <note>
V
</note>
  <outline>
    <contour>
      <point x="268" y="0" type="line"/>
      <point x="138" y="0" type="line"/>
      <point x="-2" y="460" type="line"/>
      <point x="111" y="460" type="line"/>
      <point x="226" y="56" type="line"/>
      <point x="340" y="460" type="line"/>
      <point x="407" y="460" type="line"/>
    </contour>
  </outline>
</glyph>
<glyph name="W" format="2">
  <advance width="591"/>
  <unicode hex="0057"/>
  <note>
W
</note>
  <outline>
    <contour>
      <point x="486" y="0" type="line"/>
      <point x="385" y="0" type="line"/>
      <point x="301" y="335" type="line"/>
      <point x="212" y="0" type="line"/>
      <point x="105" y="0" type="line"/>
      <point x="11" y="460" type="line"/>
      <point x="122" y="460" type="line"/>
      <point x="186" y="135" type="line"/>
      <point x="269" y="460" type="line"/>
      <point x="372" y="460" type="line"/>
      <point x="452" y="137" type="line"/>
      <point x="514" y="460" type="line"/>
      <point x="581" y="460" type="line"/>
    </contour>
  </outline>
</glyph>
<glyph name="X" format="2">
  <advance width="388"/>
  <unicode hex="0058"/>
  <note>
X
</note>
  <outline>
    <contour>
      <point x="176" y="168" type="line"/>
      <point x="59" y="0" type="line"/>
      <point x="-7" y="0" type="line"/>
      <point x="143" y="218" type="line"/>
      <point x="-16" y="460" type="line"/>
      <point x="113" y="460" type="line"/>
      <point x="221" y="293" type="line"/>
      <point x="340" y="460" type="line"/>
      <point x="407" y="460" type="line"/>
      <point x="255" y="244" type="line"/>
      <point x="415" y="0" type="line"/>
      <point x="286" y="0" type="line"/>
    </contour>
  </outline>
</glyph>
<glyph name="Y" format="2">
  <advance width="375"/>
  <unicode hex="0059"/>
  <note>
Y
</note>
  <outline>
    <contour>
      <point x="244" y="0" type="line"/>
      <point x="131" y="0" type="line"/>
      <point x="131" y="158" type="line"/>
      <point x="-11" y="460" type="line"/>
      <point x="102" y="460" type="line"/>
      <point x="207" y="221" type="line"/>
      <point x="320" y="460" type="line"/>
      <point x="385" y="460" type="line"/>
      <point x="244" y="159" type="line"/>
    </contour>
  </outline>
</glyph>
<glyph name="Z" format="2">
  <advance width="361"/>
  <unicode hex="005A"/>
  <note>
Z
</note>
  <outline>
    <contour>
      <point x="350" y="0" type="line"/>
      <point x="11" y="0" type="line"/>
      <point x="11" y="71" type="line"/>
      <point x="230" y="406" type="line"/>
      <point x="23" y="406" type="line"/>
      <point x="23" y="460" type="line"/>
      <point x="344" y="460" type="line"/>
      <point x="344" y="389" type="line"/>
      <point x="125" y="54" type="line"/>
      <point x="350" y="54" type="line"/>
    </contour>
  </outline>
</glyph>
<glyph name="bracketleft" format="2">
  <advance width="225"/>
  <unicode hex="005B"/>
  <note>
bracketleft
</note>
  <outline>
    <contour>
      <point x="156" y="22" type="line"/>
      <point x="218" y="22" type="line"/>
      <point x="218" y="-23" type="line"/>
      <point x="42" y="-23" type="line"/>
      <point x="42" y="482" type="line"/>
      <point x="218" y="482" type="line"/>
      <point x="218" y="437" type="line"/>
      <point x="156" y="437" type="line"/>
    </contour>
  </outline>
</glyph>
<glyph name="backslash" format="2">
  <advance width="270"/>
  <unicode hex="005C"/>
  <note>
backslash
</note>
  <outline>
    <contour>
      <point x="5" y="489" type="line"/>
      <point x="117" y="489" type="line"/>
      <point x="266" y="-67" type="line"/>
      <point x="154" y="-67" type="line"/>
    </contour>
  </outline>
</glyph>
<glyph name="bracketright" format="2">
  <advance width="225"/>
  <unicode hex="005D"/>
  <note>
bracketright
</note>
  <outline>
    <contour>
      <point x="183" y="-23" type="line"/>
      <point x="7" y="-23" type="line"/>
      <point x="7" y="22" type="line"/>
      <point x="69" y="22" type="line"/>
      <point x="69" y="437" type="line"/>
      <point x="7" y="437" type="line"/>
      <point x="7" y="482" type="line"/>
      <point x="183" y="482" type="line"/>
    </contour>
  </outline>
</glyph>
<glyph name="asciicircum" format="2">
  <advance width="365"/>
  <unicode hex="005E"/>
  <note>
asciicircum
</note>
  <outline>
    <contour>
      <point x="183" y="334" type="line"/>
      <point x="121" y="199" type="line"/>
      <point x="41" y="199" type="line"/>
      <point x="138" y="390" type="line"/>
      <point x="228" y="390" type="line"/>
      <point x="325" y="199" type="line"/>
      <point x="247" y="199" type="line"/>
    </contour>
  </outline>
</glyph>
<glyph name="underscore" format="2">
  <advance width="348"/>
  <unicode hex="005F"/>
  <note>
underscore
</note>
  <outline>
    <contour>
      <point x="313" y="-72" type="line"/>
      <point x="36" y="-72" type="line"/>
      <point x="36" y="0" type="line"/>
      <point x="313" y="0" type="line"/>
    </contour>
  </outline>
</glyph>
<glyph name="b" format="2">
  <advance width="413"/>
  <unicode hex="0062"/>
  <note>
b
</note>
  <outline>
    <contour>
      <point x="164" y="356" type="line"/>
      <point x="187" y="365"/>
      <point x="209" y="369"/>
      <point x="232" y="369" type="curve" smooth="yes"/>
      <point x="333" y="369"/>
      <point x="384" y="306"/>
      <point x="384" y="180" type="curve" smooth="yes"/>
      <point x="384" y="54"/>
      <point x="333" y="-9"/>
      <point x="232" y="-9" type="curve" smooth="yes"/>
      <point x="195" y="-9"/>
      <point x="162" y="3"/>
      <point x="133" y="26" type="curve"/>
      <point x="104" y="0" type="line"/>
      <point x="52" y="0" type="line"/>
      <point x="52" y="471" type="line"/>
      <point x="164" y="485" type="line"/>
    </contour>
    <contour>
      <point x="164" y="62" type="line"/>
      <point x="176" y="57"/>
      <point x="187" y="54"/>
      <point x="198" y="54" type="curve" smooth="yes"/>
      <point x="248" y="54"/>
      <point x="273" y="96"/>
      <point x="273" y="180" type="curve" smooth="yes"/>
      <point x="273" y="271"/>
      <point x="252" y="314"/>
      <point x="199" y="314" type="curve" smooth="yes"/>
      <point x="189" y="314"/>
      <point x="177" y="312"/>
      <point x="164" y="309" type="curve"/>
    </contour>
  </outline>
</glyph>
<glyph name="c" format="2">
  <advance width="370"/>
  <unicode hex="0063"/>
  <note>
c
</note>
  <outline>
    <contour>
      <point x="196" y="314" type="curve" smooth="yes"/>
      <point x="151" y="314"/>
      <point x="141" y="273"/>
      <point x="141" y="181" type="curve" smooth="yes"/>
      <point x="141" y="88"/>
      <point x="152" y="46"/>
      <point x="196" y="46" type="curve" smooth="yes"/>
      <point x="229" y="46"/>
      <point x="246" y="76"/>
      <point x="247" y="136" type="curve"/>
      <point x="340" y="132" type="line"/>
      <point x="335" y="37"/>
      <point x="295" y="-9"/>
      <point x="190" y="-9" type="curve" smooth="yes"/>
      <point x="157" y="-9"/>
      <point x="130" y="-4"/>
      <point x="108" y="6" type="curve" smooth="yes"/>
      <point x="56" y="29"/>
      <point x="30" y="87"/>
      <point x="30" y="180" type="curve" smooth="yes"/>
      <point x="30" y="236"/>
      <point x="39" y="280"/>
      <point x="58" y="312" type="curve" smooth="yes"/>
      <point x="81" y="350"/>
      <point x="125" y="369"/>
      <point x="190" y="369" type="curve" smooth="yes"/>
      <point x="294" y="369"/>
      <point x="334" y="326"/>
      <point x="339" y="235" type="curve"/>
      <point x="247" y="225" type="line"/>
      <point x="246" y="284"/>
      <point x="229" y="314"/>
    </contour>
  </outline>
</glyph>
<glyph name="d" format="2">
  <advance width="413"/>
  <unicode hex="0064"/>
  <note>
d
</note>
  <outline>
    <contour>
      <point x="361" y="0" type="line"/>
      <point x="285" y="0" type="line"/>
      <point x="261" y="34" type="line"/>
      <point x="232" y="5"/>
      <point x="200" y="-9"/>
      <point x="165" y="-9" type="curve" smooth="yes"/>
      <point x="75" y="-9"/>
      <point x="30" y="51"/>
      <point x="30" y="172" type="curve" smooth="yes"/>
      <point x="30" y="303"/>
      <point x="80" y="369"/>
      <point x="181" y="369" type="curve" smooth="yes"/>
      <point x="206" y="369"/>
      <point x="228" y="364"/>
      <point x="249" y="353" type="curve"/>
      <point x="249" y="471" type="line"/>
      <point x="361" y="485" type="line"/>
    </contour>
    <contour>
      <point x="197" y="46" type="curve" smooth="yes"/>
      <point x="218" y="46"/>
      <point x="235" y="54"/>
      <point x="249" y="71" type="curve"/>
      <point x="249" y="298" type="line"/>
      <point x="238" y="303"/>
      <point x="227" y="306"/>
      <point x="215" y="306" type="curve" smooth="yes"/>
      <point x="166" y="306"/>
      <point x="141" y="263"/>
      <point x="141" y="176" type="curve" smooth="yes"/>
      <point x="141" y="89"/>
      <point x="160" y="46"/>
    </contour>
  </outline>
</glyph>
<glyph name="f" format="2">
  <advance width="229"/>
  <unicode hex="0066"/>
  <note>
f
</note>
  <outline>
    <contour>
      <point x="57" y="364" type="line" smooth="yes"/>
      <point x="57" y="451"/>
      <point x="103" y="495"/>
      <point x="195" y="495" type="curve" smooth="yes"/>
      <point x="226" y="495"/>
      <point x="259" y="487"/>
      <point x="292" y="472" type="curve"/>
      <point x="259" y="392" type="line"/>
      <point x="244" y="416"/>
      <point x="226" y="428"/>
      <point x="205" y="428" type="curve" smooth="yes"/>
      <point x="181" y="428"/>
      <point x="168" y="411"/>
      <point x="168" y="388" type="curve" smooth="yes"/>
      <point x="168" y="360" type="line"/>
      <point x="236" y="360" type="line"/>
      <point x="236" y="303" type="line"/>
      <point x="168" y="303" type="line"/>
      <point x="168" y="0" type="line"/>
      <point x="57" y="0" type="line"/>
      <point x="57" y="303" type="line"/>
      <point x="3" y="303" type="line"/>
      <point x="3" y="360" type="line"/>
      <point x="57" y="360" type="line"/>
    </contour>
  </outline>
</glyph>
<glyph name="g" format="2">
  <advance width="397"/>
  <unicode hex="0067"/>
  <note>
g
</note>
  <outline>
    <contour>
      <point x="328" y="317" type="line"/>
      <point x="355" y="279"/>
      <point x="365" y="198"/>
      <point x="316" y="143" type="curve" smooth="yes"/>
      <point x="293" y="117"/>
      <point x="254" y="104"/>
      <point x="197" y="104" type="curve" smooth="yes"/>
      <point x="170" y="104"/>
      <point x="148" y="107"/>
      <point x="129" y="113" type="curve"/>
      <point x="109" y="94" type="line" smooth="yes"/>
      <point x="99" y="86"/>
      <point x="94" y="78"/>
      <point x="94" y="71" type="curve" smooth="yes"/>
      <point x="94" y="61"/>
      <point x="101" y="56"/>
      <point x="115" y="56" type="curve" smooth="yes"/>
      <point x="251" y="56" type="line" smooth="yes"/>
      <point x="326" y="56"/>
      <point x="371" y="14"/>
      <point x="371" y="-46" type="curve" smooth="yes"/>
      <point x="371" y="-117"/>
      <point x="310" y="-153"/>
      <point x="189" y="-153" type="curve" smooth="yes"/>
      <point x="78" y="-153"/>
      <point x="23" y="-122"/>
      <point x="23" y="-61" type="curve" smooth="yes"/>
      <point x="23" y="-34"/>
      <point x="47" y="-5"/>
      <point x="75" y="3" type="curve"/>
      <point x="45" y="10"/>
      <point x="30" y="30"/>
      <point x="30" y="61" type="curve" smooth="yes"/>
      <point x="30" y="84"/>
      <point x="40" y="105"/>
      <point x="60" y="124" type="curve" smooth="yes"/>
      <point x="80" y="143" type="line"/>
      <point x="37" y="190"/>
      <point x="37" y="279"/>
      <point x="82" y="331" type="curve" smooth="yes"/>
      <point x="104" y="356"/>
      <point x="142" y="369"/>
      <point x="197" y="369" type="curve" smooth="yes"/>
      <point x="221" y="369"/>
      <point x="244" y="366"/>
      <point x="265" y="360" type="curve"/>
      <point x="377" y="360" type="line"/>
      <point x="377" y="317" type="line"/>
    </contour>
    <contour>
      <point x="154" y="237" type="curve" smooth="yes"/>
      <point x="154" y="181"/>
      <point x="163" y="158"/>
      <point x="198" y="158" type="curve" smooth="yes"/>
      <point x="233" y="158"/>
      <point x="244" y="180"/>
      <point x="244" y="237" type="curve" smooth="yes"/>
      <point x="244" y="293"/>
      <point x="233" y="315"/>
      <point x="198" y="315" type="curve" smooth="yes"/>
      <point x="163" y="315"/>
      <point x="154" y="293"/>
    </contour>
    <contour>
      <point x="146" y="0" type="line"/>
      <point x="128" y="-17"/>
      <point x="119" y="-35"/>
      <point x="119" y="-56" type="curve" smooth="yes"/>
      <point x="119" y="-83"/>
      <point x="142" y="-97"/>
      <point x="189" y="-97" type="curve" smooth="yes"/>
      <point x="246" y="-97"/>
      <point x="275" y="-81"/>
      <point x="275" y="-50" type="curve" smooth="yes"/>
      <point x="275" y="-19"/>
      <point x="253" y="0"/>
      <point x="216" y="0" type="curve" smooth="yes"/>
    </contour>
  </outline>
</glyph>
<glyph name="h" format="2">
  <advance width="422"/>
  <unicode hex="0068"/>
  <note>
h
</note>
  <outline>
    <contour>
      <point x="164" y="342" type="line"/>
      <point x="231" y="378"/>
      <point x="309" y="380"/>
      <point x="348" y="337" type="curve" smooth="yes"/>
      <point x="367" y="315"/>
      <point x="376" y="287"/>
      <point x="376" y="253" type="curve" smooth="yes"/>
      <point x="376" y="0" type="line"/>
      <point x="265" y="0" type="line"/>
      <point x="265" y="239" type="line" smooth="yes"/>
      <point x="265" y="287"/>
      <point x="256" y="306"/>
      <point x="220" y="306" type="curve" smooth="yes"/>
      <point x="201" y="306"/>
      <point x="183" y="300"/>
      <point x="164" y="287" type="curve"/>
      <point x="164" y="0" type="line"/>
      <point x="52" y="0" type="line"/>
      <point x="52" y="471" type="line"/>
      <point x="164" y="485" type="line"/>
    </contour>
  </outline>
</glyph>
<glyph name="i" format="2">
  <advance width="216"/>
  <unicode hex="0069"/>
  <note>
i
</note>
  <outline>
    <contour>
      <point x="108" y="393" type="curve" smooth="yes"/>
      <point x="71" y="393"/>
      <point x="41" y="423"/>
      <point x="41" y="460" type="curve" smooth="yes"/>
      <point x="41" y="496"/>
      <point x="70" y="526"/>
      <point x="107" y="526" type="curve" smooth="yes"/>
      <point x="144" y="526"/>
      <point x="173" y="497"/>
      <point x="173" y="459" type="curve" smooth="yes"/>
      <point x="173" y="421"/>
      <point x="144" y="393"/>
    </contour>
    <contour>
      <point x="51" y="0" type="line"/>
      <point x="51" y="360" type="line"/>
      <point x="163" y="360" type="line"/>
      <point x="163" y="0" type="line"/>
    </contour>
  </outline>
</glyph>
<glyph name="j" format="2">
  <advance width="217"/>
  <unicode hex="006A"/>
  <note>
j
</note>
  <outline>
    <contour>
      <point x="108" y="393" type="curve" smooth="yes"/>
      <point x="71" y="393"/>
      <point x="41" y="423"/>
      <point x="41" y="460" type="curve" smooth="yes"/>
      <point x="41" y="496"/>
      <point x="70" y="526"/>
      <point x="107" y="526" type="curve" smooth="yes"/>
      <point x="144" y="526"/>
      <point x="173" y="497"/>
      <point x="173" y="459" type="curve" smooth="yes"/>
      <point x="173" y="421"/>
      <point x="144" y="393"/>
    </contour>
    <contour>
      <point x="-38" y="-32" type="line"/>
      <point x="-23" y="-56"/>
      <point x="-4" y="-68"/>
      <point x="18" y="-68" type="curve" smooth="yes"/>
      <point x="39" y="-68"/>
      <point x="52" y="-47"/>
      <point x="52" y="-18" type="curve" smooth="yes"/>
      <point x="52" y="360" type="line"/>
      <point x="164" y="360" type="line"/>
      <point x="164" y="-4" type="line" smooth="yes"/>
      <point x="164" y="-91"/>
      <point x="118" y="-134"/>
      <point x="26" y="-134" type="curve" smooth="yes"/>
      <point x="-5" y="-134"/>
      <point x="-38" y="-127"/>
      <point x="-71" y="-112" type="curve"/>
    </contour>
  </outline>
</glyph>
<glyph name="k" format="2">
  <advance width="382"/>
  <unicode hex="006B"/>
  <note>
k
</note>
  <outline>
    <contour>
      <point x="169" y="144" type="line"/>
      <point x="165" y="139" type="line"/>
      <point x="164" y="139" type="line"/>
      <point x="164" y="0" type="line"/>
      <point x="52" y="0" type="line"/>
      <point x="52" y="471" type="line"/>
      <point x="164" y="485" type="line"/>
      <point x="164" y="204" type="line"/>
      <point x="307" y="360" type="line"/>
      <point x="370" y="360" type="line"/>
      <point x="237" y="216" type="line"/>
      <point x="381" y="0" type="line"/>
      <point x="261" y="0" type="line"/>
    </contour>
  </outline>
</glyph>
<glyph name="l" format="2">
  <advance width="217"/>
  <unicode hex="006C"/>
  <note>
l
</note>
  <outline>
    <contour>
      <point x="52" y="0" type="line"/>
      <point x="52" y="471" type="line"/>
      <point x="164" y="485" type="line"/>
      <point x="164" y="0" type="line"/>
    </contour>
  </outline>
</glyph>
<glyph name="m" format="2">
  <advance width="635"/>
  <unicode hex="006D"/>
  <note>
m
</note>
  <outline>
    <contour>
      <point x="355" y="329" type="curve"/>
      <point x="430" y="382"/>
      <point x="520" y="381"/>
      <point x="561" y="337" type="curve" smooth="yes"/>
      <point x="580" y="315"/>
      <point x="590" y="287"/>
      <point x="590" y="253" type="curve" smooth="yes"/>
      <point x="590" y="0" type="line"/>
      <point x="478" y="0" type="line"/>
      <point x="478" y="255" type="line" smooth="yes"/>
      <point x="478" y="289"/>
      <point x="461" y="306"/>
      <point x="428" y="306" type="curve" smooth="yes"/>
      <point x="409" y="306"/>
      <point x="391" y="301"/>
      <point x="373" y="290" type="curve"/>
      <point x="376" y="274"/>
      <point x="377" y="262"/>
      <point x="377" y="253" type="curve" smooth="yes"/>
      <point x="377" y="0" type="line"/>
      <point x="266" y="0" type="line"/>
      <point x="266" y="255" type="line" smooth="yes"/>
      <point x="266" y="289"/>
      <point x="250" y="306"/>
      <point x="217" y="306" type="curve" smooth="yes"/>
      <point x="198" y="306"/>
      <point x="181" y="301"/>
      <point x="164" y="292" type="curve"/>
      <point x="164" y="0" type="line"/>
      <point x="52" y="0" type="line"/>
      <point x="52" y="360" type="line"/>
      <point x="103" y="360" type="line"/>
      <point x="140" y="328" type="line"/>
      <point x="181" y="355"/>
      <point x="221" y="369"/>
      <point x="262" y="369" type="curve" smooth="yes"/>
      <point x="303" y="369"/>
      <point x="334" y="356"/>
    </contour>
  </outline>
</glyph>
<glyph name="n" format="2">
  <advance width="422"/>
  <unicode hex="006E"/>
  <note>
n
</note>
  <outline>
    <contour>
      <point x="140" y="328" type="line"/>
      <point x="218" y="381"/>
      <point x="307" y="382"/>
      <point x="348" y="337" type="curve" smooth="yes"/>
      <point x="367" y="315"/>
      <point x="376" y="287"/>
      <point x="376" y="253" type="curve" smooth="yes"/>
      <point x="376" y="0" type="line"/>
      <point x="265" y="0" type="line"/>
      <point x="265" y="239" type="line" smooth="yes"/>
      <point x="265" y="286"/>
      <point x="256" y="306"/>
      <point x="220" y="306" type="curve" smooth="yes"/>
      <point x="201" y="306"/>
      <point x="183" y="300"/>
      <point x="164" y="287" type="curve"/>
      <point x="164" y="0" type="line"/>
      <point x="52" y="0" type="line"/>
      <point x="52" y="360" type="line"/>
      <point x="103" y="360" type="line"/>
    </contour>
  </outline>
</glyph>
<glyph name="p" format="2">
  <advance width="413"/>
  <unicode hex="0070"/>
  <note>
p
</note>
  <outline>
    <contour>
      <point x="135" y="336" type="line"/>
      <point x="167" y="358"/>
      <point x="199" y="369"/>
      <point x="230" y="369" type="curve" smooth="yes"/>
      <point x="333" y="369"/>
      <point x="384" y="306"/>
      <point x="384" y="180" type="curve" smooth="yes"/>
      <point x="384" y="54"/>
      <point x="333" y="-9"/>
      <point x="231" y="-9" type="curve" smooth="yes"/>
      <point x="209" y="-9"/>
      <point x="187" y="-7"/>
      <point x="164" y="-2" type="curve"/>
      <point x="164" y="-137" type="line"/>
      <point x="52" y="-152" type="line"/>
      <point x="52" y="360" type="line"/>
      <point x="104" y="360" type="line"/>
    </contour>
    <contour>
      <point x="164" y="48" type="line"/>
      <point x="172" y="47"/>
      <point x="184" y="46"/>
      <point x="200" y="46" type="curve" smooth="yes"/>
      <point x="249" y="46"/>
      <point x="273" y="89"/>
      <point x="273" y="176" type="curve" smooth="yes"/>
      <point x="273" y="263"/>
      <point x="247" y="306"/>
      <point x="196" y="306" type="curve" smooth="yes"/>
      <point x="188" y="306"/>
      <point x="177" y="304"/>
      <point x="164" y="300" type="curve"/>
    </contour>
  </outline>
</glyph>
<glyph name="q" format="2">
  <advance width="413"/>
  <unicode hex="0071"/>
  <note>
q
</note>
  <outline>
    <contour>
      <point x="361" y="-121" type="line"/>
      <point x="249" y="-135" type="line"/>
      <point x="249" y="5" type="line"/>
      <point x="227" y="-4"/>
      <point x="204" y="-9"/>
      <point x="181" y="-9" type="curve" smooth="yes"/>
      <point x="80" y="-9"/>
      <point x="30" y="54"/>
      <point x="30" y="180" type="curve" smooth="yes"/>
      <point x="30" y="306"/>
      <point x="80" y="369"/>
      <point x="181" y="369" type="curve" smooth="yes"/>
      <point x="218" y="369"/>
      <point x="252" y="357"/>
      <point x="281" y="334" type="curve"/>
      <point x="311" y="360" type="line"/>
      <point x="361" y="360" type="line"/>
    </contour>
    <contour>
      <point x="141" y="180" type="curve" smooth="yes"/>
      <point x="141" y="91"/>
      <point x="161" y="46"/>
      <point x="214" y="46" type="curve" smooth="yes"/>
      <point x="225" y="46"/>
      <point x="237" y="48"/>
      <point x="249" y="51" type="curve"/>
      <point x="249" y="299" type="line"/>
      <point x="238" y="304"/>
      <point x="226" y="306"/>
      <point x="215" y="306" type="curve" smooth="yes"/>
      <point x="166" y="306"/>
      <point x="141" y="264"/>
    </contour>
  </outline>
</glyph>
<glyph name="s" format="2">
  <advance width="351"/>
  <unicode hex="0073"/>
  <note>
s
</note>
  <outline>
    <contour>
      <point x="223" y="219" type="line"/>
      <point x="292" y="199"/>
      <point x="329" y="169"/>
      <point x="329" y="102" type="curve" smooth="yes"/>
      <point x="329" y="34"/>
      <point x="270" y="-9"/>
      <point x="175" y="-9" type="curve" smooth="yes"/>
      <point x="80" y="-9"/>
      <point x="34" y="31"/>
      <point x="22" y="108" type="curve"/>
      <point x="114" y="121" type="line"/>
      <point x="118" y="74"/>
      <point x="143" y="46"/>
      <point x="182" y="46" type="curve" smooth="yes"/>
      <point x="217" y="46"/>
      <point x="235" y="57"/>
      <point x="235" y="80" type="curve" smooth="yes"/>
      <point x="235" y="102"/>
      <point x="210" y="120"/>
      <point x="159" y="134" type="curve" smooth="yes"/>
      <point x="127" y="144" type="line" smooth="yes"/>
      <point x="60" y="163"/>
      <point x="28" y="194"/>
      <point x="28" y="262" type="curve" smooth="yes"/>
      <point x="28" y="329"/>
      <point x="86" y="369"/>
      <point x="177" y="369" type="curve" smooth="yes"/>
      <point x="268" y="369"/>
      <point x="314" y="330"/>
      <point x="326" y="254" type="curve"/>
      <point x="233" y="242" type="line"/>
      <point x="229" y="290"/>
      <point x="209" y="314"/>
      <point x="172" y="314" type="curve" smooth="yes"/>
      <point x="139" y="314"/>
      <point x="122" y="303"/>
      <point x="122" y="282" type="curve" smooth="yes"/>
      <point x="122" y="257"/>
      <point x="146" y="243"/>
      <point x="193" y="230" type="curve"/>
    </contour>
  </outline>
</glyph>
<glyph name="t" format="2">
  <advance width="246"/>
  <unicode hex="0074"/>
  <note>
t
</note>
  <outline>
    <contour>
      <point x="255" y="13" type="line"/>
      <point x="228" y="-2"/>
      <point x="197" y="-9"/>
      <point x="164" y="-9" type="curve" smooth="yes"/>
      <point x="130" y="-9"/>
      <point x="104" y="0"/>
      <point x="86" y="18" type="curve" smooth="yes"/>
      <point x="70" y="34"/>
      <point x="62" y="64"/>
      <point x="62" y="109" type="curve" smooth="yes"/>
      <point x="62" y="303" type="line"/>
      <point x="8" y="303" type="line"/>
      <point x="8" y="360" type="line"/>
      <point x="62" y="360" type="line"/>
      <point x="62" y="409" type="line"/>
      <point x="174" y="447" type="line"/>
      <point x="174" y="360" type="line"/>
      <point x="242" y="360" type="line"/>
      <point x="242" y="303" type="line"/>
      <point x="174" y="303" type="line"/>
      <point x="174" y="87" type="line" smooth="yes"/>
      <point x="174" y="64"/>
      <point x="183" y="52"/>
      <point x="200" y="52" type="curve" smooth="yes"/>
      <point x="211" y="52"/>
      <point x="224" y="56"/>
      <point x="240" y="63" type="curve"/>
    </contour>
  </outline>
</glyph>
<glyph name="u" format="2">
  <advance width="421"/>
  <unicode hex="0075"/>
  <note>
u
</note>
  <outline>
    <contour>
      <point x="368" y="0" type="line"/>
      <point x="297" y="0" type="line"/>
      <point x="268" y="36" type="line"/>
      <point x="241" y="6"/>
      <point x="207" y="-9"/>
      <point x="164" y="-9" type="curve" smooth="yes"/>
      <point x="85" y="-9"/>
      <point x="46" y="29"/>
      <point x="46" y="105" type="curve" smooth="yes"/>
      <point x="46" y="360" type="line"/>
      <point x="158" y="360" type="line"/>
      <point x="158" y="120" type="line" smooth="yes"/>
      <point x="158" y="23"/>
      <point x="226" y="42"/>
      <point x="257" y="75" type="curve"/>
      <point x="257" y="360" type="line"/>
      <point x="368" y="360" type="line"/>
    </contour>
  </outline>
</glyph>
<glyph name="v" format="2">
  <advance width="358"/>
  <unicode hex="0076"/>
  <note>
v
</note>
  <outline>
    <contour>
      <point x="242" y="0" type="line"/>
      <point x="117" y="0" type="line"/>
      <point x="1" y="360" type="line"/>
      <point x="112" y="360" type="line"/>
      <point x="204" y="55" type="line"/>
      <point x="296" y="360" type="line"/>
      <point x="359" y="360" type="line"/>
    </contour>
  </outline>
</glyph>
<glyph name="x" format="2">
  <advance width="353"/>
  <unicode hex="0078"/>
  <note>
x
</note>
  <outline>
    <contour>
      <point x="149" y="122" type="line"/>
      <point x="57" y="0" type="line"/>
      <point x="-5" y="0" type="line"/>
      <point x="123" y="165" type="line"/>
      <point x="1" y="360" type="line"/>
      <point x="123" y="360" type="line"/>
      <point x="194" y="248" type="line"/>
      <point x="281" y="360" type="line"/>
      <point x="343" y="360" type="line"/>
      <point x="221" y="203" type="line"/>
      <point x="347" y="0" type="line"/>
      <point x="226" y="0" type="line"/>
    </contour>
  </outline>
</glyph>
<glyph name="y" format="2">
  <advance width="348"/>
  <unicode hex="0079"/>
  <note>
y
</note>
  <outline>
    <contour>
      <point x="177" y="-152" type="line"/>
      <point x="95" y="-143" type="line"/>
      <point x="160" y="-12" type="line"/>
      <point x="1" y="360" type="line"/>
      <point x="112" y="360" type="line"/>
      <point x="208" y="125" type="line"/>
      <point x="284" y="360" type="line"/>
      <point x="348" y="360" type="line"/>
    </contour>
  </outline>
</glyph>
<glyph name="bar" format="2">
  <advance width="220"/>
  <unicode hex="007C"/>
  <note>
bar
</note>
  <outline>
    <contour>
      <point x="169" y="-67" type="line"/>
      <point x="50" y="-67" type="line"/>
      <point x="50" y="489" type="line"/>
      <point x="169" y="489" type="line"/>
    </contour>
  </outline>
</glyph>
<glyph name="asciitilde" format="2">
  <advance width="365"/>
  <unicode hex="007E"/>
  <note>
asciitilde
</note>
  <outline>
    <contour>
      <point x="51" y="237" type="line"/>
      <point x="79.89905" y="214.98167"/>
      <point x="121.07375" y="217.40197"/>
      <point x="182.5" y="234.5" type="curve" smooth="yes"/>
      <point x="239.15133" y="250.26893"/>
      <point x="279.78948" y="253.36155"/>
      <point x="314" y="237" type="curve"/>
      <point x="314" y="165" type="line"/>
      <point x="281.67236" y="181.8666"/>
      <point x="242.66943" y="180.24819"/>
      <point x="182.5" y="163.5" type="curve" smooth="yes"/>
      <point x="121.36347" y="146.48261"/>
      <point x="82.77974" y="144.27408"/>
      <point x="51" y="165" type="curve"/>
    </contour>
  </outline>
</glyph>
<glyph name="exclamdown" format="2">
  <advance width="215"/>
  <unicode hex="00A1"/>
  <note>
exclamdown
</note>
  <outline>
    <contour>
      <point x="107" y="370" type="curve" smooth="yes"/>
      <point x="139" y="370"/>
      <point x="167" y="343"/>
      <point x="167" y="311" type="curve" smooth="yes"/>
      <point x="167" y="278"/>
      <point x="139" y="251"/>
      <point x="107" y="251" type="curve" smooth="yes"/>
      <point x="75" y="251"/>
      <point x="48" y="278"/>
      <point x="48" y="310" type="curve" smooth="yes"/>
      <point x="48" y="342"/>
      <point x="75" y="370"/>
    </contour>
    <contour>
      <point x="46" y="30" type="line"/>
      <point x="75" y="222" type="line"/>
      <point x="140" y="222" type="line"/>
      <point x="167" y="30" type="line"/>
      <point x="167" y="-95" type="line"/>
      <point x="46" y="-95" type="line"/>
    </contour>
  </outline>
</glyph>
<glyph name="cent" format="2">
  <advance width="397"/>
  <unicode hex="00A2"/>
  <note>
cent
</note>
  <outline>
    <contour>
      <point x="368" y="158" type="line"/>
      <point x="363" y="79"/>
      <point x="320" y="35"/>
      <point x="239" y="26" type="curve"/>
      <point x="239" y="-51" type="line"/>
      <point x="165" y="-51" type="line"/>
      <point x="165" y="28" type="line"/>
      <point x="76" y="45"/>
      <point x="32" y="112"/>
      <point x="32" y="229" type="curve" smooth="yes"/>
      <point x="32" y="346"/>
      <point x="76" y="413"/>
      <point x="165" y="431" type="curve"/>
      <point x="165" y="510" type="line"/>
      <point x="239" y="510" type="line"/>
      <point x="239" y="435" type="line"/>
      <point x="316" y="426"/>
      <point x="356" y="370"/>
      <point x="363" y="290" type="curve"/>
      <point x="276" y="286" type="line"/>
      <point x="275" y="346"/>
      <point x="248" y="392"/>
      <point x="215" y="392" type="curve" smooth="yes"/>
      <point x="168" y="392"/>
      <point x="144" y="338"/>
      <point x="144" y="230" type="curve" smooth="yes"/>
      <point x="144" y="125"/>
      <point x="170" y="68"/>
      <point x="210" y="68" type="curve" smooth="yes"/>
      <point x="254" y="68"/>
      <point x="280" y="104"/>
      <point x="281" y="165" type="curve"/>
    </contour>
  </outline>
</glyph>
<glyph name="sterling" format="2">
  <advance width="397"/>
  <unicode hex="00A3"/>
  <note>
sterling
</note>
  <outline>
    <contour>
      <point x="380" y="0" type="line"/>
      <point x="32" y="0" type="line"/>
      <point x="32" y="65" type="line"/>
      <point x="59" y="78"/>
      <point x="73" y="107"/>
      <point x="73" y="131" type="curve" smooth="yes"/>
      <point x="73" y="179" type="line"/>
      <point x="36" y="179" type="line"/>
      <point x="36" y="254" type="line"/>
      <point x="73" y="254" type="line"/>
      <point x="73" y="327" type="line" smooth="yes"/>
      <point x="73" y="422"/>
      <point x="126" y="469"/>
      <point x="232" y="469" type="curve" smooth="yes"/>
      <point x="339" y="469"/>
      <point x="376" y="420"/>
      <point x="376" y="324" type="curve"/>
      <point x="279" y="316" type="line"/>
      <point x="279" y="389"/>
      <point x="263" y="425"/>
      <point x="232" y="425" type="curve" smooth="yes"/>
      <point x="196" y="425"/>
      <point x="186" y="391"/>
      <point x="186" y="327" type="curve" smooth="yes"/>
      <point x="186" y="254" type="line"/>
      <point x="305" y="254" type="line"/>
      <point x="305" y="179" type="line"/>
      <point x="186" y="179" type="line"/>
      <point x="186" y="151" type="line" smooth="yes"/>
      <point x="186" y="119"/>
      <point x="176" y="106"/>
      <point x="151" y="86" type="curve"/>
      <point x="380" y="86" type="line"/>
    </contour>
  </outline>
</glyph>
<glyph name="currency" format="2">
  <advance width="397"/>
  <unicode hex="00A4"/>
  <note>
currency
</note>
  <outline>
    <contour>
      <point x="334" y="312" type="line"/>
      <point x="346" y="290"/>
      <point x="352" y="263"/>
      <point x="352" y="230" type="curve" smooth="yes"/>
      <point x="352" y="197"/>
      <point x="346" y="170"/>
      <point x="333" y="148" type="curve"/>
      <point x="390" y="91" type="line"/>
      <point x="338" y="40" type="line"/>
      <point x="282" y="95" type="line"/>
      <point x="257" y="83"/>
      <point x="228" y="77"/>
      <point x="197" y="77" type="curve" smooth="yes"/>
      <point x="166" y="77"/>
      <point x="139" y="83"/>
      <point x="117" y="96" type="curve"/>
      <point x="59" y="40" type="line"/>
      <point x="8" y="91" type="line"/>
      <point x="68" y="151" type="line"/>
      <point x="57" y="176"/>
      <point x="51" y="202"/>
      <point x="51" y="230" type="curve" smooth="yes"/>
      <point x="51" y="257"/>
      <point x="57" y="284"/>
      <point x="68" y="310" type="curve"/>
      <point x="8" y="369" type="line"/>
      <point x="59" y="420" type="line"/>
      <point x="118" y="363" type="line"/>
      <point x="141" y="376"/>
      <point x="169" y="383"/>
      <point x="202" y="383" type="curve" smooth="yes"/>
      <point x="235" y="383"/>
      <point x="262" y="377"/>
      <point x="283" y="366" type="curve"/>
      <point x="338" y="420" type="line"/>
      <point x="390" y="369" type="line"/>
    </contour>
    <contour>
      <point x="150" y="230" type="curve" smooth="yes"/>
      <point x="150" y="157"/>
      <point x="166" y="121"/>
      <point x="197" y="121" type="curve" smooth="yes"/>
      <point x="235" y="121"/>
      <point x="254" y="157"/>
      <point x="254" y="230" type="curve" smooth="yes"/>
      <point x="254" y="303"/>
      <point x="238" y="339"/>
      <point x="205" y="339" type="curve" smooth="yes"/>
      <point x="168" y="339"/>
      <point x="150" y="303"/>
    </contour>
  </outline>
</glyph>
<glyph name="yen" format="2">
  <advance width="397"/>
  <unicode hex="00A5"/>
  <note>
yen
</note>
  <outline>
    <contour>
      <point x="367" y="302" type="line"/>
      <point x="367" y="237" type="line"/>
      <point x="291" y="237" type="line"/>
      <point x="273" y="197" type="line"/>
      <point x="367" y="197" type="line"/>
      <point x="367" y="131" type="line"/>
      <point x="256" y="131" type="line"/>
      <point x="256" y="0" type="line"/>
      <point x="142" y="0" type="line"/>
      <point x="142" y="131" type="line"/>
      <point x="31" y="131" type="line"/>
      <point x="31" y="197" type="line"/>
      <point x="124" y="197" type="line"/>
      <point x="106" y="237" type="line"/>
      <point x="31" y="237" type="line"/>
      <point x="31" y="302" type="line"/>
      <point x="75" y="302" type="line"/>
      <point x="1" y="460" type="line"/>
      <point x="113" y="460" type="line"/>
      <point x="219" y="220" type="line"/>
      <point x="331" y="460" type="line"/>
      <point x="396" y="460" type="line"/>
      <point x="322" y="302" type="line"/>
    </contour>
  </outline>
</glyph>
<glyph name="brokenbar" format="2">
  <advance width="220"/>
  <unicode hex="00A6"/>
  <note>
brokenbar
</note>
  <outline>
    <contour>
      <point x="169" y="256" type="line"/>
      <point x="50" y="256" type="line"/>
      <point x="50" y="489" type="line"/>
      <point x="169" y="489" type="line"/>
    </contour>
    <contour>
      <point x="169" y="-67" type="line"/>
      <point x="50" y="-67" type="line"/>
      <point x="50" y="167" type="line"/>
      <point x="169" y="167" type="line"/>
    </contour>
  </outline>
</glyph>
<glyph name="section" format="2">
  <advance width="325"/>
  <unicode hex="00A7"/>
  <note>
section
</note>
  <outline>
    <contour>
      <point x="172" y="392" type="curve" smooth="yes"/>
      <point x="172" y="377"/>
      <point x="176" y="363"/>
      <point x="185" y="352" type="curve" smooth="yes"/>
      <point x="268" y="252" type="line"/>
      <point x="301" y="222"/>
      <point x="317" y="184"/>
      <point x="317" y="139" type="curve" smooth="yes"/>
      <point x="317" y="94"/>
      <point x="291" y="57"/>
      <point x="239" y="29" type="curve"/>
      <point x="256" y="4"/>
      <point x="264" y="-23"/>
      <point x="264" y="-54" type="curve" smooth="yes"/>
      <point x="264" y="-127"/>
      <point x="213" y="-175"/>
      <point x="110" y="-198" type="curve"/>
      <point x="84" y="-120" type="line"/>
      <point x="130" y="-110"/>
      <point x="153" y="-93"/>
      <point x="153" y="-68" type="curve" smooth="yes"/>
      <point x="153" y="-47"/>
      <point x="150" y="-41"/>
      <point x="131" y="-18" type="curve" smooth="yes"/>
      <point x="53" y="74" type="line" smooth="yes"/>
      <point x="23" y="110"/>
      <point x="8" y="145"/>
      <point x="8" y="179" type="curve" smooth="yes"/>
      <point x="8" y="228"/>
      <point x="34" y="267"/>
      <point x="87" y="296" type="curve"/>
      <point x="70" y="323"/>
      <point x="61" y="350"/>
      <point x="61" y="377" type="curve" smooth="yes"/>
      <point x="61" y="450"/>
      <point x="112" y="498"/>
      <point x="214" y="521" type="curve"/>
      <point x="241" y="443" type="line"/>
      <point x="195" y="433"/>
      <point x="172" y="416"/>
    </contour>
    <contour>
      <point x="143" y="227" type="line"/>
      <point x="128" y="218"/>
      <point x="120" y="206"/>
      <point x="120" y="192" type="curve" smooth="yes"/>
      <point x="120" y="177"/>
      <point x="124" y="165"/>
      <point x="132" y="154" type="curve" smooth="yes"/>
      <point x="181" y="95" type="line"/>
      <point x="213" y="115"/>
      <point x="207" y="142"/>
      <point x="202" y="155" type="curve"/>
      <point x="199" y="160"/>
      <point x="193" y="169"/>
      <point x="183" y="181" type="curve" smooth="yes"/>
    </contour>
  </outline>
</glyph>
<glyph name="dieresis" format="2">
  <advance width="281"/>
  <unicode hex="00A8"/>
  <note>
dieresis
</note>
  <outline>
    <contour>
      <point x="61" y="399" type="curve" smooth="yes"/>
      <point x="28" y="399"/>
      <point x="2" y="427"/>
      <point x="2" y="459" type="curve" smooth="yes"/>
      <point x="2" y="491"/>
      <point x="27" y="518"/>
      <point x="60" y="518" type="curve" smooth="yes"/>
      <point x="93" y="518"/>
      <point x="120" y="491"/>
      <point x="120" y="459" type="curve" smooth="yes"/>
      <point x="120" y="426"/>
      <point x="93" y="399"/>
    </contour>
    <contour>
      <point x="221" y="399" type="curve" smooth="yes"/>
      <point x="188" y="399"/>
      <point x="161" y="427"/>
      <point x="161" y="459" type="curve" smooth="yes"/>
      <point x="161" y="491"/>
      <point x="188" y="518"/>
      <point x="221" y="518" type="curve" smooth="yes"/>
      <point x="253" y="518"/>
      <point x="280" y="491"/>
      <point x="280" y="459" type="curve" smooth="yes"/>
      <point x="280" y="426"/>
      <point x="253" y="399"/>
    </contour>
  </outline>
</glyph>
<glyph name="copyright" format="2">
  <advance width="466"/>
  <unicode hex="00A9"/>
  <note>
copyright
</note>
  <outline>
    <contour>
      <point x="23" y="353" type="curve" smooth="yes"/>
      <point x="23" y="490"/>
      <point x="97" y="563"/>
      <point x="234" y="563" type="curve" smooth="yes"/>
      <point x="370" y="563"/>
      <point x="443" y="490"/>
      <point x="443" y="353" type="curve" smooth="yes"/>
      <point x="443" y="216"/>
      <point x="370" y="143"/>
      <point x="234" y="143" type="curve" smooth="yes"/>
      <point x="97" y="143"/>
      <point x="23" y="216"/>
    </contour>
    <contour>
      <point x="233" y="511" type="curve" smooth="yes"/>
      <point x="130" y="511"/>
      <point x="78" y="458"/>
      <point x="78" y="353" type="curve" smooth="yes"/>
      <point x="78" y="248"/>
      <point x="130" y="195"/>
      <point x="233" y="195" type="curve" smooth="yes"/>
      <point x="336" y="195"/>
      <point x="388" y="248"/>
      <point x="388" y="353" type="curve" smooth="yes"/>
      <point x="388" y="458"/>
      <point x="336" y="511"/>
    </contour>
    <contour>
      <point x="278" y="394" type="line"/>
      <point x="275" y="427"/>
      <point x="266" y="441"/>
      <point x="238" y="441" type="curve" smooth="yes"/>
      <point x="210" y="441"/>
      <point x="194" y="405"/>
      <point x="194" y="354" type="curve" smooth="yes"/>
      <point x="194" y="295"/>
      <point x="209" y="266"/>
      <point x="238" y="266" type="curve" smooth="yes"/>
      <point x="263" y="266"/>
      <point x="278" y="285"/>
      <point x="281" y="322" type="curve"/>
      <point x="331" y="320" type="line"/>
      <point x="329" y="254"/>
      <point x="297" y="221"/>
      <point x="234" y="221" type="curve" smooth="yes"/>
      <point x="162" y="221"/>
      <point x="136" y="266"/>
      <point x="136" y="354" type="curve" smooth="yes"/>
      <point x="136" y="441"/>
      <point x="165" y="484"/>
      <point x="234" y="484" type="curve" smooth="yes"/>
      <point x="294" y="484"/>
      <point x="326" y="456"/>
      <point x="330" y="399" type="curve"/>
    </contour>
  </outline>
</glyph>
<glyph name="ordfeminine" format="2">
  <advance width="272"/>
  <unicode hex="00AA"/>
  <note>
ordfeminine
</note>
  <outline>
    <contour>
      <point x="32" y="400" type="line"/>
      <point x="37" y="451"/>
      <point x="77" y="479"/>
      <point x="136" y="479" type="curve" smooth="yes"/>
      <point x="211" y="479"/>
      <point x="249" y="450"/>
      <point x="249" y="392" type="curve" smooth="yes"/>
      <point x="249" y="221" type="line"/>
      <point x="199" y="221" type="line"/>
      <point x="172" y="244" type="line"/>
      <point x="148" y="224"/>
      <point x="122" y="214"/>
      <point x="94" y="214" type="curve" smooth="yes"/>
      <point x="44" y="214"/>
      <point x="19" y="238"/>
      <point x="19" y="286" type="curve" smooth="yes"/>
      <point x="19" y="326"/>
      <point x="49" y="354"/>
      <point x="108" y="361" type="curve" smooth="yes"/>
      <point x="158" y="366" type="line"/>
      <point x="158" y="391" type="line" smooth="yes"/>
      <point x="158" y="425"/>
      <point x="151" y="442"/>
      <point x="136" y="442" type="curve" smooth="yes"/>
      <point x="127" y="442"/>
      <point x="121" y="438"/>
      <point x="116" y="431" type="curve" smooth="yes"/>
      <point x="111" y="424"/>
      <point x="107" y="408"/>
      <point x="106" y="383" type="curve"/>
    </contour>
    <contour>
      <point x="158" y="261" type="line"/>
      <point x="158" y="338" type="line"/>
      <point x="145" y="337" type="line" smooth="yes"/>
      <point x="118" y="334"/>
      <point x="104" y="318"/>
      <point x="104" y="288" type="curve" smooth="yes"/>
      <point x="104" y="268"/>
      <point x="114" y="258"/>
      <point x="135" y="258" type="curve" smooth="yes"/>
      <point x="155" y="260" type="line"/>
    </contour>
    <contour>
      <point x="253" y="115" type="line"/>
      <point x="14" y="115" type="line"/>
      <point x="14" y="178" type="line"/>
      <point x="253" y="178" type="line"/>
    </contour>
  </outline>
</glyph>
<glyph name="guillemotleft" format="2">
  <advance width="338"/>
  <unicode hex="00AB"/>
  <note>
guillemotleft
</note>
  <outline>
    <contour>
      <point x="134" y="68" type="line"/>
      <point x="14" y="180" type="line"/>
      <point x="14" y="217" type="line"/>
      <point x="134" y="329" type="line"/>
      <point x="168" y="294" type="line"/>
      <point x="101" y="199" type="line"/>
      <point x="168" y="103" type="line"/>
    </contour>
    <contour>
      <point x="288" y="68" type="line"/>
      <point x="169" y="180" type="line"/>
      <point x="169" y="217" type="line"/>
      <point x="288" y="329" type="line"/>
      <point x="323" y="294" type="line"/>
      <point x="255" y="199" type="line"/>
      <point x="323" y="103" type="line"/>
    </contour>
  </outline>
</glyph>
<glyph name="registered" format="2">
  <advance width="466"/>
  <unicode hex="00AE"/>
  <note>
registered
</note>
  <outline>
    <contour>
      <point x="23" y="353" type="curve" smooth="yes"/>
      <point x="23" y="490"/>
      <point x="97" y="563"/>
      <point x="234" y="563" type="curve" smooth="yes"/>
      <point x="370" y="563"/>
      <point x="443" y="490"/>
      <point x="443" y="353" type="curve" smooth="yes"/>
      <point x="443" y="216"/>
      <point x="370" y="143"/>
      <point x="234" y="143" type="curve" smooth="yes"/>
      <point x="97" y="143"/>
      <point x="23" y="216"/>
    </contour>
    <contour>
      <point x="233" y="511" type="curve" smooth="yes"/>
      <point x="130" y="511"/>
      <point x="78" y="458"/>
      <point x="78" y="353" type="curve" smooth="yes"/>
      <point x="78" y="248"/>
      <point x="130" y="195"/>
      <point x="233" y="195" type="curve" smooth="yes"/>
      <point x="336" y="195"/>
      <point x="388" y="248"/>
      <point x="388" y="353" type="curve" smooth="yes"/>
      <point x="388" y="458"/>
      <point x="336" y="511"/>
    </contour>
    <contour>
      <point x="237" y="480" type="line" smooth="yes"/>
      <point x="295" y="480"/>
      <point x="324" y="455"/>
      <point x="324" y="405" type="curve" smooth="yes"/>
      <point x="324" y="364"/>
      <point x="310" y="340"/>
      <point x="283" y="332" type="curve"/>
      <point x="288" y="327"/>
      <point x="293" y="319"/>
      <point x="298" y="310" type="curve"/>
      <point x="335" y="227" type="line"/>
      <point x="273" y="227" type="line"/>
      <point x="238" y="309" type="line" smooth="yes"/>
      <point x="234" y="318"/>
      <point x="229" y="323"/>
      <point x="223" y="323" type="curve" smooth="yes"/>
      <point x="209" y="323" type="line"/>
      <point x="209" y="227" type="line"/>
      <point x="151" y="227" type="line"/>
      <point x="151" y="480" type="line"/>
    </contour>
    <contour>
      <point x="236" y="365" type="line" smooth="yes"/>
      <point x="255" y="365"/>
      <point x="265" y="377"/>
      <point x="265" y="401" type="curve" smooth="yes"/>
      <point x="265" y="425"/>
      <point x="255" y="437"/>
      <point x="236" y="437" type="curve" smooth="yes"/>
      <point x="209" y="437" type="line"/>
      <point x="209" y="365" type="line"/>
    </contour>
  </outline>
</glyph>
<glyph name="macron" format="2">
  <advance width="223"/>
  <unicode hex="00AF"/>
  <note>
macron
</note>
  <outline>
    <contour>
      <point x="210" y="411" type="line"/>
      <point x="14" y="411" type="line"/>
      <point x="14" y="487" type="line"/>
      <point x="210" y="487" type="line"/>
    </contour>
  </outline>
</glyph>
<glyph name="degree" format="2">
  <advance width="267"/>
  <unicode hex="00B0"/>
  <note>
degree
</note>
  <outline>
    <contour>
      <point x="135" y="236" type="curve" smooth="yes"/>
      <point x="59" y="236"/>
      <point x="14" y="278"/>
      <point x="14" y="351" type="curve" smooth="yes"/>
      <point x="14" y="424"/>
      <point x="56" y="469"/>
      <point x="131" y="469" type="curve" smooth="yes"/>
      <point x="206" y="469"/>
      <point x="253" y="426"/>
      <point x="253" y="354" type="curve" smooth="yes"/>
      <point x="253" y="281"/>
      <point x="210" y="236"/>
    </contour>
    <contour>
      <point x="132" y="281" type="curve" smooth="yes"/>
      <point x="156" y="281"/>
      <point x="168" y="305"/>
      <point x="168" y="353" type="curve" smooth="yes"/>
      <point x="168" y="401"/>
      <point x="156" y="425"/>
      <point x="132" y="425" type="curve" smooth="yes"/>
      <point x="111" y="425"/>
      <point x="100" y="401"/>
      <point x="100" y="353" type="curve" smooth="yes"/>
      <point x="100" y="305"/>
      <point x="111" y="281"/>
    </contour>
  </outline>
</glyph>
<glyph name="plusminus" format="2">
  <advance width="365"/>
  <unicode hex="00B1"/>
  <note>
plusminus
</note>
  <outline>
    <contour>
      <point x="147" y="364" type="line"/>
      <point x="219" y="364" type="line"/>
      <point x="219" y="268" type="line"/>
      <point x="314" y="268" type="line"/>
      <point x="314" y="196" type="line"/>
      <point x="219" y="196" type="line"/>
      <point x="219" y="100" type="line"/>
      <point x="147" y="100" type="line"/>
      <point x="147" y="196" type="line"/>
      <point x="51" y="196" type="line"/>
      <point x="51" y="268" type="line"/>
      <point x="147" y="268" type="line"/>
    </contour>
    <contour>
      <point x="314" y="0" type="line"/>
      <point x="51" y="0" type="line"/>
      <point x="51" y="72" type="line"/>
      <point x="314" y="72" type="line"/>
    </contour>
  </outline>
</glyph>
<glyph name="twosuperior" format="2">
  <advance width="288"/>
  <unicode hex="00B2"/>
  <note>
twosuperior
</note>
  <outline>
    <contour>
      <point x="41" y="423" type="line"/>
      <point x="46" y="483"/>
      <point x="77" y="509"/>
      <point x="142" y="509" type="curve" smooth="yes"/>
      <point x="213" y="509"/>
      <point x="248" y="485"/>
      <point x="248" y="436" type="curve" smooth="yes"/>
      <point x="248" y="411"/>
      <point x="233" y="387"/>
      <point x="203" y="366" type="curve" smooth="yes"/>
      <point x="128" y="314" type="line"/>
      <point x="247" y="314" type="line"/>
      <point x="247" y="252" type="line"/>
      <point x="40" y="252" type="line"/>
      <point x="40" y="303" type="line"/>
      <point x="129" y="366" type="line" smooth="yes"/>
      <point x="191" y="412"/>
      <point x="164" y="477"/>
      <point x="142" y="477" type="curve" smooth="yes"/>
      <point x="123" y="477"/>
      <point x="114" y="456"/>
      <point x="113" y="413" type="curve"/>
    </contour>
  </outline>
</glyph>
<glyph name="threesuperior" format="2">
  <advance width="288"/>
  <unicode hex="00B3"/>
  <note>
threesuperior
</note>
  <outline>
    <contour>
      <point x="247" y="446" type="curve" smooth="yes"/>
      <point x="247" y="408"/>
      <point x="223" y="385"/>
      <point x="174" y="378" type="curve"/>
      <point x="225" y="371"/>
      <point x="250" y="350"/>
      <point x="250" y="315" type="curve" smooth="yes"/>
      <point x="250" y="279"/>
      <point x="209" y="247"/>
      <point x="141" y="247" type="curve" smooth="yes"/>
      <point x="72" y="247"/>
      <point x="41" y="266"/>
      <point x="37" y="322" type="curve"/>
      <point x="109" y="332" type="line"/>
      <point x="110" y="297"/>
      <point x="120" y="280"/>
      <point x="140" y="280" type="curve" smooth="yes"/>
      <point x="160" y="280"/>
      <point x="170" y="292"/>
      <point x="170" y="315" type="curve" smooth="yes"/>
      <point x="170" y="330"/>
      <point x="168" y="341"/>
      <point x="163" y="346" type="curve" smooth="yes"/>
      <point x="152" y="357"/>
      <point x="154" y="356"/>
      <point x="137" y="359" type="curve" smooth="yes"/>
      <point x="135" y="359"/>
      <point x="132" y="359"/>
      <point x="127" y="359" type="curve" smooth="yes"/>
      <point x="119" y="358" type="line"/>
      <point x="99" y="358" type="line"/>
      <point x="99" y="396" type="line"/>
      <point x="120" y="396" type="line" smooth="yes"/>
      <point x="160" y="396"/>
      <point x="165" y="408"/>
      <point x="165" y="441" type="curve" smooth="yes"/>
      <point x="165" y="473"/>
      <point x="159" y="477"/>
      <point x="140" y="477" type="curve" smooth="yes"/>
      <point x="124" y="477"/>
      <point x="115" y="458"/>
      <point x="113" y="421" type="curve"/>
      <point x="41" y="430" type="line"/>
      <point x="46" y="489"/>
      <point x="76" y="509"/>
      <point x="142" y="509" type="curve" smooth="yes"/>
      <point x="208" y="509"/>
      <point x="247" y="483"/>
    </contour>
  </outline>
</glyph>
<glyph name="acute" format="2">
  <advance width="181"/>
  <unicode hex="00B4"/>
  <note>
acute
</note>
  <outline>
    <contour>
      <point x="195" y="480" type="line"/>
      <point x="68" y="394" type="line"/>
      <point x="46" y="419" type="line"/>
      <point x="131" y="554" type="line"/>
    </contour>
  </outline>
</glyph>
<glyph name="mu" format="2">
  <advance width="387"/>
  <unicode hex="00B5"/>
  <note>
mu
</note>
  <outline>
    <contour>
      <point x="371" y="107" type="line" smooth="yes"/>
      <point x="371" y="39"/>
      <point x="335" y="-9"/>
      <point x="263" y="-9" type="curve" smooth="yes"/>
      <point x="227" y="-9"/>
      <point x="193" y="-3"/>
      <point x="162" y="9" type="curve"/>
      <point x="162" y="-143" type="line"/>
      <point x="50" y="-143" type="line"/>
      <point x="50" y="360" type="line"/>
      <point x="162" y="360" type="line"/>
      <point x="162" y="85" type="line"/>
      <point x="177" y="78"/>
      <point x="194" y="75"/>
      <point x="214" y="75" type="curve" smooth="yes"/>
      <point x="244" y="75"/>
      <point x="259" y="93"/>
      <point x="259" y="130" type="curve" smooth="yes"/>
      <point x="259" y="360" type="line"/>
      <point x="371" y="360" type="line"/>
    </contour>
  </outline>
</glyph>
<glyph name="paragraph" format="2">
  <advance width="333"/>
  <unicode hex="00B6"/>
  <note>
paragraph
</note>
  <outline>
    <contour>
      <point x="268" y="0" type="line"/>
      <point x="156" y="0" type="line"/>
      <point x="156" y="163" type="line"/>
      <point x="136" y="163" type="line" smooth="yes"/>
      <point x="48" y="163"/>
      <point x="2" y="220"/>
      <point x="2" y="293" type="curve" smooth="yes"/>
      <point x="2" y="365"/>
      <point x="48" y="422"/>
      <point x="136" y="422" type="curve" smooth="yes"/>
      <point x="268" y="422" type="line"/>
    </contour>
  </outline>
</glyph>
<glyph name="periodcentered" format="2">
  <advance width="149"/>
  <unicode hex="00B7"/>
  <note>
periodcentered
</note>
  <outline>
    <contour>
      <point x="75" y="162" type="curve" smooth="yes"/>
      <point x="42" y="162"/>
      <point x="16" y="189"/>
      <point x="16" y="222" type="curve" smooth="yes"/>
      <point x="16" y="255"/>
      <point x="42" y="281"/>
      <point x="75" y="281" type="curve" smooth="yes"/>
      <point x="107" y="281"/>
      <point x="133" y="254"/>
      <point x="133" y="222" type="curve" smooth="yes"/>
      <point x="133" y="189"/>
      <point x="107" y="162"/>
    </contour>
  </outline>
</glyph>
<glyph name="cedilla" format="2">
  <advance width="169"/>
  <unicode hex="00B8"/>
  <note>
cedilla
</note>
  <outline>
    <contour>
      <point x="95" y="-24" type="line"/>
      <point x="140" y="-31"/>
      <point x="163" y="-52"/>
      <point x="163" y="-88" type="curve" smooth="yes"/>
      <point x="163" y="-128"/>
      <point x="138" y="-158"/>
      <point x="85" y="-158" type="curve" smooth="yes"/>
      <point x="32" y="-158"/>
      <point x="6" y="-136"/>
      <point x="6" y="-92" type="curve"/>
      <point x="65" y="-85" type="line"/>
      <point x="65" y="-108"/>
      <point x="74" y="-122"/>
      <point x="83" y="-122" type="curve" smooth="yes"/>
      <point x="104" y="-122"/>
      <point x="105" y="-87"/>
      <point x="88" y="-72" type="curve" smooth="yes"/>
      <point x="80" y="-65"/>
      <point x="65" y="-60"/>
      <point x="43" y="-56" type="curve"/>
      <point x="59" y="4" type="line"/>
      <point x="104" y="4" type="line"/>
    </contour>
  </outline>
</glyph>
<glyph name="onesuperior" format="2">
  <advance width="281"/>
  <unicode hex="00B9"/>
  <note>
onesuperior
</note>
  <outline>
    <contour>
      <point x="235" y="252" type="line"/>
      <point x="47" y="252" type="line"/>
      <point x="47" y="284" type="line"/>
      <point x="103" y="284" type="line"/>
      <point x="103" y="447" type="line"/>
      <point x="46" y="446" type="line"/>
      <point x="46" y="475" type="line"/>
      <point x="79" y="477"/>
      <point x="114" y="487"/>
      <point x="151" y="505" type="curve"/>
      <point x="185" y="505" type="line"/>
      <point x="185" y="284" type="line"/>
      <point x="235" y="284" type="line"/>
    </contour>
  </outline>
</glyph>
<glyph name="ordmasculine" format="2">
  <advance width="280"/>
  <unicode hex="00BA"/>
  <note>
ordmasculine
</note>
  <outline>
    <contour>
      <point x="140" y="214" type="curve" smooth="yes"/>
      <point x="56" y="214"/>
      <point x="14" y="258"/>
      <point x="14" y="347" type="curve" smooth="yes"/>
      <point x="14" y="435"/>
      <point x="56" y="479"/>
      <point x="140" y="479" type="curve" smooth="yes"/>
      <point x="224" y="479"/>
      <point x="266" y="435"/>
      <point x="266" y="347" type="curve" smooth="yes"/>
      <point x="266" y="258"/>
      <point x="224" y="214"/>
    </contour>
    <contour>
      <point x="107" y="347" type="curve" smooth="yes"/>
      <point x="107" y="310"/>
      <point x="109" y="285"/>
      <point x="114" y="272" type="curve" smooth="yes"/>
      <point x="118" y="258"/>
      <point x="127" y="251"/>
      <point x="140" y="251" type="curve" smooth="yes"/>
      <point x="153" y="251"/>
      <point x="161" y="258"/>
      <point x="166" y="271" type="curve" smooth="yes"/>
      <point x="170" y="284"/>
      <point x="172" y="310"/>
      <point x="172" y="347" type="curve" smooth="yes"/>
      <point x="172" y="384"/>
      <point x="170" y="410"/>
      <point x="166" y="423" type="curve" smooth="yes"/>
      <point x="161" y="436"/>
      <point x="153" y="442"/>
      <point x="140" y="442" type="curve" smooth="yes"/>
      <point x="127" y="442"/>
      <point x="118" y="435"/>
      <point x="114" y="422" type="curve" smooth="yes"/>
      <point x="109" y="409"/>
      <point x="107" y="384"/>
    </contour>
    <contour>
      <point x="259" y="115" type="line"/>
      <point x="21" y="115" type="line"/>
      <point x="21" y="178" type="line"/>
      <point x="259" y="178" type="line"/>
    </contour>
  </outline>
</glyph>
<glyph name="guillemotright" format="2">
  <advance width="338"/>
  <unicode hex="00BB"/>
  <note>
guillemotright
</note>
  <outline>
    <contour>
      <point x="50" y="329" type="line"/>
      <point x="168" y="217" type="line"/>
      <point x="168" y="180" type="line"/>
      <point x="50" y="68" type="line"/>
      <point x="14" y="103" type="line"/>
      <point x="84" y="199" type="line"/>
      <point x="14" y="294" type="line"/>
    </contour>
    <contour>
      <point x="203" y="329" type="line"/>
      <point x="323" y="217" type="line"/>
      <point x="323" y="180" type="line"/>
      <point x="203" y="68" type="line"/>
      <point x="170" y="103" type="line"/>
      <point x="237" y="199" type="line"/>
      <point x="170" y="294" type="line"/>
    </contour>
  </outline>
</glyph>
<glyph name="onequarter" format="2">
  <advance width="653"/>
  <unicode hex="00BC"/>
  <note>
onequarter
</note>
  <outline>
    <contour>
      <point x="235" y="242" type="line"/>
      <point x="235" y="211" type="line"/>
      <point x="47" y="211" type="line"/>
      <point x="47" y="242" type="line"/>
      <point x="103" y="242" type="line"/>
      <point x="103" y="406" type="line"/>
      <point x="46" y="404" type="line"/>
      <point x="46" y="434" type="line"/>
      <point x="82" y="437"/>
      <point x="117" y="447"/>
      <point x="151" y="464" type="curve"/>
      <point x="185" y="464" type="line"/>
      <point x="185" y="242" type="line"/>
    </contour>
    <contour>
      <point x="294" y="0" type="line"/>
      <point x="249" y="0" type="line"/>
      <point x="371" y="460" type="line"/>
      <point x="417" y="460" type="line"/>
    </contour>
    <contour>
      <point x="599" y="40" type="line"/>
      <point x="599" y="0" type="line"/>
      <point x="518" y="0" type="line"/>
      <point x="518" y="40" type="line"/>
      <point x="389" y="40" type="line"/>
      <point x="389" y="91" type="line"/>
      <point x="476" y="253" type="line"/>
      <point x="599" y="253" type="line"/>
      <point x="599" y="101" type="line"/>
      <point x="619" y="101" type="line"/>
      <point x="619" y="40" type="line"/>
    </contour>
    <contour>
      <point x="518" y="222" type="line"/>
      <point x="454" y="101" type="line"/>
      <point x="518" y="101" type="line"/>
    </contour>
  </outline>
</glyph>
<glyph name="onehalf" format="2">
  <advance width="653"/>
  <unicode hex="00BD"/>
  <note>
onehalf
</note>
  <anchor x="-43" y="25" name="_Anchor5"/>
  <outline>
    <contour>
      <point x="246" y="242" type="line"/>
      <point x="246" y="211" type="line"/>
      <point x="58" y="211" type="line"/>
      <point x="58" y="242" type="line"/>
      <point x="113" y="242" type="line"/>
      <point x="113" y="406" type="line"/>
      <point x="57" y="404" type="line"/>
      <point x="57" y="434" type="line"/>
      <point x="93" y="437"/>
      <point x="128" y="447"/>
      <point x="162" y="464" type="curve"/>
      <point x="195" y="464" type="line"/>
      <point x="195" y="242" type="line"/>
    </contour>
    <contour>
      <point x="294" y="0" type="line"/>
      <point x="249" y="0" type="line"/>
      <point x="371" y="460" type="line"/>
      <point x="417" y="460" type="line"/>
    </contour>
    <contour>
      <point x="612" y="62" type="line"/>
      <point x="612" y="0" type="line"/>
      <point x="405" y="0" type="line"/>
      <point x="405" y="51" type="line"/>
      <point x="494" y="114" type="line" smooth="yes"/>
      <point x="556" y="160"/>
      <point x="528" y="225"/>
      <point x="508" y="225" type="curve" smooth="yes"/>
      <point x="498" y="225"/>
      <point x="491" y="220"/>
      <point x="487" y="211" type="curve" smooth="yes"/>
      <point x="482" y="201"/>
      <point x="479" y="184"/>
      <point x="478" y="161" type="curve"/>
      <point x="407" y="171" type="line"/>
      <point x="411" y="231"/>
      <point x="443" y="257"/>
      <point x="508" y="257" type="curve" smooth="yes"/>
      <point x="573" y="257"/>
      <point x="613" y="235"/>
      <point x="613" y="184" type="curve" smooth="yes"/>
      <point x="613" y="159"/>
      <point x="598" y="135"/>
      <point x="569" y="114" type="curve" smooth="yes"/>
      <point x="493" y="62" type="line"/>
    </contour>
  </outline>
</glyph>
<glyph name="threequarters" format="2">
  <advance width="653"/>
  <unicode hex="00BE"/>
  <note>
threequarters
</note>
  <outline>
    <contour>
      <point x="247" y="405" type="curve" smooth="yes"/>
      <point x="247" y="367"/>
      <point x="223" y="344"/>
      <point x="174" y="337" type="curve"/>
      <point x="225" y="329"/>
      <point x="250" y="308"/>
      <point x="250" y="274" type="curve" smooth="yes"/>
      <point x="250" y="237"/>
      <point x="209" y="205"/>
      <point x="141" y="205" type="curve" smooth="yes"/>
      <point x="72" y="205"/>
      <point x="41" y="225"/>
      <point x="37" y="281" type="curve"/>
      <point x="109" y="291" type="line"/>
      <point x="110" y="256"/>
      <point x="120" y="239"/>
      <point x="140" y="239" type="curve" smooth="yes"/>
      <point x="160" y="239"/>
      <point x="170" y="251"/>
      <point x="170" y="274" type="curve" smooth="yes"/>
      <point x="170" y="289"/>
      <point x="168" y="299"/>
      <point x="163" y="304" type="curve" smooth="yes"/>
      <point x="154" y="315"/>
      <point x="153" y="315"/>
      <point x="137" y="318" type="curve" smooth="yes"/>
      <point x="135" y="318"/>
      <point x="132" y="318"/>
      <point x="127" y="318" type="curve" smooth="yes"/>
      <point x="119" y="317" type="line"/>
      <point x="99" y="317" type="line"/>
      <point x="99" y="355" type="line"/>
      <point x="120" y="355" type="line" smooth="yes"/>
      <point x="160" y="355"/>
      <point x="165" y="368"/>
      <point x="165" y="400" type="curve" smooth="yes"/>
      <point x="165" y="432"/>
      <point x="159" y="436"/>
      <point x="140" y="436" type="curve" smooth="yes"/>
      <point x="124" y="436"/>
      <point x="115" y="417"/>
      <point x="113" y="380" type="curve"/>
      <point x="41" y="389" type="line"/>
      <point x="46" y="448"/>
      <point x="77" y="468"/>
      <point x="142" y="468" type="curve" smooth="yes"/>
      <point x="207" y="468"/>
      <point x="247" y="442"/>
    </contour>
    <contour>
      <point x="294" y="0" type="line"/>
      <point x="249" y="0" type="line"/>
      <point x="371" y="460" type="line"/>
      <point x="417" y="460" type="line"/>
    </contour>
    <contour>
      <point x="599" y="40" type="line"/>
      <point x="599" y="0" type="line"/>
      <point x="518" y="0" type="line"/>
      <point x="518" y="40" type="line"/>
      <point x="389" y="40" type="line"/>
      <point x="389" y="91" type="line"/>
      <point x="476" y="253" type="line"/>
      <point x="599" y="253" type="line"/>
      <point x="599" y="101" type="line"/>
      <point x="619" y="101" type="line"/>
      <point x="619" y="40" type="line"/>
    </contour>
    <contour>
      <point x="518" y="222" type="line"/>
      <point x="454" y="101" type="line"/>
      <point x="518" y="101" type="line"/>
    </contour>
  </outline>
</glyph>
<glyph name="questiondown" format="2">
  <advance width="320"/>
  <unicode hex="00BF"/>
  <note>
questiondown
</note>
  <outline>
    <contour>
      <point x="172" y="370" type="curve" smooth="yes"/>
      <point x="204" y="370"/>
      <point x="230" y="343"/>
      <point x="230" y="310" type="curve" smooth="yes"/>
      <point x="230" y="277"/>
      <point x="205" y="251"/>
      <point x="173" y="251" type="curve" smooth="yes"/>
      <point x="140" y="251"/>
      <point x="113" y="278"/>
      <point x="113" y="311" type="curve" smooth="yes"/>
      <point x="113" y="343"/>
      <point x="140" y="370"/>
    </contour>
    <contour>
      <point x="305" y="27" type="line"/>
      <point x="300" y="-60"/>
      <point x="251" y="-104"/>
      <point x="158" y="-104" type="curve" smooth="yes"/>
      <point x="59" y="-104"/>
      <point x="5" y="-48"/>
      <point x="5" y="21" type="curve" smooth="yes"/>
      <point x="5" y="90"/>
      <point x="57" y="137"/>
      <point x="132" y="157" type="curve"/>
      <point x="140" y="222" type="line"/>
      <point x="208" y="222" type="line"/>
      <point x="215" y="157" type="line"/>
      <point x="138" y="121"/>
      <point x="113" y="75"/>
      <point x="113" y="12" type="curve" smooth="yes"/>
      <point x="113" y="-52"/>
      <point x="127" y="-60"/>
      <point x="158" y="-60" type="curve" smooth="yes"/>
      <point x="191" y="-60"/>
      <point x="208" y="-27"/>
      <point x="210" y="39" type="curve"/>
    </contour>
  </outline>
</glyph>
<glyph name="Agrave" format="2">
  <advance width="421"/>
  <unicode hex="00C0"/>
  <note>
Agrave
</note>
  <outline>
    <contour>
      <point x="110" y="580" type="line"/>
      <point x="174" y="653" type="line"/>
      <point x="259" y="519" type="line"/>
      <point x="238" y="494" type="line"/>
    </contour>
    <contour>
      <point x="106" y="127" type="line"/>
      <point x="68" y="0" type="line"/>
      <point x="5" y="0" type="line"/>
      <point x="145" y="460" type="line"/>
      <point x="276" y="460" type="line"/>
      <point x="418" y="0" type="line"/>
      <point x="309" y="0" type="line"/>
      <point x="271" y="127" type="line"/>
    </contour>
    <contour>
      <point x="189" y="404" type="line"/>
      <point x="122" y="181" type="line"/>
      <point x="255" y="181" type="line"/>
    </contour>
  </outline>
</glyph>
<glyph name="Acircumflex" format="2">
  <advance width="421"/>
  <unicode hex="00C2"/>
  <note>
Acircumflex
</note>
  <outline>
    <contour>
      <point x="112" y="516" type="line"/>
      <point x="185" y="635" type="line"/>
      <point x="237" y="635" type="line"/>
      <point x="309" y="516" type="line"/>
      <point x="279" y="491" type="line"/>
      <point x="210" y="552" type="line"/>
      <point x="142" y="491" type="line"/>
    </contour>
    <contour>
      <point x="106" y="127" type="line"/>
      <point x="68" y="0" type="line"/>
      <point x="5" y="0" type="line"/>
      <point x="145" y="460" type="line"/>
      <point x="276" y="460" type="line"/>
      <point x="418" y="0" type="line"/>
      <point x="309" y="0" type="line"/>
      <point x="271" y="127" type="line"/>
    </contour>
    <contour>
      <point x="189" y="404" type="line"/>
      <point x="122" y="181" type="line"/>
      <point x="255" y="181" type="line"/>
    </contour>
  </outline>
</glyph>
<glyph name="Atilde" format="2">
  <advance width="421"/>
  <unicode hex="00C3"/>
  <note>
Atilde
</note>
  <outline>
    <contour>
      <point x="165" y="536" type="curve" smooth="yes"/>
      <point x="147" y="536"/>
      <point x="135" y="526"/>
      <point x="128" y="506" type="curve"/>
      <point x="94" y="518" type="line"/>
      <point x="101" y="579"/>
      <point x="123" y="609"/>
      <point x="161" y="609" type="curve" smooth="yes"/>
      <point x="176" y="609"/>
      <point x="194" y="605"/>
      <point x="213" y="597" type="curve" smooth="yes"/>
      <point x="232" y="589"/>
      <point x="246" y="585"/>
      <point x="255" y="585" type="curve" smooth="yes"/>
      <point x="274" y="585"/>
      <point x="286" y="594"/>
      <point x="292" y="613" type="curve"/>
      <point x="327" y="601" type="line"/>
      <point x="319" y="540"/>
      <point x="291" y="513"/>
      <point x="259" y="513" type="curve" smooth="yes"/>
      <point x="218" y="513"/>
      <point x="191" y="536"/>
    </contour>
    <contour>
      <point x="106" y="127" type="line"/>
      <point x="68" y="0" type="line"/>
      <point x="5" y="0" type="line"/>
      <point x="145" y="460" type="line"/>
      <point x="276" y="460" type="line"/>
      <point x="418" y="0" type="line"/>
      <point x="309" y="0" type="line"/>
      <point x="271" y="127" type="line"/>
    </contour>
    <contour>
      <point x="189" y="404" type="line"/>
      <point x="122" y="181" type="line"/>
      <point x="255" y="181" type="line"/>
    </contour>
  </outline>
</glyph>
<glyph name="Adieresis" format="2">
  <advance width="421"/>
  <unicode hex="00C4"/>
  <note>
Adieresis
</note>
  <outline>
    <contour>
      <point x="131" y="499" type="curve" smooth="yes"/>
      <point x="98" y="499"/>
      <point x="72" y="526"/>
      <point x="72" y="559" type="curve" smooth="yes"/>
      <point x="72" y="591"/>
      <point x="98" y="618"/>
      <point x="131" y="618" type="curve" smooth="yes"/>
      <point x="163" y="618"/>
      <point x="190" y="591"/>
      <point x="190" y="559" type="curve" smooth="yes"/>
      <point x="190" y="526"/>
      <point x="163" y="499"/>
    </contour>
    <contour>
      <point x="291" y="499" type="curve" smooth="yes"/>
      <point x="258" y="499"/>
      <point x="231" y="527"/>
      <point x="231" y="559" type="curve" smooth="yes"/>
      <point x="231" y="591"/>
      <point x="258" y="618"/>
      <point x="291" y="618" type="curve" smooth="yes"/>
      <point x="323" y="618"/>
      <point x="350" y="591"/>
      <point x="350" y="559" type="curve" smooth="yes"/>
      <point x="350" y="526"/>
      <point x="323" y="499"/>
    </contour>
    <contour>
      <point x="106" y="127" type="line"/>
      <point x="68" y="0" type="line"/>
      <point x="5" y="0" type="line"/>
      <point x="145" y="460" type="line"/>
      <point x="276" y="460" type="line"/>
      <point x="418" y="0" type="line"/>
      <point x="309" y="0" type="line"/>
      <point x="271" y="127" type="line"/>
    </contour>
    <contour>
      <point x="189" y="404" type="line"/>
      <point x="122" y="181" type="line"/>
      <point x="255" y="181" type="line"/>
    </contour>
  </outline>
</glyph>
<glyph name="Aring" format="2">
  <advance width="421"/>
  <unicode hex="00C5"/>
  <note>
Aring
</note>
  <outline>
    <contour>
      <point x="288" y="563" type="curve" smooth="yes"/>
      <point x="288" y="512"/>
      <point x="262" y="486"/>
      <point x="211" y="486" type="curve"/>
      <point x="133" y="613"/>
      <point x="159" y="638"/>
      <point x="210" y="638" type="curve" smooth="yes"/>
      <point x="269" y="638"/>
      <point x="288" y="603"/>
    </contour>
    <contour>
      <point x="106" y="127" type="line"/>
      <point x="68" y="0" type="line"/>
      <point x="5" y="0" type="line"/>
      <point x="145" y="460" type="line"/>
      <point x="276" y="460" type="line"/>
      <point x="418" y="0" type="line"/>
      <point x="309" y="0" type="line"/>
      <point x="271" y="127" type="line"/>
    </contour>
    <contour>
      <point x="189" y="404" type="line"/>
      <point x="122" y="181" type="line"/>
      <point x="255" y="181" type="line"/>
    </contour>
  </outline>
</glyph>
<glyph name="AE" format="2">
  <advance width="603"/>
  <unicode hex="00C6"/>
  <note>
AE
</note>
  <outline>
    <contour>
      <point x="588" y="0" type="line"/>
      <point x="302" y="0" type="line"/>
      <point x="302" y="194" type="line"/>
      <point x="155" y="194" type="line"/>
      <point x="75" y="0" type="line"/>
      <point x="10" y="0" type="line"/>
      <point x="203" y="460" type="line"/>
      <point x="575" y="460" type="line"/>
      <point x="575" y="406" type="line"/>
      <point x="416" y="406" type="line"/>
      <point x="416" y="248" type="line"/>
      <point x="558" y="248" type="line"/>
      <point x="558" y="194" type="line"/>
      <point x="416" y="194" type="line"/>
      <point x="416" y="54" type="line"/>
      <point x="588" y="54" type="line"/>
    </contour>
    <contour>
      <point x="302" y="406" type="line"/>
      <point x="241" y="406" type="line"/>
      <point x="176" y="248" type="line"/>
      <point x="302" y="248" type="line"/>
    </contour>
  </outline>
</glyph>
<glyph name="Ccedilla" format="2">
  <advance width="387"/>
  <unicode hex="00C7"/>
  <note>
Ccedilla
</note>
  <outline>
    <contour>
      <point x="383" y="154" type="line"/>
      <point x="375" y="46"/>
      <point x="342" y="-6"/>
      <point x="230" y="-9" type="curve"/>
      <point x="224" y="-24" type="line"/>
      <point x="269" y="-31"/>
      <point x="292" y="-52"/>
      <point x="292" y="-88" type="curve" smooth="yes"/>
      <point x="292" y="-128"/>
      <point x="268" y="-158"/>
      <point x="213" y="-158" type="curve" smooth="yes"/>
      <point x="161" y="-158"/>
      <point x="135" y="-136"/>
      <point x="135" y="-92" type="curve"/>
      <point x="194" y="-85" type="line"/>
      <point x="194" y="-108"/>
      <point x="203" y="-122"/>
      <point x="212" y="-122" type="curve" smooth="yes"/>
      <point x="233" y="-122"/>
      <point x="234" y="-87"/>
      <point x="217" y="-72" type="curve" smooth="yes"/>
      <point x="209" y="-65"/>
      <point x="194" y="-60"/>
      <point x="172" y="-56" type="curve"/>
      <point x="185" y="-7" type="line"/>
      <point x="66" y="5"/>
      <point x="25" y="78"/>
      <point x="25" y="235" type="curve" smooth="yes"/>
      <point x="25" y="392"/>
      <point x="74" y="469"/>
      <point x="221" y="469" type="curve" smooth="yes"/>
      <point x="333" y="469"/>
      <point x="373" y="424"/>
      <point x="382" y="335" type="curve"/>
      <point x="292" y="321" type="line"/>
      <point x="287" y="389"/>
      <point x="271" y="422"/>
      <point x="216" y="422" type="curve" smooth="yes"/>
      <point x="188" y="422"/>
      <point x="168" y="408"/>
      <point x="156" y="380" type="curve" smooth="yes"/>
      <point x="144" y="351"/>
      <point x="138" y="302"/>
      <point x="138" y="231" type="curve" smooth="yes"/>
      <point x="138" y="160"/>
      <point x="144" y="110"/>
      <point x="156" y="81" type="curve" smooth="yes"/>
      <point x="168" y="52"/>
      <point x="189" y="38"/>
      <point x="218" y="38" type="curve" smooth="yes"/>
      <point x="276" y="38"/>
      <point x="292" y="78"/>
      <point x="292" y="158" type="curve"/>
    </contour>
  </outline>
</glyph>
<glyph name="Egrave" format="2">
  <advance width="353"/>
  <unicode hex="00C8"/>
  <note>
Egrave
</note>
  <outline>
    <contour>
      <point x="88" y="580" type="line"/>
      <point x="152" y="653" type="line"/>
      <point x="238" y="519" type="line"/>
      <point x="216" y="494" type="line"/>
    </contour>
    <contour>
      <point x="338" y="0" type="line"/>
      <point x="52" y="0" type="line"/>
      <point x="52" y="460" type="line"/>
      <point x="326" y="460" type="line"/>
      <point x="326" y="406" type="line"/>
      <point x="165" y="406" type="line"/>
      <point x="165" y="261" type="line"/>
      <point x="308" y="261" type="line"/>
      <point x="308" y="207" type="line"/>
      <point x="165" y="207" type="line"/>
      <point x="165" y="54" type="line"/>
      <point x="338" y="54" type="line"/>
    </contour>
  </outline>
</glyph>
<glyph name="Eacute" format="2">
  <advance width="353"/>
  <unicode hex="00C9"/>
  <note>
Eacute
</note>
  <outline>
    <contour>
      <point x="139" y="519" type="line"/>
      <point x="224" y="653" type="line"/>
      <point x="288" y="580" type="line"/>
      <point x="160" y="494" type="line"/>
    </contour>
    <contour>
      <point x="338" y="0" type="line"/>
      <point x="52" y="0" type="line"/>
      <point x="52" y="460" type="line"/>
      <point x="326" y="460" type="line"/>
      <point x="326" y="406" type="line"/>
      <point x="165" y="406" type="line"/>
      <point x="165" y="261" type="line"/>
      <point x="308" y="261" type="line"/>
      <point x="308" y="207" type="line"/>
      <point x="165" y="207" type="line"/>
      <point x="165" y="54" type="line"/>
      <point x="338" y="54" type="line"/>
    </contour>
  </outline>
</glyph>
<glyph name="Ecircumflex" format="2">
  <advance width="353"/>
  <unicode hex="00CA"/>
  <note>
Ecircumflex
</note>
  <outline>
    <contour>
      <point x="90" y="516" type="line"/>
      <point x="164" y="635" type="line"/>
      <point x="215" y="635" type="line"/>
      <point x="287" y="516" type="line"/>
      <point x="257" y="491" type="line"/>
      <point x="188" y="552" type="line"/>
      <point x="121" y="491" type="line"/>
    </contour>
    <contour>
      <point x="338" y="0" type="line"/>
      <point x="52" y="0" type="line"/>
      <point x="52" y="460" type="line"/>
      <point x="326" y="460" type="line"/>
      <point x="326" y="406" type="line"/>
      <point x="165" y="406" type="line"/>
      <point x="165" y="261" type="line"/>
      <point x="308" y="261" type="line"/>
      <point x="308" y="207" type="line"/>
      <point x="165" y="207" type="line"/>
      <point x="165" y="54" type="line"/>
      <point x="338" y="54" type="line"/>
    </contour>
  </outline>
</glyph>
<glyph name="Edieresis" format="2">
  <advance width="353"/>
  <unicode hex="00CB"/>
  <note>
Edieresis
</note>
  <outline>
    <contour>
      <point x="109" y="499" type="curve" smooth="yes"/>
      <point x="77" y="499"/>
      <point x="50" y="526"/>
      <point x="50" y="559" type="curve" smooth="yes"/>
      <point x="50" y="591"/>
      <point x="76" y="618"/>
      <point x="109" y="618" type="curve" smooth="yes"/>
      <point x="141" y="618"/>
      <point x="168" y="591"/>
      <point x="168" y="559" type="curve" smooth="yes"/>
      <point x="168" y="526"/>
      <point x="141" y="499"/>
    </contour>
    <contour>
      <point x="269" y="499" type="curve" smooth="yes"/>
      <point x="237" y="499"/>
      <point x="210" y="527"/>
      <point x="210" y="559" type="curve" smooth="yes"/>
      <point x="210" y="591"/>
      <point x="237" y="618"/>
      <point x="269" y="618" type="curve" smooth="yes"/>
      <point x="301" y="618"/>
      <point x="329" y="591"/>
      <point x="329" y="559" type="curve" smooth="yes"/>
      <point x="329" y="526"/>
      <point x="301" y="499"/>
    </contour>
    <contour>
      <point x="338" y="0" type="line"/>
      <point x="52" y="0" type="line"/>
      <point x="52" y="460" type="line"/>
      <point x="326" y="460" type="line"/>
      <point x="326" y="406" type="line"/>
      <point x="165" y="406" type="line"/>
      <point x="165" y="261" type="line"/>
      <point x="308" y="261" type="line"/>
      <point x="308" y="207" type="line"/>
      <point x="165" y="207" type="line"/>
      <point x="165" y="54" type="line"/>
      <point x="338" y="54" type="line"/>
    </contour>
  </outline>
</glyph>
<glyph name="Igrave" format="2">
  <advance width="217"/>
  <unicode hex="00CC"/>
  <note>
Igrave
</note>
  <outline>
    <contour>
      <point x="8" y="580" type="line"/>
      <point x="72" y="653" type="line"/>
      <point x="158" y="519" type="line"/>
      <point x="136" y="494" type="line"/>
    </contour>
    <contour>
      <point x="52" y="0" type="line"/>
      <point x="52" y="460" type="line"/>
      <point x="165" y="460" type="line"/>
      <point x="165" y="0" type="line"/>
    </contour>
  </outline>
</glyph>
<glyph name="Iacute" format="2">
  <advance width="217"/>
  <unicode hex="00CD"/>
  <note>
Iacute
</note>
  <outline>
    <contour>
      <point x="208" y="580" type="line"/>
      <point x="80" y="494" type="line"/>
      <point x="59" y="519" type="line"/>
      <point x="144" y="653" type="line"/>
    </contour>
    <contour>
      <point x="52" y="0" type="line"/>
      <point x="52" y="460" type="line"/>
      <point x="165" y="460" type="line"/>
      <point x="165" y="0" type="line"/>
    </contour>
  </outline>
</glyph>
<glyph name="Icircumflex" format="2">
  <advance width="217"/>
  <unicode hex="00CE"/>
  <note>
Icircumflex
</note>
  <outline>
    <contour>
      <point x="135" y="635" type="line"/>
      <point x="207" y="516" type="line"/>
      <point x="177" y="491" type="line"/>
      <point x="108" y="552" type="line"/>
      <point x="41" y="491" type="line"/>
      <point x="10" y="516" type="line"/>
      <point x="84" y="635" type="line"/>
    </contour>
    <contour>
      <point x="52" y="0" type="line"/>
      <point x="52" y="460" type="line"/>
      <point x="165" y="460" type="line"/>
      <point x="165" y="0" type="line"/>
    </contour>
  </outline>
</glyph>
<glyph name="Idieresis" format="2">
  <advance width="217"/>
  <unicode hex="00CF"/>
  <note>
Idieresis
</note>
  <outline>
    <contour>
      <point x="29" y="499" type="curve" smooth="yes"/>
      <point x="-4" y="499"/>
      <point x="-30" y="526"/>
      <point x="-30" y="559" type="curve" smooth="yes"/>
      <point x="-30" y="591"/>
      <point x="-4" y="618"/>
      <point x="29" y="618" type="curve" smooth="yes"/>
      <point x="61" y="618"/>
      <point x="88" y="591"/>
      <point x="88" y="559" type="curve" smooth="yes"/>
      <point x="88" y="526"/>
      <point x="61" y="499"/>
    </contour>
    <contour>
      <point x="189" y="499" type="curve" smooth="yes"/>
      <point x="157" y="499"/>
      <point x="130" y="527"/>
      <point x="130" y="559" type="curve" smooth="yes"/>
      <point x="130" y="591"/>
      <point x="157" y="618"/>
      <point x="189" y="618" type="curve" smooth="yes"/>
      <point x="221" y="618"/>
      <point x="248" y="591"/>
      <point x="248" y="559" type="curve" smooth="yes"/>
      <point x="248" y="526"/>
      <point x="221" y="499"/>
    </contour>
    <contour>
      <point x="52" y="0" type="line"/>
      <point x="52" y="460" type="line"/>
      <point x="165" y="460" type="line"/>
      <point x="165" y="0" type="line"/>
    </contour>
  </outline>
</glyph>
<glyph name="Ntilde" format="2">
  <advance width="480"/>
  <unicode hex="00D1"/>
  <note>
Ntilde
</note>
  <outline>
    <contour>
      <point x="194" y="536" type="curve" smooth="yes"/>
      <point x="177" y="536"/>
      <point x="164" y="526"/>
      <point x="157" y="506" type="curve"/>
      <point x="122" y="518" type="line"/>
      <point x="130" y="579"/>
      <point x="153" y="609"/>
      <point x="190" y="609" type="curve" smooth="yes"/>
      <point x="205" y="609"/>
      <point x="223" y="605"/>
      <point x="242" y="597" type="curve" smooth="yes"/>
      <point x="261" y="589"/>
      <point x="275" y="585"/>
      <point x="284" y="585" type="curve" smooth="yes"/>
      <point x="303" y="585"/>
      <point x="315" y="594"/>
      <point x="320" y="613" type="curve"/>
      <point x="356" y="601" type="line"/>
      <point x="348" y="540"/>
      <point x="320" y="513"/>
      <point x="288" y="513" type="curve" smooth="yes"/>
      <point x="247" y="513"/>
      <point x="220" y="536"/>
    </contour>
    <contour>
      <point x="428" y="0" type="line"/>
      <point x="310" y="0" type="line"/>
      <point x="117" y="342" type="line"/>
      <point x="117" y="0" type="line"/>
      <point x="50" y="0" type="line"/>
      <point x="50" y="460" type="line"/>
      <point x="168" y="460" type="line"/>
      <point x="361" y="118" type="line"/>
      <point x="361" y="460" type="line"/>
      <point x="428" y="460" type="line"/>
    </contour>
  </outline>
</glyph>
<glyph name="Ocircumflex" format="2">
  <advance width="439"/>
  <unicode hex="00D4"/>
  <note>
Ocircumflex
</note>
  <outline>
    <contour>
      <point x="247" y="635" type="line"/>
      <point x="319" y="516" type="line"/>
      <point x="289" y="491" type="line"/>
      <point x="220" y="552" type="line"/>
      <point x="152" y="491" type="line"/>
      <point x="122" y="516" type="line"/>
      <point x="195" y="635" type="line"/>
    </contour>
    <contour>
      <point x="220" y="-9" type="curve" smooth="yes"/>
      <point x="181" y="-9"/>
      <point x="149" y="-3"/>
      <point x="122" y="8" type="curve" smooth="yes"/>
      <point x="57" y="37"/>
      <point x="25" y="111"/>
      <point x="25" y="230" type="curve" smooth="yes"/>
      <point x="25" y="300"/>
      <point x="37" y="356"/>
      <point x="62" y="398" type="curve" smooth="yes"/>
      <point x="90" y="445"/>
      <point x="143" y="469"/>
      <point x="220" y="469" type="curve" smooth="yes"/>
      <point x="365" y="469"/>
      <point x="414" y="380"/>
      <point x="414" y="229" type="curve" smooth="yes"/>
      <point x="414" y="78"/>
      <point x="365" y="-9"/>
    </contour>
    <contour>
      <point x="138" y="230" type="curve" smooth="yes"/>
      <point x="138" y="151"/>
      <point x="144" y="100"/>
      <point x="169" y="64" type="curve" smooth="yes"/>
      <point x="182" y="45"/>
      <point x="199" y="36"/>
      <point x="220" y="36" type="curve" smooth="yes"/>
      <point x="275" y="36"/>
      <point x="302" y="101"/>
      <point x="302" y="230" type="curve" smooth="yes"/>
      <point x="302" y="359"/>
      <point x="275" y="424"/>
      <point x="220" y="424" type="curve" smooth="yes"/>
      <point x="177" y="424"/>
      <point x="152" y="382"/>
      <point x="144" y="329" type="curve" smooth="yes"/>
      <point x="140" y="302"/>
      <point x="138" y="269"/>
    </contour>
  </outline>
</glyph>
<glyph name="Otilde" format="2">
  <advance width="439"/>
  <unicode hex="00D5"/>
  <note>
Otilde
</note>
  <outline>
    <contour>
      <point x="337" y="601" type="line"/>
      <point x="329" y="540"/>
      <point x="301" y="513"/>
      <point x="269" y="513" type="curve" smooth="yes"/>
      <point x="228" y="513"/>
      <point x="201" y="536"/>
      <point x="175" y="536" type="curve" smooth="yes"/>
      <point x="157" y="536"/>
      <point x="145" y="526"/>
      <point x="138" y="506" type="curve"/>
      <point x="104" y="518" type="line"/>
      <point x="111" y="579"/>
      <point x="133" y="609"/>
      <point x="171" y="609" type="curve" smooth="yes"/>
      <point x="186" y="609"/>
      <point x="204" y="605"/>
      <point x="223" y="597" type="curve" smooth="yes"/>
      <point x="242" y="589"/>
      <point x="256" y="585"/>
      <point x="265" y="585" type="curve" smooth="yes"/>
      <point x="284" y="585"/>
      <point x="296" y="594"/>
      <point x="302" y="613" type="curve"/>
    </contour>
    <contour>
      <point x="220" y="-9" type="curve" smooth="yes"/>
      <point x="181" y="-9"/>
      <point x="149" y="-3"/>
      <point x="122" y="8" type="curve" smooth="yes"/>
      <point x="57" y="37"/>
      <point x="25" y="111"/>
      <point x="25" y="230" type="curve" smooth="yes"/>
      <point x="25" y="300"/>
      <point x="37" y="356"/>
      <point x="62" y="398" type="curve" smooth="yes"/>
      <point x="90" y="445"/>
      <point x="143" y="469"/>
      <point x="220" y="469" type="curve" smooth="yes"/>
      <point x="365" y="469"/>
      <point x="414" y="380"/>
      <point x="414" y="229" type="curve" smooth="yes"/>
      <point x="414" y="78"/>
      <point x="365" y="-9"/>
    </contour>
    <contour>
      <point x="138" y="230" type="curve" smooth="yes"/>
      <point x="138" y="151"/>
      <point x="144" y="100"/>
      <point x="169" y="64" type="curve" smooth="yes"/>
      <point x="182" y="45"/>
      <point x="199" y="36"/>
      <point x="220" y="36" type="curve" smooth="yes"/>
      <point x="275" y="36"/>
      <point x="302" y="101"/>
      <point x="302" y="230" type="curve" smooth="yes"/>
      <point x="302" y="359"/>
      <point x="275" y="424"/>
      <point x="220" y="424" type="curve" smooth="yes"/>
      <point x="177" y="424"/>
      <point x="152" y="382"/>
      <point x="144" y="329" type="curve" smooth="yes"/>
      <point x="140" y="302"/>
      <point x="138" y="269"/>
    </contour>
  </outline>
</glyph>
<glyph name="Odieresis" format="2">
  <advance width="439"/>
  <unicode hex="00D6"/>
  <note>
Odieresis
</note>
  <outline>
    <contour>
      <point x="140" y="499" type="curve" smooth="yes"/>
      <point x="107" y="499"/>
      <point x="81" y="526"/>
      <point x="81" y="559" type="curve" smooth="yes"/>
      <point x="81" y="591"/>
      <point x="107" y="618"/>
      <point x="140" y="618" type="curve" smooth="yes"/>
      <point x="172" y="618"/>
      <point x="199" y="591"/>
      <point x="199" y="559" type="curve" smooth="yes"/>
      <point x="199" y="526"/>
      <point x="172" y="499"/>
    </contour>
    <contour>
      <point x="300" y="499" type="curve" smooth="yes"/>
      <point x="267" y="499"/>
      <point x="240" y="527"/>
      <point x="240" y="559" type="curve" smooth="yes"/>
      <point x="240" y="591"/>
      <point x="267" y="618"/>
      <point x="300" y="618" type="curve" smooth="yes"/>
      <point x="332" y="618"/>
      <point x="359" y="591"/>
      <point x="359" y="559" type="curve" smooth="yes"/>
      <point x="359" y="526"/>
      <point x="332" y="499"/>
    </contour>
    <contour>
      <point x="220" y="-9" type="curve" smooth="yes"/>
      <point x="181" y="-9"/>
      <point x="149" y="-3"/>
      <point x="122" y="8" type="curve" smooth="yes"/>
      <point x="57" y="37"/>
      <point x="25" y="111"/>
      <point x="25" y="230" type="curve" smooth="yes"/>
      <point x="25" y="300"/>
      <point x="37" y="356"/>
      <point x="62" y="398" type="curve" smooth="yes"/>
      <point x="90" y="445"/>
      <point x="143" y="469"/>
      <point x="220" y="469" type="curve" smooth="yes"/>
      <point x="365" y="469"/>
      <point x="414" y="380"/>
      <point x="414" y="229" type="curve" smooth="yes"/>
      <point x="414" y="78"/>
      <point x="365" y="-9"/>
    </contour>
    <contour>
      <point x="138" y="230" type="curve" smooth="yes"/>
      <point x="138" y="151"/>
      <point x="144" y="100"/>
      <point x="169" y="64" type="curve" smooth="yes"/>
      <point x="182" y="45"/>
      <point x="199" y="36"/>
      <point x="220" y="36" type="curve" smooth="yes"/>
      <point x="275" y="36"/>
      <point x="302" y="101"/>
      <point x="302" y="230" type="curve" smooth="yes"/>
      <point x="302" y="359"/>
      <point x="275" y="424"/>
      <point x="220" y="424" type="curve" smooth="yes"/>
      <point x="177" y="424"/>
      <point x="152" y="382"/>
      <point x="144" y="329" type="curve" smooth="yes"/>
      <point x="140" y="302"/>
      <point x="138" y="269"/>
    </contour>
  </outline>
</glyph>
<glyph name="multiply" format="2">
  <advance width="365"/>
  <unicode hex="00D7"/>
  <note>
multiply
</note>
  <outline>
    <contour>
      <point x="53" y="279" type="line"/>
      <point x="103" y="330" type="line"/>
      <point x="183" y="251" type="line"/>
      <point x="262" y="330" type="line"/>
      <point x="312" y="279" type="line"/>
      <point x="234" y="201" type="line"/>
      <point x="312" y="122" type="line"/>
      <point x="262" y="70" type="line"/>
      <point x="183" y="149" type="line"/>
      <point x="103" y="70" type="line"/>
      <point x="53" y="122" type="line"/>
      <point x="131" y="201" type="line"/>
    </contour>
  </outline>
</glyph>
<glyph name="Oslash" format="2">
  <advance width="439"/>
  <unicode hex="00D8"/>
  <note>
Oslash
</note>
  <outline>
    <contour>
      <point x="295" y="458" type="line"/>
      <point x="383" y="430"/>
      <point x="414" y="354"/>
      <point x="414" y="218" type="curve" smooth="yes"/>
      <point x="414" y="82"/>
      <point x="365" y="-9"/>
      <point x="220" y="-9" type="curve"/>
      <point x="187" y="-7" type="line"/>
      <point x="181" y="-35" type="line"/>
      <point x="136" y="-35" type="line"/>
      <point x="144" y="1" type="line"/>
      <point x="56" y="29"/>
      <point x="25" y="106"/>
      <point x="25" y="237" type="curve" smooth="yes"/>
      <point x="25" y="302"/>
      <point x="37" y="356"/>
      <point x="62" y="398" type="curve" smooth="yes"/>
      <point x="90" y="445"/>
      <point x="143" y="469"/>
      <point x="220" y="469" type="curve"/>
      <point x="251" y="467" type="line"/>
      <point x="257" y="494" type="line"/>
      <point x="303" y="494" type="line"/>
    </contour>
    <contour>
      <point x="220" y="424" type="curve" smooth="yes"/>
      <point x="177" y="424"/>
      <point x="152" y="382"/>
      <point x="144" y="329" type="curve" smooth="yes"/>
      <point x="136" y="272"/>
      <point x="130" y="136"/>
      <point x="161" y="75" type="curve"/>
      <point x="240" y="420" type="line"/>
      <point x="235" y="423"/>
      <point x="228" y="424"/>
    </contour>
    <contour>
      <point x="198" y="40" type="line"/>
      <point x="203" y="37"/>
      <point x="211" y="36"/>
      <point x="220" y="36" type="curve" smooth="yes"/>
      <point x="275" y="36"/>
      <point x="302" y="101"/>
      <point x="302" y="230" type="curve" smooth="yes"/>
      <point x="302" y="301"/>
      <point x="294" y="353"/>
      <point x="278" y="384" type="curve"/>
    </contour>
  </outline>
</glyph>
<glyph name="Ucircumflex" format="2">
  <advance width="446"/>
  <unicode hex="00DB"/>
  <note>
Ucircumflex
</note>
  <outline>
    <contour>
      <point x="256" y="635" type="line"/>
      <point x="328" y="516" type="line"/>
      <point x="298" y="491" type="line"/>
      <point x="229" y="552" type="line"/>
      <point x="161" y="491" type="line"/>
      <point x="131" y="516" type="line"/>
      <point x="204" y="635" type="line"/>
    </contour>
    <contour>
      <point x="403" y="152" type="line" smooth="yes"/>
      <point x="403" y="91"/>
      <point x="383" y="48"/>
      <point x="344" y="23" type="curve" smooth="yes"/>
      <point x="310" y="2"/>
      <point x="272" y="-9"/>
      <point x="230" y="-9" type="curve" smooth="yes"/>
      <point x="105" y="-9"/>
      <point x="43" y="45"/>
      <point x="43" y="152" type="curve" smooth="yes"/>
      <point x="43" y="460" type="line"/>
      <point x="156" y="460" type="line"/>
      <point x="156" y="152" type="line" smooth="yes"/>
      <point x="156" y="81"/>
      <point x="183" y="46"/>
      <point x="237" y="46" type="curve" smooth="yes"/>
      <point x="296" y="46"/>
      <point x="337" y="79"/>
      <point x="337" y="152" type="curve" smooth="yes"/>
      <point x="337" y="460" type="line"/>
      <point x="403" y="460" type="line"/>
    </contour>
  </outline>
</glyph>
<glyph name="Udieresis" format="2">
  <advance width="446"/>
  <unicode hex="00DC"/>
  <note>
Udieresis
</note>
  <outline>
    <contour>
      <point x="150" y="499" type="curve" smooth="yes"/>
      <point x="117" y="499"/>
      <point x="91" y="526"/>
      <point x="91" y="559" type="curve" smooth="yes"/>
      <point x="91" y="591"/>
      <point x="116" y="618"/>
      <point x="149" y="618" type="curve" smooth="yes"/>
      <point x="182" y="618"/>
      <point x="209" y="591"/>
      <point x="209" y="559" type="curve" smooth="yes"/>
      <point x="209" y="526"/>
      <point x="182" y="499"/>
    </contour>
    <contour>
      <point x="310" y="499" type="curve" smooth="yes"/>
      <point x="277" y="499"/>
      <point x="250" y="527"/>
      <point x="250" y="559" type="curve" smooth="yes"/>
      <point x="250" y="591"/>
      <point x="277" y="618"/>
      <point x="310" y="618" type="curve" smooth="yes"/>
      <point x="342" y="618"/>
      <point x="369" y="591"/>
      <point x="369" y="559" type="curve" smooth="yes"/>
      <point x="369" y="526"/>
      <point x="342" y="499"/>
    </contour>
    <contour>
      <point x="403" y="152" type="line" smooth="yes"/>
      <point x="403" y="91"/>
      <point x="383" y="48"/>
      <point x="344" y="23" type="curve" smooth="yes"/>
      <point x="310" y="2"/>
      <point x="272" y="-9"/>
      <point x="230" y="-9" type="curve" smooth="yes"/>
      <point x="105" y="-9"/>
      <point x="43" y="45"/>
      <point x="43" y="152" type="curve" smooth="yes"/>
      <point x="43" y="460" type="line"/>
      <point x="156" y="460" type="line"/>
      <point x="156" y="152" type="line" smooth="yes"/>
      <point x="156" y="81"/>
      <point x="183" y="46"/>
      <point x="237" y="46" type="curve" smooth="yes"/>
      <point x="296" y="46"/>
      <point x="337" y="79"/>
      <point x="337" y="152" type="curve" smooth="yes"/>
      <point x="337" y="460" type="line"/>
      <point x="403" y="460" type="line"/>
    </contour>
  </outline>
</glyph>
<glyph name="Yacute" format="2">
  <advance width="375"/>
  <unicode hex="00DD"/>
  <note>
Yacute
</note>
  <outline>
    <contour>
      <point x="138" y="519" type="line"/>
      <point x="223" y="653" type="line"/>
      <point x="287" y="580" type="line"/>
      <point x="159" y="494" type="line"/>
    </contour>
    <contour>
      <point x="244" y="0" type="line"/>
      <point x="131" y="0" type="line"/>
      <point x="131" y="158" type="line"/>
      <point x="-11" y="460" type="line"/>
      <point x="102" y="460" type="line"/>
      <point x="207" y="221" type="line"/>
      <point x="320" y="460" type="line"/>
      <point x="385" y="460" type="line"/>
      <point x="244" y="159" type="line"/>
    </contour>
  </outline>
</glyph>
<glyph name="Thorn" format="2">
  <advance width="381"/>
  <unicode hex="00DE"/>
  <note>
Thorn
</note>
  <outline>
    <contour>
      <point x="232" y="383" type="line" smooth="yes"/>
      <point x="333" y="383"/>
      <point x="383" y="333"/>
      <point x="383" y="232" type="curve" smooth="yes"/>
      <point x="383" y="144"/>
      <point x="340" y="82"/>
      <point x="232" y="82" type="curve" smooth="yes"/>
      <point x="165" y="82" type="line"/>
      <point x="165" y="0" type="line"/>
      <point x="52" y="0" type="line"/>
      <point x="52" y="466" type="line"/>
      <point x="165" y="466" type="line"/>
      <point x="165" y="383" type="line"/>
    </contour>
    <contour>
      <point x="211" y="123" type="line" smooth="yes"/>
      <point x="251" y="123"/>
      <point x="271" y="160"/>
      <point x="271" y="233" type="curve" smooth="yes"/>
      <point x="271" y="306"/>
      <point x="251" y="343"/>
      <point x="211" y="343" type="curve" smooth="yes"/>
      <point x="165" y="343" type="line"/>
      <point x="165" y="123" type="line"/>
    </contour>
  </outline>
</glyph>
<glyph name="germandbls" format="2">
  <advance width="426"/>
  <unicode hex="00DF"/>
  <note>
germandbls
</note>
  <outline>
    <contour>
      <point x="312" y="119" type="line" smooth="yes"/>
      <point x="312" y="200"/>
      <point x="288" y="221"/>
      <point x="245" y="221" type="curve" smooth="yes"/>
      <point x="199" y="221" type="line"/>
      <point x="199" y="259" type="line"/>
      <point x="229" y="259" type="line" smooth="yes"/>
      <point x="277" y="259"/>
      <point x="289" y="423"/>
      <point x="217" y="423" type="curve" smooth="yes"/>
      <point x="198" y="423"/>
      <point x="186" y="415"/>
      <point x="180" y="400" type="curve" smooth="yes"/>
      <point x="173" y="384"/>
      <point x="170" y="357"/>
      <point x="170" y="320" type="curve" smooth="yes"/>
      <point x="170" y="0" type="line"/>
      <point x="59" y="0" type="line"/>
      <point x="59" y="320" type="line" smooth="yes"/>
      <point x="59" y="425"/>
      <point x="111" y="466"/>
      <point x="215" y="466" type="curve" smooth="yes"/>
      <point x="319" y="466"/>
      <point x="378" y="415"/>
      <point x="378" y="333" type="curve" smooth="yes"/>
      <point x="378" y="292"/>
      <point x="354" y="263"/>
      <point x="307" y="246" type="curve"/>
      <point x="384" y="235"/>
      <point x="424" y="184"/>
      <point x="424" y="112" type="curve" smooth="yes"/>
      <point x="424" y="40"/>
      <point x="381" y="-9"/>
      <point x="300" y="-9" type="curve" smooth="yes"/>
      <point x="223" y="-9"/>
      <point x="185" y="36"/>
      <point x="185" y="127" type="curve"/>
      <point x="275" y="127" type="line"/>
      <point x="274" y="65"/>
      <point x="274" y="35"/>
      <point x="297" y="35" type="curve" smooth="yes"/>
      <point x="307" y="35"/>
      <point x="312" y="48"/>
      <point x="312" y="73" type="curve" smooth="yes"/>
    </contour>
  </outline>
</glyph>
<glyph name="aacute" format="2">
  <advance width="396"/>
  <unicode hex="00E1"/>
  <note>
aacute
</note>
  <outline>
    <contour>
      <point x="303" y="480" type="line"/>
      <point x="176" y="394" type="line"/>
      <point x="154" y="419" type="line"/>
      <point x="239" y="554" type="line"/>
    </contour>
    <contour>
      <point x="248" y="42" type="line"/>
      <point x="220" y="8"/>
      <point x="183" y="-9"/>
      <point x="136" y="-9" type="curve" smooth="yes"/>
      <point x="73" y="-9"/>
      <point x="32" y="30"/>
      <point x="32" y="93" type="curve" smooth="yes"/>
      <point x="32" y="156"/>
      <point x="72" y="184"/>
      <point x="177" y="203" type="curve" smooth="yes"/>
      <point x="239" y="215" type="line"/>
      <point x="239" y="251" type="line" smooth="yes"/>
      <point x="239" y="293"/>
      <point x="224" y="314"/>
      <point x="194" y="314" type="curve" smooth="yes"/>
      <point x="161" y="314"/>
      <point x="143" y="287"/>
      <point x="140" y="233" type="curve"/>
      <point x="48" y="244" type="line"/>
      <point x="56" y="329"/>
      <point x="94" y="369"/>
      <point x="197" y="369" type="curve" smooth="yes"/>
      <point x="299" y="369"/>
      <point x="350" y="327"/>
      <point x="350" y="244" type="curve" smooth="yes"/>
      <point x="350" y="0" type="line"/>
      <point x="276" y="0" type="line"/>
    </contour>
    <contour>
      <point x="131" y="96" type="curve" smooth="yes"/>
      <point x="131" y="65"/>
      <point x="148" y="49"/>
      <point x="182" y="49" type="curve" smooth="yes"/>
      <point x="200" y="49"/>
      <point x="219" y="60"/>
      <point x="239" y="81" type="curve"/>
      <point x="239" y="170" type="line"/>
      <point x="194" y="161" type="line" smooth="yes"/>
      <point x="152" y="152"/>
      <point x="131" y="130"/>
    </contour>
  </outline>
</glyph>
<glyph name="acircumflex" format="2">
  <advance width="396"/>
  <unicode hex="00E2"/>
  <note>
acircumflex
</note>
  <outline>
    <contour>
      <point x="230" y="536" type="line"/>
      <point x="302" y="416" type="line"/>
      <point x="273" y="392" type="line"/>
      <point x="203" y="452" type="line"/>
      <point x="136" y="392" type="line"/>
      <point x="105" y="416" type="line"/>
      <point x="179" y="536" type="line"/>
    </contour>
    <contour>
      <point x="248" y="42" type="line"/>
      <point x="220" y="8"/>
      <point x="183" y="-9"/>
      <point x="136" y="-9" type="curve" smooth="yes"/>
      <point x="73" y="-9"/>
      <point x="32" y="30"/>
      <point x="32" y="93" type="curve" smooth="yes"/>
      <point x="32" y="156"/>
      <point x="72" y="184"/>
      <point x="177" y="203" type="curve" smooth="yes"/>
      <point x="239" y="215" type="line"/>
      <point x="239" y="251" type="line" smooth="yes"/>
      <point x="239" y="293"/>
      <point x="224" y="314"/>
      <point x="194" y="314" type="curve" smooth="yes"/>
      <point x="161" y="314"/>
      <point x="143" y="287"/>
      <point x="140" y="233" type="curve"/>
      <point x="48" y="244" type="line"/>
      <point x="56" y="329"/>
      <point x="94" y="369"/>
      <point x="197" y="369" type="curve" smooth="yes"/>
      <point x="299" y="369"/>
      <point x="350" y="327"/>
      <point x="350" y="244" type="curve" smooth="yes"/>
      <point x="350" y="0" type="line"/>
      <point x="276" y="0" type="line"/>
    </contour>
    <contour>
      <point x="131" y="96" type="curve" smooth="yes"/>
      <point x="131" y="65"/>
      <point x="148" y="49"/>
      <point x="182" y="49" type="curve" smooth="yes"/>
      <point x="200" y="49"/>
      <point x="219" y="60"/>
      <point x="239" y="81" type="curve"/>
      <point x="239" y="170" type="line"/>
      <point x="194" y="161" type="line" smooth="yes"/>
      <point x="152" y="152"/>
      <point x="131" y="130"/>
    </contour>
  </outline>
</glyph>
<glyph name="atilde" format="2">
  <advance width="396"/>
  <unicode hex="00E3"/>
  <note>
atilde
</note>
  <outline>
    <contour>
      <point x="320" y="501" type="line"/>
      <point x="312" y="440"/>
      <point x="285" y="413"/>
      <point x="253" y="413" type="curve" smooth="yes"/>
      <point x="212" y="413"/>
      <point x="186" y="437"/>
      <point x="158" y="437" type="curve" smooth="yes"/>
      <point x="141" y="437"/>
      <point x="129" y="427"/>
      <point x="122" y="406" type="curve"/>
      <point x="87" y="419" type="line"/>
      <point x="94" y="479"/>
      <point x="116" y="509"/>
      <point x="155" y="509" type="curve" smooth="yes"/>
      <point x="170" y="509"/>
      <point x="188" y="505"/>
      <point x="207" y="497" type="curve" smooth="yes"/>
      <point x="226" y="489"/>
      <point x="239" y="485"/>
      <point x="248" y="485" type="curve" smooth="yes"/>
      <point x="267" y="485"/>
      <point x="280" y="494"/>
      <point x="285" y="513" type="curve"/>
    </contour>
    <contour>
      <point x="248" y="42" type="line"/>
      <point x="220" y="8"/>
      <point x="183" y="-9"/>
      <point x="136" y="-9" type="curve" smooth="yes"/>
      <point x="73" y="-9"/>
      <point x="32" y="30"/>
      <point x="32" y="93" type="curve" smooth="yes"/>
      <point x="32" y="156"/>
      <point x="72" y="184"/>
      <point x="177" y="203" type="curve" smooth="yes"/>
      <point x="239" y="215" type="line"/>
      <point x="239" y="251" type="line" smooth="yes"/>
      <point x="239" y="293"/>
      <point x="224" y="314"/>
      <point x="194" y="314" type="curve" smooth="yes"/>
      <point x="161" y="314"/>
      <point x="143" y="287"/>
      <point x="140" y="233" type="curve"/>
      <point x="48" y="244" type="line"/>
      <point x="56" y="329"/>
      <point x="94" y="369"/>
      <point x="197" y="369" type="curve" smooth="yes"/>
      <point x="299" y="369"/>
      <point x="350" y="327"/>
      <point x="350" y="244" type="curve" smooth="yes"/>
      <point x="350" y="0" type="line"/>
      <point x="276" y="0" type="line"/>
    </contour>
    <contour>
      <point x="131" y="96" type="curve" smooth="yes"/>
      <point x="131" y="65"/>
      <point x="148" y="49"/>
      <point x="182" y="49" type="curve" smooth="yes"/>
      <point x="200" y="49"/>
      <point x="219" y="60"/>
      <point x="239" y="81" type="curve"/>
      <point x="239" y="170" type="line"/>
      <point x="194" y="161" type="line" smooth="yes"/>
      <point x="152" y="152"/>
      <point x="131" y="130"/>
    </contour>
  </outline>
</glyph>
<glyph name="adieresis" format="2">
  <advance width="396"/>
  <unicode hex="00E4"/>
  <note>
adieresis
</note>
  <outline>
    <contour>
      <point x="125" y="399" type="curve" smooth="yes"/>
      <point x="92" y="399"/>
      <point x="66" y="427"/>
      <point x="66" y="459" type="curve" smooth="yes"/>
      <point x="66" y="491"/>
      <point x="91" y="518"/>
      <point x="124" y="518" type="curve" smooth="yes"/>
      <point x="157" y="518"/>
      <point x="184" y="491"/>
      <point x="184" y="459" type="curve" smooth="yes"/>
      <point x="184" y="426"/>
      <point x="157" y="399"/>
    </contour>
    <contour>
      <point x="285" y="399" type="curve" smooth="yes"/>
      <point x="252" y="399"/>
      <point x="225" y="427"/>
      <point x="225" y="459" type="curve" smooth="yes"/>
      <point x="225" y="491"/>
      <point x="252" y="518"/>
      <point x="285" y="518" type="curve" smooth="yes"/>
      <point x="317" y="518"/>
      <point x="344" y="491"/>
      <point x="344" y="459" type="curve" smooth="yes"/>
      <point x="344" y="426"/>
      <point x="317" y="399"/>
    </contour>
    <contour>
      <point x="248" y="42" type="line"/>
      <point x="220" y="8"/>
      <point x="183" y="-9"/>
      <point x="136" y="-9" type="curve" smooth="yes"/>
      <point x="73" y="-9"/>
      <point x="32" y="30"/>
      <point x="32" y="93" type="curve" smooth="yes"/>
      <point x="32" y="156"/>
      <point x="72" y="184"/>
      <point x="177" y="203" type="curve" smooth="yes"/>
      <point x="239" y="215" type="line"/>
      <point x="239" y="251" type="line" smooth="yes"/>
      <point x="239" y="293"/>
      <point x="224" y="314"/>
      <point x="194" y="314" type="curve" smooth="yes"/>
      <point x="161" y="314"/>
      <point x="143" y="287"/>
      <point x="140" y="233" type="curve"/>
      <point x="48" y="244" type="line"/>
      <point x="56" y="329"/>
      <point x="94" y="369"/>
      <point x="197" y="369" type="curve" smooth="yes"/>
      <point x="299" y="369"/>
      <point x="350" y="327"/>
      <point x="350" y="244" type="curve" smooth="yes"/>
      <point x="350" y="0" type="line"/>
      <point x="276" y="0" type="line"/>
    </contour>
    <contour>
      <point x="131" y="96" type="curve" smooth="yes"/>
      <point x="131" y="65"/>
      <point x="148" y="49"/>
      <point x="182" y="49" type="curve" smooth="yes"/>
      <point x="200" y="49"/>
      <point x="219" y="60"/>
      <point x="239" y="81" type="curve"/>
      <point x="239" y="170" type="line"/>
      <point x="194" y="161" type="line" smooth="yes"/>
      <point x="152" y="152"/>
      <point x="131" y="130"/>
    </contour>
  </outline>
</glyph>
<glyph name="aring" format="2">
  <advance width="396"/>
  <unicode hex="00E5"/>
  <note>
aring
</note>
  <outline>
    <contour>
      <point x="282" y="463" type="curve" smooth="yes"/>
      <point x="282" y="412"/>
      <point x="256" y="386"/>
      <point x="205" y="386" type="curve"/>
      <point x="127" y="513"/>
      <point x="152" y="538"/>
      <point x="203" y="538" type="curve" smooth="yes"/>
      <point x="262" y="538"/>
      <point x="282" y="503"/>
    </contour>
    <contour>
      <point x="248" y="42" type="line"/>
      <point x="220" y="8"/>
      <point x="183" y="-9"/>
      <point x="136" y="-9" type="curve" smooth="yes"/>
      <point x="73" y="-9"/>
      <point x="32" y="30"/>
      <point x="32" y="93" type="curve" smooth="yes"/>
      <point x="32" y="156"/>
      <point x="72" y="184"/>
      <point x="177" y="203" type="curve" smooth="yes"/>
      <point x="239" y="215" type="line"/>
      <point x="239" y="251" type="line" smooth="yes"/>
      <point x="239" y="293"/>
      <point x="224" y="314"/>
      <point x="194" y="314" type="curve" smooth="yes"/>
      <point x="161" y="314"/>
      <point x="143" y="287"/>
      <point x="140" y="233" type="curve"/>
      <point x="48" y="244" type="line"/>
      <point x="56" y="329"/>
      <point x="94" y="369"/>
      <point x="197" y="369" type="curve" smooth="yes"/>
      <point x="299" y="369"/>
      <point x="350" y="327"/>
      <point x="350" y="244" type="curve" smooth="yes"/>
      <point x="350" y="0" type="line"/>
      <point x="276" y="0" type="line"/>
    </contour>
    <contour>
      <point x="131" y="96" type="curve" smooth="yes"/>
      <point x="131" y="65"/>
      <point x="148" y="49"/>
      <point x="182" y="49" type="curve" smooth="yes"/>
      <point x="200" y="49"/>
      <point x="219" y="60"/>
      <point x="239" y="81" type="curve"/>
      <point x="239" y="170" type="line"/>
      <point x="194" y="161" type="line" smooth="yes"/>
      <point x="152" y="152"/>
      <point x="131" y="130"/>
    </contour>
  </outline>
</glyph>
<glyph name="ae" format="2">
  <advance width="579"/>
  <unicode hex="00E6"/>
  <note>
ae
</note>
  <outline>
    <contour>
      <point x="337" y="165" type="line"/>
      <point x="337" y="119"/>
      <point x="342" y="88"/>
      <point x="352" y="71" type="curve" smooth="yes"/>
      <point x="361" y="54"/>
      <point x="377" y="46"/>
      <point x="399" y="46" type="curve" smooth="yes"/>
      <point x="434" y="46"/>
      <point x="452" y="66"/>
      <point x="453" y="105" type="curve"/>
      <point x="544" y="103" type="line"/>
      <point x="538" y="28"/>
      <point x="488" y="-9"/>
      <point x="393" y="-9" type="curve" smooth="yes"/>
      <point x="327" y="-9"/>
      <point x="281" y="10"/>
      <point x="256" y="49" type="curve"/>
      <point x="227" y="10"/>
      <point x="187" y="-9"/>
      <point x="136" y="-9" type="curve" smooth="yes"/>
      <point x="73" y="-9"/>
      <point x="32" y="30"/>
      <point x="32" y="94" type="curve" smooth="yes"/>
      <point x="32" y="157"/>
      <point x="76" y="194"/>
      <point x="177" y="207" type="curve" smooth="yes"/>
      <point x="227" y="213" type="line"/>
      <point x="228" y="235"/>
      <point x="232" y="254"/>
      <point x="238" y="269" type="curve"/>
      <point x="231" y="299"/>
      <point x="217" y="314"/>
      <point x="194" y="314" type="curve" smooth="yes"/>
      <point x="161" y="314"/>
      <point x="143" y="287"/>
      <point x="140" y="233" type="curve"/>
      <point x="48" y="244" type="line"/>
      <point x="56" y="329"/>
      <point x="97" y="369"/>
      <point x="188" y="369" type="curve" smooth="yes"/>
      <point x="233" y="369"/>
      <point x="268" y="361"/>
      <point x="293" y="346" type="curve"/>
      <point x="320" y="361"/>
      <point x="353" y="369"/>
      <point x="391" y="369" type="curve" smooth="yes"/>
      <point x="496" y="369"/>
      <point x="549" y="305"/>
      <point x="549" y="177" type="curve" smooth="yes"/>
      <point x="549" y="165" type="line"/>
    </contour>
    <contour>
      <point x="440" y="220" type="line"/>
      <point x="437" y="283"/>
      <point x="421" y="314"/>
      <point x="390" y="314" type="curve" smooth="yes"/>
      <point x="373" y="314"/>
      <point x="361" y="308"/>
      <point x="353" y="295" type="curve" smooth="yes"/>
      <point x="345" y="282"/>
      <point x="340" y="257"/>
      <point x="338" y="220" type="curve"/>
    </contour>
    <contour>
      <point x="175" y="49" type="curve" smooth="yes"/>
      <point x="204" y="49"/>
      <point x="225" y="60"/>
      <point x="239" y="81" type="curve"/>
      <point x="231" y="103"/>
      <point x="226" y="132"/>
      <point x="225" y="168" type="curve"/>
      <point x="194" y="164" type="line" smooth="yes"/>
      <point x="157" y="159"/>
      <point x="131" y="133"/>
      <point x="131" y="100" type="curve" smooth="yes"/>
      <point x="131" y="67"/>
      <point x="148" y="49"/>
    </contour>
  </outline>
</glyph>
<glyph name="ccedilla" format="2">
  <advance width="370"/>
  <unicode hex="00E7"/>
  <note>
ccedilla
</note>
  <outline>
    <contour>
      <point x="340" y="132" type="line"/>
      <point x="335" y="41"/>
      <point x="297" y="-5"/>
      <point x="204" y="-9" type="curve"/>
      <point x="199" y="-24" type="line"/>
      <point x="244" y="-31"/>
      <point x="266" y="-52"/>
      <point x="266" y="-88" type="curve" smooth="yes"/>
      <point x="266" y="-128"/>
      <point x="243" y="-158"/>
      <point x="188" y="-158" type="curve" smooth="yes"/>
      <point x="136" y="-158"/>
      <point x="110" y="-136"/>
      <point x="110" y="-92" type="curve"/>
      <point x="168" y="-85" type="line"/>
      <point x="168" y="-108"/>
      <point x="177" y="-122"/>
      <point x="186" y="-122" type="curve" smooth="yes"/>
      <point x="208" y="-122"/>
      <point x="209" y="-87"/>
      <point x="192" y="-72" type="curve" smooth="yes"/>
      <point x="184" y="-65"/>
      <point x="169" y="-60"/>
      <point x="147" y="-56" type="curve"/>
      <point x="160" y="-7" type="line"/>
      <point x="133" y="-4"/>
      <point x="111" y="3"/>
      <point x="94" y="14" type="curve" smooth="yes"/>
      <point x="51" y="41"/>
      <point x="30" y="97"/>
      <point x="30" y="180" type="curve" smooth="yes"/>
      <point x="30" y="236"/>
      <point x="39" y="280"/>
      <point x="58" y="312" type="curve" smooth="yes"/>
      <point x="81" y="350"/>
      <point x="125" y="369"/>
      <point x="190" y="369" type="curve" smooth="yes"/>
      <point x="294" y="369"/>
      <point x="334" y="326"/>
      <point x="339" y="235" type="curve"/>
      <point x="247" y="225" type="line"/>
      <point x="246" y="284"/>
      <point x="229" y="314"/>
      <point x="196" y="314" type="curve" smooth="yes"/>
      <point x="151" y="314"/>
      <point x="141" y="273"/>
      <point x="141" y="181" type="curve" smooth="yes"/>
      <point x="141" y="88"/>
      <point x="152" y="46"/>
      <point x="196" y="46" type="curve" smooth="yes"/>
      <point x="229" y="46"/>
      <point x="246" y="76"/>
      <point x="247" y="136" type="curve"/>
    </contour>
  </outline>
</glyph>
<glyph name="edieresis" format="2">
  <advance width="383"/>
  <unicode hex="00EB"/>
  <note>
edieresis
</note>
  <outline>
    <contour>
      <point x="109" y="399" type="curve" smooth="yes"/>
      <point x="77" y="399"/>
      <point x="50" y="427"/>
      <point x="50" y="459" type="curve" smooth="yes"/>
      <point x="50" y="491"/>
      <point x="76" y="518"/>
      <point x="109" y="518" type="curve" smooth="yes"/>
      <point x="141" y="518"/>
      <point x="168" y="491"/>
      <point x="168" y="459" type="curve" smooth="yes"/>
      <point x="168" y="426"/>
      <point x="141" y="399"/>
    </contour>
    <contour>
      <point x="269" y="399" type="curve" smooth="yes"/>
      <point x="237" y="399"/>
      <point x="210" y="427"/>
      <point x="210" y="459" type="curve" smooth="yes"/>
      <point x="210" y="491"/>
      <point x="237" y="518"/>
      <point x="269" y="518" type="curve" smooth="yes"/>
      <point x="301" y="518"/>
      <point x="329" y="491"/>
      <point x="329" y="459" type="curve" smooth="yes"/>
      <point x="329" y="426"/>
      <point x="301" y="399"/>
    </contour>
    <contour>
      <point x="141" y="165" type="line"/>
      <point x="141" y="120"/>
      <point x="146" y="89"/>
      <point x="156" y="72" type="curve" smooth="yes"/>
      <point x="166" y="55"/>
      <point x="182" y="46"/>
      <point x="203" y="46" type="curve" smooth="yes"/>
      <point x="239" y="46"/>
      <point x="257" y="66"/>
      <point x="257" y="105" type="curve"/>
      <point x="349" y="103" type="line"/>
      <point x="342" y="34"/>
      <point x="304" y="-9"/>
      <point x="192" y="-9" type="curve" smooth="yes"/>
      <point x="79" y="-9"/>
      <point x="30" y="53"/>
      <point x="30" y="180" type="curve" smooth="yes"/>
      <point x="30" y="306"/>
      <point x="85" y="369"/>
      <point x="194" y="369" type="curve" smooth="yes"/>
      <point x="301" y="369"/>
      <point x="354" y="305"/>
      <point x="354" y="177" type="curve" smooth="yes"/>
      <point x="354" y="165" type="line"/>
    </contour>
    <contour>
      <point x="246" y="220" type="line"/>
      <point x="243" y="285"/>
      <point x="230" y="314"/>
      <point x="196" y="314" type="curve" smooth="yes"/>
      <point x="159" y="314"/>
      <point x="148" y="287"/>
      <point x="143" y="220" type="curve"/>
    </contour>
  </outline>
</glyph>
<glyph name="igrave" format="2">
  <advance width="217"/>
  <unicode hex="00EC"/>
  <note>
igrave
</note>
  <outline>
    <contour>
      <point x="7" y="480" type="line"/>
      <point x="71" y="554" type="line"/>
      <point x="157" y="419" type="line"/>
      <point x="135" y="394" type="line"/>
    </contour>
    <contour>
      <point x="52" y="0" type="line"/>
      <point x="52" y="360" type="line"/>
      <point x="164" y="360" type="line"/>
      <point x="164" y="0" type="line"/>
    </contour>
  </outline>
</glyph>
<glyph name="iacute" format="2">
  <advance width="217"/>
  <unicode hex="00ED"/>
  <note>
iacute
</note>
  <outline>
    <contour>
      <point x="206" y="480" type="line"/>
      <point x="78" y="394" type="line"/>
      <point x="57" y="419" type="line"/>
      <point x="142" y="554" type="line"/>
    </contour>
    <contour>
      <point x="52" y="0" type="line"/>
      <point x="52" y="360" type="line"/>
      <point x="164" y="360" type="line"/>
      <point x="164" y="0" type="line"/>
    </contour>
  </outline>
</glyph>
<glyph name="icircumflex" format="2">
  <advance width="217"/>
  <unicode hex="00EE"/>
  <note>
icircumflex
</note>
  <outline>
    <contour>
      <point x="133" y="536" type="line"/>
      <point x="205" y="416" type="line"/>
      <point x="176" y="392" type="line"/>
      <point x="106" y="452" type="line"/>
      <point x="39" y="392" type="line"/>
      <point x="8" y="416" type="line"/>
      <point x="82" y="536" type="line"/>
    </contour>
    <contour>
      <point x="52" y="0" type="line"/>
      <point x="52" y="360" type="line"/>
      <point x="164" y="360" type="line"/>
      <point x="164" y="0" type="line"/>
    </contour>
  </outline>
</glyph>
<glyph name="idieresis" format="2">
  <advance width="217"/>
  <unicode hex="00EF"/>
  <note>
idieresis
</note>
  <outline>
    <contour>
      <point x="27" y="399" type="curve" smooth="yes"/>
      <point x="-5" y="399"/>
      <point x="-32" y="427"/>
      <point x="-32" y="459" type="curve" smooth="yes"/>
      <point x="-32" y="491"/>
      <point x="-6" y="518"/>
      <point x="27" y="518" type="curve" smooth="yes"/>
      <point x="59" y="518"/>
      <point x="86" y="491"/>
      <point x="86" y="459" type="curve" smooth="yes"/>
      <point x="86" y="426"/>
      <point x="59" y="399"/>
    </contour>
    <contour>
      <point x="187" y="399" type="curve" smooth="yes"/>
      <point x="155" y="399"/>
      <point x="128" y="427"/>
      <point x="128" y="459" type="curve" smooth="yes"/>
      <point x="128" y="491"/>
      <point x="155" y="518"/>
      <point x="187" y="518" type="curve" smooth="yes"/>
      <point x="219" y="518"/>
      <point x="247" y="491"/>
      <point x="247" y="459" type="curve" smooth="yes"/>
      <point x="247" y="426"/>
      <point x="219" y="399"/>
    </contour>
    <contour>
      <point x="52" y="0" type="line"/>
      <point x="52" y="360" type="line"/>
      <point x="164" y="360" type="line"/>
      <point x="164" y="0" type="line"/>
    </contour>
  </outline>
</glyph>
<glyph name="eth" format="2">
  <advance width="407"/>
  <unicode hex="00F0"/>
  <note>
eth
</note>
  <outline>
    <contour>
      <point x="309" y="399" type="line"/>
      <point x="350" y="334"/>
      <point x="371" y="257"/>
      <point x="371" y="169" type="curve" smooth="yes"/>
      <point x="371" y="78"/>
      <point x="319" y="-9"/>
      <point x="200" y="-9" type="curve" smooth="yes"/>
      <point x="80" y="-9"/>
      <point x="30" y="65"/>
      <point x="30" y="155" type="curve" smooth="yes"/>
      <point x="30" y="245"/>
      <point x="81" y="319"/>
      <point x="200" y="319" type="curve" smooth="yes"/>
      <point x="235" y="319"/>
      <point x="260" y="310"/>
      <point x="275" y="293" type="curve"/>
      <point x="266" y="318"/>
      <point x="253" y="343"/>
      <point x="234" y="369" type="curve"/>
      <point x="155" y="338" type="line"/>
      <point x="155" y="405" type="line"/>
      <point x="191" y="419" type="line"/>
      <point x="178" y="432" type="line"/>
      <point x="166" y="443" type="line"/>
      <point x="218" y="500" type="line"/>
      <point x="242" y="478"/>
      <point x="259" y="462"/>
      <point x="268" y="451" type="curve"/>
      <point x="346" y="482" type="line"/>
      <point x="346" y="413" type="line"/>
    </contour>
    <contour>
      <point x="141" y="155" type="curve" smooth="yes"/>
      <point x="141" y="75"/>
      <point x="162" y="35"/>
      <point x="204" y="35" type="curve" smooth="yes"/>
      <point x="245" y="35"/>
      <point x="266" y="75"/>
      <point x="266" y="155" type="curve" smooth="yes"/>
      <point x="266" y="203"/>
      <point x="264" y="231"/>
      <point x="245" y="256" type="curve" smooth="yes"/>
      <point x="235" y="269"/>
      <point x="221" y="275"/>
      <point x="203" y="275" type="curve" smooth="yes"/>
      <point x="162" y="275"/>
      <point x="141" y="235"/>
    </contour>
  </outline>
</glyph>
<glyph name="ntilde" format="2">
  <advance width="422"/>
  <unicode hex="00F1"/>
  <note>
ntilde
</note>
  <outline>
    <contour>
      <point x="166" y="437" type="curve" smooth="yes"/>
      <point x="149" y="437"/>
      <point x="136" y="427"/>
      <point x="129" y="406" type="curve"/>
      <point x="95" y="419" type="line"/>
      <point x="102" y="479"/>
      <point x="124" y="509"/>
      <point x="162" y="509" type="curve" smooth="yes"/>
      <point x="177" y="509"/>
      <point x="195" y="505"/>
      <point x="214" y="497" type="curve" smooth="yes"/>
      <point x="233" y="489"/>
      <point x="247" y="485"/>
      <point x="256" y="485" type="curve" smooth="yes"/>
      <point x="275" y="485"/>
      <point x="287" y="494"/>
      <point x="293" y="513" type="curve"/>
      <point x="328" y="501" type="line"/>
      <point x="320" y="440"/>
      <point x="292" y="413"/>
      <point x="260" y="413" type="curve" smooth="yes"/>
      <point x="220" y="413"/>
      <point x="195" y="437"/>
    </contour>
    <contour>
      <point x="140" y="328" type="line"/>
      <point x="218" y="381"/>
      <point x="307" y="382"/>
      <point x="348" y="337" type="curve" smooth="yes"/>
      <point x="367" y="315"/>
      <point x="376" y="287"/>
      <point x="376" y="253" type="curve" smooth="yes"/>
      <point x="376" y="0" type="line"/>
      <point x="265" y="0" type="line"/>
      <point x="265" y="239" type="line" smooth="yes"/>
      <point x="265" y="286"/>
      <point x="256" y="306"/>
      <point x="220" y="306" type="curve" smooth="yes"/>
      <point x="201" y="306"/>
      <point x="183" y="300"/>
      <point x="164" y="287" type="curve"/>
      <point x="164" y="0" type="line"/>
      <point x="52" y="0" type="line"/>
      <point x="52" y="360" type="line"/>
      <point x="103" y="360" type="line"/>
    </contour>
  </outline>
</glyph>
<glyph name="oacute" format="2">
  <advance width="401"/>
  <unicode hex="00F3"/>
  <note>
oacute
</note>
  <outline>
    <contour>
      <point x="299" y="480" type="line"/>
      <point x="171" y="394" type="line"/>
      <point x="149" y="419" type="line"/>
      <point x="235" y="554" type="line"/>
    </contour>
    <contour>
      <point x="371" y="180" type="curve" smooth="yes"/>
      <point x="371" y="54"/>
      <point x="314" y="-9"/>
      <point x="201" y="-9" type="curve" smooth="yes"/>
      <point x="87" y="-9"/>
      <point x="30" y="54"/>
      <point x="30" y="180" type="curve" smooth="yes"/>
      <point x="30" y="306"/>
      <point x="87" y="369"/>
      <point x="201" y="369" type="curve" smooth="yes"/>
      <point x="314" y="369"/>
      <point x="371" y="306"/>
    </contour>
    <contour>
      <point x="141" y="180" type="curve" smooth="yes"/>
      <point x="141" y="133"/>
      <point x="145" y="99"/>
      <point x="153" y="78" type="curve" smooth="yes"/>
      <point x="161" y="57"/>
      <point x="177" y="46"/>
      <point x="201" y="46" type="curve" smooth="yes"/>
      <point x="224" y="46"/>
      <point x="240" y="57"/>
      <point x="248" y="78" type="curve" smooth="yes"/>
      <point x="255" y="99"/>
      <point x="259" y="133"/>
      <point x="259" y="180" type="curve" smooth="yes"/>
      <point x="259" y="227"/>
      <point x="255" y="262"/>
      <point x="248" y="283" type="curve" smooth="yes"/>
      <point x="240" y="304"/>
      <point x="224" y="314"/>
      <point x="201" y="314" type="curve" smooth="yes"/>
      <point x="177" y="314"/>
      <point x="161" y="303"/>
      <point x="153" y="282" type="curve" smooth="yes"/>
      <point x="145" y="261"/>
      <point x="141" y="227"/>
    </contour>
  </outline>
</glyph>
<glyph name="ocircumflex" format="2">
  <advance width="401"/>
  <unicode hex="00F4"/>
  <note>
ocircumflex
</note>
  <outline>
    <contour>
      <point x="226" y="536" type="line"/>
      <point x="298" y="416" type="line"/>
      <point x="268" y="392" type="line"/>
      <point x="199" y="452" type="line"/>
      <point x="131" y="392" type="line"/>
      <point x="101" y="416" type="line"/>
      <point x="175" y="536" type="line"/>
    </contour>
    <contour>
      <point x="371" y="180" type="curve" smooth="yes"/>
      <point x="371" y="54"/>
      <point x="314" y="-9"/>
      <point x="201" y="-9" type="curve" smooth="yes"/>
      <point x="87" y="-9"/>
      <point x="30" y="54"/>
      <point x="30" y="180" type="curve" smooth="yes"/>
      <point x="30" y="306"/>
      <point x="87" y="369"/>
      <point x="201" y="369" type="curve" smooth="yes"/>
      <point x="314" y="369"/>
      <point x="371" y="306"/>
    </contour>
    <contour>
      <point x="141" y="180" type="curve" smooth="yes"/>
      <point x="141" y="133"/>
      <point x="145" y="99"/>
      <point x="153" y="78" type="curve" smooth="yes"/>
      <point x="161" y="57"/>
      <point x="177" y="46"/>
      <point x="201" y="46" type="curve" smooth="yes"/>
      <point x="224" y="46"/>
      <point x="240" y="57"/>
      <point x="248" y="78" type="curve" smooth="yes"/>
      <point x="255" y="99"/>
      <point x="259" y="133"/>
      <point x="259" y="180" type="curve" smooth="yes"/>
      <point x="259" y="227"/>
      <point x="255" y="262"/>
      <point x="248" y="283" type="curve" smooth="yes"/>
      <point x="240" y="304"/>
      <point x="224" y="314"/>
      <point x="201" y="314" type="curve" smooth="yes"/>
      <point x="177" y="314"/>
      <point x="161" y="303"/>
      <point x="153" y="282" type="curve" smooth="yes"/>
      <point x="145" y="261"/>
      <point x="141" y="227"/>
    </contour>
  </outline>
</glyph>
<glyph name="otilde" format="2">
  <advance width="401"/>
  <unicode hex="00F5"/>
  <note>
otilde
</note>
  <outline>
    <contour>
      <point x="317" y="501" type="line"/>
      <point x="309" y="440"/>
      <point x="281" y="413"/>
      <point x="249" y="413" type="curve" smooth="yes"/>
      <point x="209" y="413"/>
      <point x="184" y="437"/>
      <point x="155" y="437" type="curve" smooth="yes"/>
      <point x="138" y="437"/>
      <point x="125" y="427"/>
      <point x="118" y="406" type="curve"/>
      <point x="84" y="419" type="line"/>
      <point x="91" y="479"/>
      <point x="113" y="509"/>
      <point x="151" y="509" type="curve" smooth="yes"/>
      <point x="166" y="509"/>
      <point x="184" y="505"/>
      <point x="203" y="497" type="curve" smooth="yes"/>
      <point x="222" y="489"/>
      <point x="236" y="485"/>
      <point x="245" y="485" type="curve" smooth="yes"/>
      <point x="264" y="485"/>
      <point x="276" y="494"/>
      <point x="282" y="513" type="curve"/>
    </contour>
    <contour>
      <point x="371" y="180" type="curve" smooth="yes"/>
      <point x="371" y="54"/>
      <point x="314" y="-9"/>
      <point x="201" y="-9" type="curve" smooth="yes"/>
      <point x="87" y="-9"/>
      <point x="30" y="54"/>
      <point x="30" y="180" type="curve" smooth="yes"/>
      <point x="30" y="306"/>
      <point x="87" y="369"/>
      <point x="201" y="369" type="curve" smooth="yes"/>
      <point x="314" y="369"/>
      <point x="371" y="306"/>
    </contour>
    <contour>
      <point x="141" y="180" type="curve" smooth="yes"/>
      <point x="141" y="133"/>
      <point x="145" y="99"/>
      <point x="153" y="78" type="curve" smooth="yes"/>
      <point x="161" y="57"/>
      <point x="177" y="46"/>
      <point x="201" y="46" type="curve" smooth="yes"/>
      <point x="224" y="46"/>
      <point x="240" y="57"/>
      <point x="248" y="78" type="curve" smooth="yes"/>
      <point x="255" y="99"/>
      <point x="259" y="133"/>
      <point x="259" y="180" type="curve" smooth="yes"/>
      <point x="259" y="227"/>
      <point x="255" y="262"/>
      <point x="248" y="283" type="curve" smooth="yes"/>
      <point x="240" y="304"/>
      <point x="224" y="314"/>
      <point x="201" y="314" type="curve" smooth="yes"/>
      <point x="177" y="314"/>
      <point x="161" y="303"/>
      <point x="153" y="282" type="curve" smooth="yes"/>
      <point x="145" y="261"/>
      <point x="141" y="227"/>
    </contour>
  </outline>
</glyph>
<glyph name="odieresis" format="2">
  <advance width="401"/>
  <unicode hex="00F6"/>
  <note>
odieresis
</note>
  <outline>
    <contour>
      <point x="120" y="399" type="curve" smooth="yes"/>
      <point x="87" y="399"/>
      <point x="61" y="427"/>
      <point x="61" y="459" type="curve" smooth="yes"/>
      <point x="61" y="491"/>
      <point x="87" y="518"/>
      <point x="120" y="518" type="curve" smooth="yes"/>
      <point x="152" y="518"/>
      <point x="179" y="491"/>
      <point x="179" y="459" type="curve" smooth="yes"/>
      <point x="179" y="426"/>
      <point x="152" y="399"/>
    </contour>
    <contour>
      <point x="280" y="399" type="curve" smooth="yes"/>
      <point x="248" y="399"/>
      <point x="221" y="427"/>
      <point x="221" y="459" type="curve" smooth="yes"/>
      <point x="221" y="491"/>
      <point x="248" y="518"/>
      <point x="280" y="518" type="curve" smooth="yes"/>
      <point x="312" y="518"/>
      <point x="339" y="491"/>
      <point x="339" y="459" type="curve" smooth="yes"/>
      <point x="339" y="426"/>
      <point x="312" y="399"/>
    </contour>
    <contour>
      <point x="371" y="180" type="curve" smooth="yes"/>
      <point x="371" y="54"/>
      <point x="314" y="-9"/>
      <point x="201" y="-9" type="curve" smooth="yes"/>
      <point x="87" y="-9"/>
      <point x="30" y="54"/>
      <point x="30" y="180" type="curve" smooth="yes"/>
      <point x="30" y="306"/>
      <point x="87" y="369"/>
      <point x="201" y="369" type="curve" smooth="yes"/>
      <point x="314" y="369"/>
      <point x="371" y="306"/>
    </contour>
    <contour>
      <point x="141" y="180" type="curve" smooth="yes"/>
      <point x="141" y="133"/>
      <point x="145" y="99"/>
      <point x="153" y="78" type="curve" smooth="yes"/>
      <point x="161" y="57"/>
      <point x="177" y="46"/>
      <point x="201" y="46" type="curve" smooth="yes"/>
      <point x="224" y="46"/>
      <point x="240" y="57"/>
      <point x="248" y="78" type="curve" smooth="yes"/>
      <point x="255" y="99"/>
      <point x="259" y="133"/>
      <point x="259" y="180" type="curve" smooth="yes"/>
      <point x="259" y="227"/>
      <point x="255" y="262"/>
      <point x="248" y="283" type="curve" smooth="yes"/>
      <point x="240" y="304"/>
      <point x="224" y="314"/>
      <point x="201" y="314" type="curve" smooth="yes"/>
      <point x="177" y="314"/>
      <point x="161" y="303"/>
      <point x="153" y="282" type="curve" smooth="yes"/>
      <point x="145" y="261"/>
      <point x="141" y="227"/>
    </contour>
  </outline>
</glyph>
<glyph name="divide" format="2">
  <advance width="365"/>
  <unicode hex="00F7"/>
  <note>
divide
</note>
  <outline>
    <contour>
      <point x="230" y="317" type="curve" smooth="yes"/>
      <point x="230" y="280"/>
      <point x="216" y="264"/>
      <point x="183" y="264" type="curve" smooth="yes"/>
      <point x="155" y="264"/>
      <point x="140" y="279"/>
      <point x="137" y="292" type="curve" smooth="yes"/>
      <point x="136" y="299"/>
      <point x="135" y="309"/>
      <point x="135" y="322" type="curve" smooth="yes"/>
      <point x="135" y="349"/>
      <point x="145" y="371"/>
      <point x="178" y="371" type="curve" smooth="yes"/>
      <point x="220" y="371"/>
      <point x="230" y="353"/>
    </contour>
    <contour>
      <point x="314" y="165" type="line"/>
      <point x="51" y="165" type="line"/>
      <point x="51" y="237" type="line"/>
      <point x="314" y="237" type="line"/>
    </contour>
    <contour>
      <point x="230" y="77" type="curve" smooth="yes"/>
      <point x="230" y="43"/>
      <point x="219" y="24"/>
      <point x="182" y="24" type="curve" smooth="yes"/>
      <point x="154" y="24"/>
      <point x="140" y="39"/>
      <point x="137" y="52" type="curve" smooth="yes"/>
      <point x="136" y="58"/>
      <point x="135" y="68"/>
      <point x="135" y="82" type="curve" smooth="yes"/>
      <point x="135" y="109"/>
      <point x="145" y="131"/>
      <point x="178" y="131" type="curve" smooth="yes"/>
      <point x="220" y="131"/>
      <point x="230" y="113"/>
    </contour>
  </outline>
</glyph>
<glyph name="ucircumflex" format="2">
  <advance width="421"/>
  <unicode hex="00FB"/>
  <note>
ucircumflex
</note>
  <outline>
    <contour>
      <point x="112" y="416" type="line"/>
      <point x="185" y="536" type="line"/>
      <point x="237" y="536" type="line"/>
      <point x="309" y="416" type="line"/>
      <point x="279" y="392" type="line"/>
      <point x="210" y="452" type="line"/>
      <point x="142" y="392" type="line"/>
    </contour>
    <contour>
      <point x="368" y="0" type="line"/>
      <point x="297" y="0" type="line"/>
      <point x="268" y="36" type="line"/>
      <point x="241" y="6"/>
      <point x="207" y="-9"/>
      <point x="164" y="-9" type="curve" smooth="yes"/>
      <point x="85" y="-9"/>
      <point x="46" y="29"/>
      <point x="46" y="105" type="curve" smooth="yes"/>
      <point x="46" y="360" type="line"/>
      <point x="158" y="360" type="line"/>
      <point x="158" y="120" type="line" smooth="yes"/>
      <point x="158" y="23"/>
      <point x="226" y="42"/>
      <point x="257" y="75" type="curve"/>
      <point x="257" y="360" type="line"/>
      <point x="368" y="360" type="line"/>
    </contour>
  </outline>
</glyph>
<glyph name="udieresis" format="2">
  <advance width="421"/>
  <unicode hex="00FC"/>
  <note>
udieresis
</note>
  <outline>
    <contour>
      <point x="131" y="399" type="curve" smooth="yes"/>
      <point x="98" y="399"/>
      <point x="72" y="427"/>
      <point x="72" y="459" type="curve" smooth="yes"/>
      <point x="72" y="491"/>
      <point x="98" y="518"/>
      <point x="131" y="518" type="curve" smooth="yes"/>
      <point x="163" y="518"/>
      <point x="190" y="491"/>
      <point x="190" y="459" type="curve" smooth="yes"/>
      <point x="190" y="426"/>
      <point x="163" y="399"/>
    </contour>
    <contour>
      <point x="291" y="399" type="curve" smooth="yes"/>
      <point x="258" y="399"/>
      <point x="231" y="427"/>
      <point x="231" y="459" type="curve" smooth="yes"/>
      <point x="231" y="491"/>
      <point x="258" y="518"/>
      <point x="291" y="518" type="curve" smooth="yes"/>
      <point x="323" y="518"/>
      <point x="350" y="491"/>
      <point x="350" y="459" type="curve" smooth="yes"/>
      <point x="350" y="426"/>
      <point x="323" y="399"/>
    </contour>
    <contour>
      <point x="368" y="0" type="line"/>
      <point x="297" y="0" type="line"/>
      <point x="268" y="36" type="line"/>
      <point x="241" y="6"/>
      <point x="207" y="-9"/>
      <point x="164" y="-9" type="curve" smooth="yes"/>
      <point x="85" y="-9"/>
      <point x="46" y="29"/>
      <point x="46" y="105" type="curve" smooth="yes"/>
      <point x="46" y="360" type="line"/>
      <point x="158" y="360" type="line"/>
      <point x="158" y="120" type="line" smooth="yes"/>
      <point x="158" y="23"/>
      <point x="226" y="42"/>
      <point x="257" y="75" type="curve"/>
      <point x="257" y="360" type="line"/>
      <point x="368" y="360" type="line"/>
    </contour>
  </outline>
</glyph>
<glyph name="thorn" format="2">
  <advance width="413"/>
  <unicode hex="00FE"/>
  <note>
thorn
</note>
  <outline>
    <contour>
      <point x="164" y="353" type="line"/>
      <point x="187" y="364"/>
      <point x="209" y="369"/>
      <point x="230" y="369" type="curve" smooth="yes"/>
      <point x="333" y="369"/>
      <point x="384" y="306"/>
      <point x="384" y="180" type="curve" smooth="yes"/>
      <point x="384" y="54"/>
      <point x="333" y="-9"/>
      <point x="231" y="-9" type="curve" smooth="yes"/>
      <point x="209" y="-9"/>
      <point x="187" y="-7"/>
      <point x="164" y="-2" type="curve"/>
      <point x="164" y="-121" type="line"/>
      <point x="52" y="-121" type="line"/>
      <point x="52" y="460" type="line"/>
      <point x="164" y="464" type="line"/>
    </contour>
    <contour>
      <point x="164" y="48" type="line"/>
      <point x="172" y="47"/>
      <point x="184" y="46"/>
      <point x="200" y="46" type="curve" smooth="yes"/>
      <point x="249" y="46"/>
      <point x="273" y="89"/>
      <point x="273" y="176" type="curve" smooth="yes"/>
      <point x="273" y="263"/>
      <point x="247" y="306"/>
      <point x="196" y="306" type="curve" smooth="yes"/>
      <point x="188" y="306"/>
      <point x="177" y="304"/>
      <point x="164" y="300" type="curve"/>
    </contour>
  </outline>
</glyph>
<glyph name="ydieresis" format="2">
  <advance width="348"/>
  <unicode hex="00FF"/>
  <note>
ydieresis
</note>
  <outline>
    <contour>
      <point x="118" y="399" type="curve" smooth="yes"/>
      <point x="86" y="399"/>
      <point x="59" y="427"/>
      <point x="59" y="459" type="curve" smooth="yes"/>
      <point x="59" y="491"/>
      <point x="85" y="518"/>
      <point x="118" y="518" type="curve" smooth="yes"/>
      <point x="150" y="518"/>
      <point x="177" y="491"/>
      <point x="177" y="459" type="curve" smooth="yes"/>
      <point x="177" y="426"/>
      <point x="150" y="399"/>
    </contour>
    <contour>
      <point x="278" y="399" type="curve" smooth="yes"/>
      <point x="246" y="399"/>
      <point x="219" y="427"/>
      <point x="219" y="459" type="curve" smooth="yes"/>
      <point x="219" y="491"/>
      <point x="246" y="518"/>
      <point x="278" y="518" type="curve" smooth="yes"/>
      <point x="310" y="518"/>
      <point x="338" y="491"/>
      <point x="338" y="459" type="curve" smooth="yes"/>
      <point x="338" y="426"/>
      <point x="310" y="399"/>
    </contour>
    <contour>
      <point x="177" y="-152" type="line"/>
      <point x="95" y="-143" type="line"/>
      <point x="160" y="-12" type="line"/>
      <point x="1" y="360" type="line"/>
      <point x="112" y="360" type="line"/>
      <point x="208" y="125" type="line"/>
      <point x="284" y="360" type="line"/>
      <point x="348" y="360" type="line"/>
    </contour>
  </outline>
</glyph>
<glyph name="Amacron" format="2">
  <advance width="421"/>
  <unicode hex="0100"/>
  <note>
Amacron
</note>
  <outline>
    <contour>
      <point x="113" y="511" type="line"/>
      <point x="113" y="587" type="line"/>
      <point x="309" y="587" type="line"/>
      <point x="309" y="511" type="line"/>
    </contour>
    <contour>
      <point x="106" y="127" type="line"/>
      <point x="68" y="0" type="line"/>
      <point x="5" y="0" type="line"/>
      <point x="145" y="460" type="line"/>
      <point x="276" y="460" type="line"/>
      <point x="418" y="0" type="line"/>
      <point x="309" y="0" type="line"/>
      <point x="271" y="127" type="line"/>
    </contour>
    <contour>
      <point x="189" y="404" type="line"/>
      <point x="122" y="181" type="line"/>
      <point x="255" y="181" type="line"/>
    </contour>
  </outline>
</glyph>
<glyph name="amacron" format="2">
  <advance width="396"/>
  <unicode hex="0101"/>
  <note>
amacron
</note>
  <outline>
    <contour>
      <point x="302" y="411" type="line"/>
      <point x="106" y="411" type="line"/>
      <point x="106" y="487" type="line"/>
      <point x="302" y="487" type="line"/>
    </contour>
    <contour>
      <point x="248" y="42" type="line"/>
      <point x="220" y="8"/>
      <point x="183" y="-9"/>
      <point x="136" y="-9" type="curve" smooth="yes"/>
      <point x="73" y="-9"/>
      <point x="32" y="30"/>
      <point x="32" y="93" type="curve" smooth="yes"/>
      <point x="32" y="156"/>
      <point x="72" y="184"/>
      <point x="177" y="203" type="curve" smooth="yes"/>
      <point x="239" y="215" type="line"/>
      <point x="239" y="251" type="line" smooth="yes"/>
      <point x="239" y="293"/>
      <point x="224" y="314"/>
      <point x="194" y="314" type="curve" smooth="yes"/>
      <point x="161" y="314"/>
      <point x="143" y="287"/>
      <point x="140" y="233" type="curve"/>
      <point x="48" y="244" type="line"/>
      <point x="56" y="329"/>
      <point x="94" y="369"/>
      <point x="197" y="369" type="curve" smooth="yes"/>
      <point x="299" y="369"/>
      <point x="350" y="327"/>
      <point x="350" y="244" type="curve" smooth="yes"/>
      <point x="350" y="0" type="line"/>
      <point x="276" y="0" type="line"/>
    </contour>
    <contour>
      <point x="131" y="96" type="curve" smooth="yes"/>
      <point x="131" y="65"/>
      <point x="148" y="49"/>
      <point x="182" y="49" type="curve" smooth="yes"/>
      <point x="200" y="49"/>
      <point x="219" y="60"/>
      <point x="239" y="81" type="curve"/>
      <point x="239" y="170" type="line"/>
      <point x="194" y="161" type="line" smooth="yes"/>
      <point x="152" y="152"/>
      <point x="131" y="130"/>
    </contour>
  </outline>
</glyph>
<glyph name="Abreve" format="2">
  <advance width="421"/>
  <unicode hex="0102"/>
  <note>
Abreve
</note>
  <outline>
    <contour>
      <point x="311" y="616" type="line"/>
      <point x="311" y="537"/>
      <point x="278" y="498"/>
      <point x="211" y="498" type="curve" smooth="yes"/>
      <point x="144" y="498"/>
      <point x="110" y="537"/>
      <point x="110" y="616" type="curve"/>
      <point x="154" y="616" type="line"/>
      <point x="154" y="581"/>
      <point x="172" y="563"/>
      <point x="209" y="563" type="curve" smooth="yes"/>
      <point x="246" y="563"/>
      <point x="264" y="581"/>
      <point x="264" y="616" type="curve"/>
    </contour>
    <contour>
      <point x="106" y="127" type="line"/>
      <point x="68" y="0" type="line"/>
      <point x="5" y="0" type="line"/>
      <point x="145" y="460" type="line"/>
      <point x="276" y="460" type="line"/>
      <point x="418" y="0" type="line"/>
      <point x="309" y="0" type="line"/>
      <point x="271" y="127" type="line"/>
    </contour>
    <contour>
      <point x="189" y="404" type="line"/>
      <point x="122" y="181" type="line"/>
      <point x="255" y="181" type="line"/>
    </contour>
  </outline>
</glyph>
